<?xml version="1.0" encoding="utf-8"?>
<!-- Generator: Adobe Illustrator 17.1.0, SVG Export Plug-In . SVG Version: 6.00 Build 0)  -->
<!DOCTYPE svg PUBLIC "-//W3C//DTD SVG 1.1//EN" "http://www.w3.org/Graphics/SVG/1.1/DTD/svg11.dtd">
<svg version="1.1" id="Layer_1" xmlns="http://www.w3.org/2000/svg" xmlns:xlink="http://www.w3.org/1999/xlink" x="0px" y="0px"
	 viewBox="0 0 102 77" enable-background="new 0 0 102 77" xml:space="preserve">
<g>
	<path fill="#02343F" d="M57.3,41.4L95.2,2.2C93.9,1.4,92.7,1,91,1H11C9.7,1,8.5,1.4,7.2,2.2l37.9,39.2
		C48.5,44.8,53.9,44.8,57.3,41.4z"/>
	<path fill="#02343F" d="M1.4,8.9C1,9.3,1,10.2,1,11v55.4c0,1.2,0.4,2.5,0.8,3.3l29.2-30L1.4,8.9z"/>
	<path fill="#02343F" d="M100.6,9.3c0.4,0.4,0.4,1.2,0.4,2.1v55.4c0,1.2-0.4,2.5-0.8,3.3L71,40.2L100.6,9.3z"/>
	<path fill="#02343F" d="M61,48.9c-2.5,2.9-6.3,4.2-9.6,4.2c-3.3,0-7.1-1.2-9.6-4.2l-3.8-4.2L8.5,75.2C8.9,75.6,9.7,76,11,76h80.4
		c0.8,0,2.1-0.4,2.9-0.4L64.8,45.2L61,48.9z"/>
</g>
</svg>
