<?xml version="1.0" encoding="utf-8"?>
<!-- Generator: Adobe Illustrator 18.0.0, SVG Export Plug-In . SVG Version: 6.00 Build 0)  -->
<!DOCTYPE svg PUBLIC "-//W3C//DTD SVG 1.1//EN" "http://www.w3.org/Graphics/SVG/1.1/DTD/svg11.dtd">
<svg version="1.1" id="Layer_1" xmlns="http://www.w3.org/2000/svg" xmlns:xlink="http://www.w3.org/1999/xlink" x="0px" y="0px"
	 viewBox="0 0 43 50" enable-background="new 0 0 43 50" xml:space="preserve">
<path fill="#AFABA8" d="M42.7,43.1l-3.4-18.9l2.6-19l-6.1-0.8L34.9,0L21.3,2.4L7.7,0.6L7.4,2.7l-2.8,0l0,2.7L1,6.1L4.4,25L1.8,44
	l2.8,0.4l0,2.1l3.6,0l0.5,2.7l13.6-2.4L36,48.6l0.3-2.1l2.8,0l0-2.7L42.7,43.1z M3.1,7.6l1.4-0.3l0,8.4L3.1,7.6z M3.9,42.4l0.7-5.3
	l0,5.4L3.9,42.4z M39.8,6.8l-0.5,3.9l-2.9-2.9l-0.3-1.5L39.8,6.8z M35.9,10l-4.2,0l0-4.2L35.9,10z M33.5,2.1l0.4,2l-1.3-0.2
	l-1.4-1.4L33.5,2.1z M10.2,47l-0.1-0.6l3.2,0L10.2,47z M6.4,44.6l0-40.1l23.5,0l0,7.3l7.3,0l0,32.8L6.4,44.6z M39.1,33.5l1.5,8.1
	l-1.4,0.3L39.1,33.5z M33.6,16l-23.3,0l0,1.8l23.3,0L33.6,16z M33.6,21l-23.3,0l0,1.8l23.3,0L33.6,21z M33.6,26l-23.3,0l0,1.8
	l23.3,0L33.6,26z M33.6,31l-23.3,0l0,1.8l23.3,0L33.6,31z M10.3,36.1l0,1.8l23.3,0l0-1.8L10.3,36.1z"/>
</svg>
