<?xml version="1.0" encoding="utf-8"?>
<!-- Generator: Adobe Illustrator 17.1.0, SVG Export Plug-In . SVG Version: 6.00 Build 0)  -->
<!DOCTYPE svg PUBLIC "-//W3C//DTD SVG 1.1//EN" "http://www.w3.org/Graphics/SVG/1.1/DTD/svg11.dtd">
<svg version="1.1" id="Layer_1" xmlns="http://www.w3.org/2000/svg" xmlns:xlink="http://www.w3.org/1999/xlink" x="0px" y="0px"
	 viewBox="0 0 102 102" enable-background="new 0 0 102 102" xml:space="preserve">
<g>
	<path fill="#004E66" d="M30.4,101c0-0.6,0-1.1,0-1.7C30.4,83.8,17.6,71,1.5,71H1v30H30.4z"/>
	<path fill="#004E66" d="M1,56c23.9,0,44.4,19.4,44.4,43.3c0,0.6,0,1.1,0,1.7H66c0-0.6,0-1.1,0-1.7C66,64.3,37.1,36,2.1,36H1V56
		C1,56.2,1,56,1,56z"/>
	<path fill="#004E66" d="M1.6,21c43.3,0,78.8,35,78.8,78.3c0,0.6,0,1.1,0,1.7H101c0-0.6,0-1.1,0-1.7C101,45.4,56.5,1,1.5,1H1v20
		C1,21,1.6,21,1.6,21z"/>
</g>
</svg>
