<?xml version="1.0" encoding="utf-8"?>
<!-- Generator: Adobe Illustrator 18.0.0, SVG Export Plug-In . SVG Version: 6.00 Build 0)  -->
<!DOCTYPE svg PUBLIC "-//W3C//DTD SVG 1.1//EN" "http://www.w3.org/Graphics/SVG/1.1/DTD/svg11.dtd">
<svg version="1.1" id="Layer_1" xmlns="http://www.w3.org/2000/svg" xmlns:xlink="http://www.w3.org/1999/xlink" x="0px" y="0px"
	 viewBox="0 0 475.5 91.5" style="enable-background:new 0 0 475.5 91.5;" xml:space="preserve">
<style type="text/css">
	.st0{fill:#54616C;}
	.st1{fill:#4D9D34;}
</style>
<path class="st0" d="M31.3,35.7h3.7v5.2h0.1c1.3-3.6,5.4-6.1,9.6-6.1c8.4,0,11,4.4,11,11.6v19.3H52V47c0-5.2-1.7-9.1-7.6-9.1
	c-5.8,0-9.3,4.4-9.4,10.3v17.5h-3.7V35.7z"/>
<path class="st0" d="M89.5,50.7c0,8.6-5,15.9-14.2,15.9c-9.2,0-14.2-7.3-14.2-15.9c0-8.6,5-15.9,14.2-15.9
	C84.5,34.8,89.5,42.1,89.5,50.7 M64.7,50.7c0,6.4,3.5,12.8,10.5,12.8c7,0,10.5-6.4,10.5-12.8s-3.5-12.8-10.5-12.8
	C68.2,37.9,64.7,44.3,64.7,50.7"/>
<path class="st0" d="M94.9,35.7h3.4v7h0.1c1.9-4.8,5.9-7.7,11.4-7.5v3.7c-6.6-0.3-11.2,4.5-11.2,10.8v16h-3.7V35.7z"/>
<path class="st0" d="M131.2,44.5c-0.2-4.5-3.7-6.6-7.9-6.6c-3.3,0-7.1,1.3-7.1,5.2c0,3.3,3.7,4.4,6.2,5.1l4.9,1.1
	c4.2,0.6,8.6,3.1,8.6,8.3c0,6.5-6.5,9-12,9c-7,0-11.8-3.3-12.3-10.6h3.7c0.3,4.9,4,7.5,8.8,7.5c3.4,0,8.2-1.5,8.2-5.7
	c0-3.5-3.3-4.7-6.6-5.5l-4.7-1c-4.8-1.3-8.4-2.9-8.4-8c0-6.1,6-8.4,11.3-8.4c6,0,10.8,3.1,11,9.7H131.2z"/>
<polygon class="st0" points="141.2,24.2 144.9,24.2 144.9,50.2 161.6,35.7 166.4,35.7 153.6,46.8 167.3,65.7 162.7,65.7 150.8,49.4 
	144.9,54.3 144.9,65.7 141.2,65.7 "/>
<path class="st1" d="M171.3,24.2h9.9v15.5h0.1c1.5-3.1,5.6-5,9.2-5c10.1,0,10.9,7.3,10.9,11.7v19.4h-9.9V51.1c0-4.1,0.5-8.3-4.9-8.3
	c-3.7,0-5.4,3.1-5.4,6.5v16.5h-9.9V24.2z"/>
<path class="st1" d="M215.8,53c0.2,4.1,2.6,6.9,6.8,6.9c2.4,0,4.7-1.1,5.6-3.3h9.3c-1.8,7-8.3,10-15,10c-9.8,0-16.5-5.9-16.5-16.1
	c0-9.3,7.4-15.9,16.3-15.9c10.8,0,16.2,8.1,15.8,18.4H215.8z M228.1,47.5c-0.2-3.4-2.6-6.2-5.9-6.2c-3.5,0-5.8,2.5-6.4,6.2H228.1z"
	/>
<rect x="242.7" y="24.2" class="st1" width="9.9" height="41.6"/>
<path class="st1" d="M266.7,55.8c0,1.5,0.6,2.6,1.6,3.4c0.9,0.7,2.3,1,3.7,1c1.9,0,4.7-0.8,4.7-3.2c0-2.3-3.1-2.8-4.8-3.2
	c-6.2-1.6-14-1.7-14-9.9c0-7.3,7.9-9.3,13.8-9.3c6.6,0,13.6,1.9,13.9,9.8h-9.1c0-1.3-0.5-2.1-1.3-2.6c-0.8-0.5-1.9-0.8-3.1-0.8
	c-1.6,0-4.2,0.2-4.2,2.3c0,2.9,6.6,3.4,11.2,4.4c6.1,1.2,7.7,5.6,7.7,8.1c0,8.1-7.7,10.8-14.5,10.8c-7.2,0-14.5-2.4-14.8-10.8H266.7
	z"/>
<path class="st1" d="M299.2,53c0.2,4.1,2.6,6.9,6.8,6.9c2.4,0,4.7-1.1,5.6-3.3h9.3c-1.8,7-8.3,10-15,10c-9.8,0-16.5-5.9-16.5-16.1
	c0-9.3,7.4-15.9,16.3-15.9c10.8,0,16.2,8.1,15.8,18.4H299.2z M311.5,47.5c-0.2-3.4-2.6-6.2-5.9-6.2c-3.5,0-5.8,2.5-6.4,6.2H311.5z"
	/>
<path class="st1" d="M325.8,35.5h9.6v4.1h0.1c1.8-3.1,5.9-5,9.5-5c10.1,0,10.9,7.3,10.9,11.7v19.4H346V51.1c0-4.1,0.5-8.3-4.9-8.3
	c-3.7,0-5.4,3.1-5.4,6.5v16.5h-9.9V35.5z"/>
<path class="st1" d="M370.3,53c0.2,4.1,2.6,6.9,6.8,6.9c2.4,0,4.7-1.1,5.6-3.3h9.3c-1.8,7-8.3,10-15,10c-9.8,0-16.5-5.9-16.5-16.1
	c0-9.3,7.4-15.9,16.3-15.9c10.8,0,16.2,8.1,15.8,18.4H370.3z M382.6,47.5c-0.2-3.4-2.6-6.2-5.9-6.2c-3.5,0-5.8,2.5-6.4,6.2H382.6z"
	/>
<path class="st1" d="M416.6,41.9h-7.7v13.7c0,2.4,1.4,2.9,3.6,2.9c0.8,0,1.7-0.1,2.6-0.1v7.3c-1.8,0.1-3.6,0.3-5.4,0.3
	c-8.4,0-10.6-2.4-10.6-10.7V41.9h-5v-6.4h5v-9.1h9.9v9.1h7.7V41.9z"/>
<path class="st1" d="M437.1,41.9H431v13.7c0,2.4,1.4,2.9,3.6,2.9c0.8,0,1.7-0.1,2.6-0.1v7.3c-1.8,0.1-3.6,0.3-5.4,0.3
	c-8.4,0-10.6-2.4-10.6-10.7V41.9h-5v-6.4h5v-9.1h9.9v9.1h6.1V41.9z"/>
</svg>
