<?xml version="1.0" encoding="utf-8"?>
<!-- Generator: Adobe Illustrator 17.1.0, SVG Export Plug-In . SVG Version: 6.00 Build 0)  -->
<!DOCTYPE svg PUBLIC "-//W3C//DTD SVG 1.1//EN" "http://www.w3.org/Graphics/SVG/1.1/DTD/svg11.dtd">
<svg version="1.1" id="Layer_1" xmlns="http://www.w3.org/2000/svg" xmlns:xlink="http://www.w3.org/1999/xlink" x="0px" y="0px"
	 viewBox="0 0 102 102" enable-background="new 0 0 102 102" xml:space="preserve">
<path fill="#FFFFFF" d="M9.5,101c-1.1,0-2.1-0.2-3.1-0.7C1.7,98.2,1,94.9,1,93.2c0-2.4,0-8.8,25.3-20.9c4-7,7.7-14.3,9.5-18.3
	c1.3-2.9,3.9-10,6.3-18.1C30.3,14.4,33.9,8,35.1,5.9c1.2-2.1,3.8-4.7,9.1-4.9l0.4,0c2.8,0,5.1,1.1,6.7,3.2c1.4,1.8,5.4,7.1-0.9,30.5
	c4,7,8.3,12.9,10.7,16.1c2,2.5,4.4,4.8,7.1,7c7-1.5,12.9-2.3,17.5-2.3c6.3,0,10.6,1.4,13.1,4.2c1.3,1.4,2.6,4,2.1,7.9
	c-0.2,1.7-1.8,7.4-10.5,7.4l0,0c-6.7,0-16-3.5-23.9-9c-6.3,1.5-12.1,3.3-16.1,4.5c-4,1.3-11.1,4-18.5,7.4
	C19.7,98.6,13.3,101,9.5,101z M8.8,92.9C9,93,9.2,93.2,9.6,93.3c0.4-0.1,2.9-0.8,8.2-7.8C11.6,89.3,9.3,91.8,8.8,92.9z M77.8,63.9
	c5,2.4,9.5,3.5,12.5,3.5c0.1,0,2.8,0,2.9-0.8c0.2-1.2-0.1-1.6-0.3-1.8c-0.3-0.4-1.8-1.6-7.2-1.6C83.5,63.3,80.8,63.5,77.8,63.9z
	 M38.7,66.4l-0.3,0.5c4-1.6,7.3-2.8,9.6-3.5c2.8-0.9,6.4-2,10.5-3.1l-0.2-0.1L59,60c-1.4-1.4-2.7-2.8-3.9-4.3
	c-1.8-2.3-4.6-6.1-7.5-10.7l-0.1,0.4L47.3,45c-1.8,5.3-3.4,9.7-4.4,11.9c-1,2.4-2.7,5.8-4.7,9.7L38.7,66.4z M44.5,8.7
	c-2.2,0.1-2.6,0.8-2.7,1c-1,1.7-0.5,6.5,3.1,14.6c2.3-12,0.5-15,0.2-15.4C45,8.7,45,8.7,44.5,8.7z"/>
</svg>
