<?xml version="1.0" encoding="utf-8"?>
<!-- Generator: Adobe Illustrator 17.1.0, SVG Export Plug-In . SVG Version: 6.00 Build 0)  -->
<!DOCTYPE svg PUBLIC "-//W3C//DTD SVG 1.1//EN" "http://www.w3.org/Graphics/SVG/1.1/DTD/svg11.dtd">
<svg version="1.1" id="Layer_1" xmlns="http://www.w3.org/2000/svg" xmlns:xlink="http://www.w3.org/1999/xlink" x="0px" y="0px"
	 viewBox="0 0 211.9 57.5" enable-background="new 0 0 211.9 57.5" xml:space="preserve">
<g>
	<g>
		<g>
			<g>
				<path fill="#82CFEF" d="M159.2,5.9c-0.6,0-0.9,0.5-0.7,1l11,22.4c0.3,0.6,0.3,1.5,0,2.1l-11.7,23.1c-0.3,0.6,0,1,0.6,1l31.7,0
					c0.6,0,1.4-0.4,1.8-0.9l18.3-23.4c0.4-0.5,0.4-1.3,0-1.9L192.8,6.9c-0.4-0.5-1.2-0.9-1.9-0.9L159.2,5.9z"/>
			</g>
			<g opacity="0.8">
				<linearGradient id="SVGID_1_" gradientUnits="userSpaceOnUse" x1="182.8452" y1="55.1236" x2="182.8452" y2="1">
					<stop  offset="0" style="stop-color:#002D42"/>
					<stop  offset="1" style="stop-color:#009DDF"/>
				</linearGradient>
				<path opacity="0.8" fill="url(#SVGID_1_)" d="M155,26.5c-0.4,0.5-0.2,1,0.5,1.2l23.1,4.3c0.6,0.1,1.4,0.7,1.7,1.3l10.6,21.4
					c0.3,0.6,0.8,0.6,1.2,0.1l18.4-23.6c0.4-0.5,0.6-1.4,0.4-2l-7.5-27c-0.2-0.6-0.8-1.1-1.5-1.1l-26.7,0c-0.6,0-1.5,0.4-1.9,0.9
					L155,26.5z"/>
			</g>
		</g>
		<linearGradient id="SVGID_2_" gradientUnits="userSpaceOnUse" x1="1" y1="38.8542" x2="152.0854" y2="38.8542">
			<stop  offset="0" style="stop-color:#54AAC9"/>
			<stop  offset="1" style="stop-color:#398CA8"/>
		</linearGradient>
		<path fill="url(#SVGID_2_)" d="M152,37.8c-0.1-2.6-0.8-4.9-2-7.1c-1.7-3.1-4.2-5.7-7.3-7.3c-2.5-1.4-5.2-2-8.2-2
			c-0.2,0-0.5,0-0.7,0v0h-33.4l0,0c-2.1,0-4.6,0.3-6.1,1.8c-1.5,1.4-1.6,3.6-1.6,5.6l0,0.1c0,0,0,12.5,0,20.5l-14.5,0
			c-2.2,0-3.5-1.3-3.5-3.5l0-24.6h-7l0,28.1l-21,0c-2.7,0-3.5-0.6-3.5-3.1l0-3.8h18v-7l-18,0l0-3.6c0-2.7,0.8-3.5,3.5-3.5l14.5,0v-7
			h-18c-2.1,0-3.9,0.3-5.4,1.8c-1.5,1.4-1.6,3.2-1.6,5.3c0,0,0,20.9,0,20.9h-3.5c-2.4,0-3.3-0.9-3.3-3.1V21.3h-7c0,0,0,7,0,14H8v-14
			H1V56h7V42.3h14.4c0,0,0,6.9,0,6.9c0,2.1,0.4,3.9,1.9,5.3c1.1,1.1,2.5,1.3,4,1.4c0.4,0,71.4,0,71.4,0V42.4H113v-7.1H99.7l0-3.5
			c0-2.7,0.8-3.5,3.5-3.5l17.2,0c-2.2,2.9-3.5,6.6-3.5,10.6c0,0.3,0,0.7,0,1c0.2,2.9,1,5.6,2.5,8c1.5,2.4,3.5,4.5,6,6
			c2.3,1.4,4.8,2.2,7.6,2.5c0.5,0,1,0.1,1.5,0.1c0.5,0,1,0,1.6-0.1c0.1,0,0.2,0,0.2,0c2.3-0.2,4.5-0.9,6.5-2
			c2.8-1.5,5.2-3.8,6.8-6.5c1.5-2.4,2.3-5,2.4-7.9c0-0.4,0-0.7,0-1.1C152.1,38.5,152.1,38.1,152,37.8z M134.5,49.2
			c-5.7,0-10.4-4.7-10.4-10.4c0-5.7,4.7-10.4,10.4-10.4c5.7,0,10.4,4.7,10.4,10.4C144.9,44.6,140.2,49.2,134.5,49.2z"/>
	</g>
</g>
</svg>
