<?xml version="1.0" encoding="utf-8"?>
<!-- Generator: Adobe Illustrator 17.1.0, SVG Export Plug-In . SVG Version: 6.00 Build 0)  -->
<!DOCTYPE svg PUBLIC "-//W3C//DTD SVG 1.1//EN" "http://www.w3.org/Graphics/SVG/1.1/DTD/svg11.dtd">
<svg version="1.1" id="Layer_1" xmlns="http://www.w3.org/2000/svg" xmlns:xlink="http://www.w3.org/1999/xlink" x="0px" y="0px"
	 viewBox="0 65.4 102 102" enable-background="new 0 65.4 102 102" xml:space="preserve">
<path fill="#0093A7" d="M64.8,116.4l35.1-35.1c1.5-1.5,1.5-4,0-5.5l-8.3-8.3c-1.5-1.5-4-1.5-5.5,0L51,102.6L15.9,67.5
	c-1.5-1.5-4-1.5-5.5,0l-8.3,8.3c-1.5,1.5-1.5,4,0,5.5l35.1,35.1L2.1,151.5c-1.5,1.5-1.5,4,0,5.5l8.3,8.3c1.5,1.5,4,1.5,5.5,0
	L51,130.2l35.1,35.1c1.5,1.5,4,1.5,5.5,0l8.3-8.3c1.5-1.5,1.5-4,0-5.5L64.8,116.4z"/>
</svg>
