<?xml version="1.0" encoding="utf-8"?>
<!-- Generator: Adobe Illustrator 17.1.0, SVG Export Plug-In . SVG Version: 6.00 Build 0)  -->
<!DOCTYPE svg PUBLIC "-//W3C//DTD SVG 1.1//EN" "http://www.w3.org/Graphics/SVG/1.1/DTD/svg11.dtd">
<svg version="1.1" id="Layer_1" xmlns="http://www.w3.org/2000/svg" xmlns:xlink="http://www.w3.org/1999/xlink" x="0px" y="0px"
	 viewBox="0 0 102 102" enable-background="new 0 0 102 102" xml:space="preserve">
<linearGradient id="SVGID_1_" gradientUnits="userSpaceOnUse" x1="1" y1="51" x2="101" y2="51" gradientTransform="matrix(1 0 0 -1 0 102)">
	<stop  offset="0" style="stop-color:#E85236"/>
	<stop  offset="1" style="stop-color:#EB6A0A"/>
</linearGradient>
<circle fill="url(#SVGID_1_)" cx="51" cy="51" r="50"/>
<path fill="#FFFFFF" d="M61.9,29.4c-0.7-0.5-3.1-2-4.3-2c-0.9,0-1.6,0.4-2.2,1c-0.1,0-0.2,0-0.2,0c-0.9,0-1.8,0.1-2.6,0.1
	c0-0.7,0-1.1,0-1.2c0-1.9-1.6-3.8-3.3-3.8c-1.7,0-3.2,1.7-3.2,3.6c0,0.2,0,1.1,0,2.6c-5.5,2-6.6,5.9-6.5,8.9c0.2,4.9,3.7,6.8,6.9,8
	c0.1,2,0.1,4,0.2,6.1c0.1,2.5,0.2,4.8,0.2,6.9c-0.1,0.1-0.1,0.1-0.2,0.2c-2.1,2.7-2.1,5.8,0.2,9.6c0.1,0.2,0.3,0.3,0.4,0.5
	c0.5,8.6,0.9,8.6,1.9,8.6c1.3,0,1.7,0,2.3-18.3c0.1,0,0.1-0.1,0.2-0.1l0.1-0.1c2.2-1.8,5-4.1,5.2-8.2c0.2-3.9-2.2-5.7-4.9-6.9
	c0.1-5,0.3-9.5,0.3-12.8c0.9-0.1,1.8-0.1,2.8-0.2c0,0,0.1,0,0.1,0c0.5,0.7,1.3,1.1,2.2,1.1c1.3,0,3.6-1.7,4.3-2.2
	c0.2-0.2,0.4-0.5,0.4-0.7C62.3,29.8,62.2,29.5,61.9,29.4z M43.3,38.5c-0.1-1.6,0.3-3.5,2.9-4.9c0.1,2.5,0.1,5.7,0.2,9.1
	C44.5,41.8,43.4,40.7,43.3,38.5z M49.3,61.6c-0.2-4.4-0.3-9.4-0.5-14.1c0.3,0.1,0.7,0.2,0.9,0.3C49.7,52.5,49.5,57.2,49.3,61.6z
	 M53.5,51.6c-0.1,1.5-0.7,2.6-1.6,3.6c0-0.7,0.1-1.5,0.1-2.3c0-1.3,0.1-2.6,0.1-4C53.1,49.6,53.5,50.4,53.5,51.6z M49.5,43.9
	c-0.2-0.1-0.5-0.2-0.7-0.3c-0.2-8.6-0.4-15.7-0.4-16.5c0-0.8,0.6-1.4,0.9-1.4c0.3,0,1,0.7,1,1.5c0,0.9-0.2,8.1-0.4,16.8
	C49.8,44,49.6,44,49.5,43.9z"/>
</svg>
