<?xml version="1.0" encoding="utf-8"?>
<!-- Generator: Adobe Illustrator 17.1.0, SVG Export Plug-In . SVG Version: 6.00 Build 0)  -->
<!DOCTYPE svg PUBLIC "-//W3C//DTD SVG 1.1//EN" "http://www.w3.org/Graphics/SVG/1.1/DTD/svg11.dtd">
<svg version="1.1" id="Layer_1" xmlns="http://www.w3.org/2000/svg" xmlns:xlink="http://www.w3.org/1999/xlink" x="0px" y="0px"
	 viewBox="0 0 102 102" enable-background="new 0 0 102 102" xml:space="preserve">
<linearGradient id="SVGID_1_" gradientUnits="userSpaceOnUse" x1="1" y1="51" x2="101" y2="51" gradientTransform="matrix(1 0 0 -1 0 102)">
	<stop  offset="0" style="stop-color:#E85236"/>
	<stop  offset="1" style="stop-color:#EB6A0A"/>
</linearGradient>
<circle fill="url(#SVGID_1_)" cx="51" cy="51" r="50"/>
<g>
	<g>
		<path fill="#FFFFFF" d="M50.8,73.5c-3.3,0-6.1-0.8-8.4-2.4c-2.2-1.5-3.3-3.9-3.5-7l0-0.1c0-0.4,0.1-0.8,0.4-1.1
			c0.6-0.6,1.8-0.7,2.1-0.7c1,0,1.8,0.7,1.9,1.7c0.1,1.8,0.8,3.1,2,4c1.5,1,3.3,1.6,5.4,1.6c2.2,0,3.8-0.5,5-1.4
			c1.1-0.8,1.7-1.9,1.7-3.2c0-1.3-0.4-2.2-1.3-2.9c-1-0.8-3.1-1.6-6.1-2.5c-3.7-0.9-6.4-2-8.2-3.4C40,54.6,39,52.4,39,49.7
			c0-1.6,0.5-3.1,1.5-4.3c0.6-0.8,1.4-1.4,2.4-1.9c-0.7-0.5-1.3-1.2-1.8-1.9c-1.3-2.1-1.6-4.3-0.9-6.7c1.1-4.2,4.9-6.3,11-6.3
			c3.5,0,6.2,0.9,8.2,2.7c1.8,1.6,2.8,3.8,2.9,6.5c0,0.1,0,0.2,0,0.3c0,1.1-0.9,1.7-1.8,1.8l-0.1,0h-0.6c-1,0-1.8-0.7-1.9-1.7
			c-0.1-1.5-0.7-2.7-1.7-3.8c-1.2-1.2-2.8-1.8-5-1.8c-2.3,0-4,0.5-5.1,1.3c-1.1,0.9-1.6,1.9-1.6,3.2c0,1.4,0.4,2.4,1.3,3.1
			c0.7,0.5,2.3,1.4,6.2,2.5c3.7,1,6.4,2.1,8.2,3.4c1.9,1.4,2.8,3.5,2.8,6.2c0,1.7-0.5,3.1-1.6,4.3C60.8,57.4,60,58,59,58.5
			c0.7,0.6,1.4,1.2,1.8,1.9c0.8,1.2,1.2,2.7,1.2,4.4c0,2.7-1.1,4.9-3.2,6.5C56.8,72.7,54.1,73.5,50.8,73.5z M47.4,45.8
			c-1.3,0.2-2.3,0.6-2.9,1.3c-0.7,0.7-1,1.5-1,2.5c0,1.4,0.4,2.4,1.4,3.1c0.7,0.5,2.5,1.4,6.8,2.6l1.4,0.4c0.4,0.1,0.8,0.2,1.1,0.3
			c1.4-0.2,2.5-0.6,3.2-1.3c0.7-0.7,1.1-1.5,1.1-2.4c0-1.3-0.5-2.2-1.5-3c-1.1-0.8-3.4-1.8-6.7-2.7c-0.5-0.1-1.1-0.3-1.7-0.4
			C48.2,46.1,47.8,46,47.4,45.8L47.4,45.8z"/>
	</g>
</g>
</svg>
