<?xml version="1.0" encoding="utf-8"?>
<!-- Generator: Adobe Illustrator 17.1.0, SVG Export Plug-In . SVG Version: 6.00 Build 0)  -->
<!DOCTYPE svg PUBLIC "-//W3C//DTD SVG 1.1//EN" "http://www.w3.org/Graphics/SVG/1.1/DTD/svg11.dtd">
<svg version="1.1" id="Layer_1" xmlns="http://www.w3.org/2000/svg" xmlns:xlink="http://www.w3.org/1999/xlink" x="0px" y="0px"
	 viewBox="0 0 102 102" enable-background="new 0 0 102 102" xml:space="preserve">
<linearGradient id="SVGID_1_" gradientUnits="userSpaceOnUse" x1="1" y1="51" x2="101" y2="51" gradientTransform="matrix(1 0 0 -1 0 102)">
	<stop  offset="0" style="stop-color:#E85236"/>
	<stop  offset="1" style="stop-color:#EB6A0A"/>
</linearGradient>
<circle fill="url(#SVGID_1_)" cx="51" cy="51" r="50"/>
<path fill="#FFFFFF" d="M76.6,46.8l-2.2-3.1c-0.3-0.4-0.8-0.5-1.1-0.2l-4.8,3.4v-9.4c0-0.2-0.1-0.4-0.1-0.6c0,0,0,0,0-0.1
	c-0.1-0.1-0.1-0.2-0.2-0.3c0,0,0,0,0,0l-7.8-7.6h0l0,0c0,0,0,0,0,0c-0.1-0.1-0.2-0.1-0.3-0.2c0,0,0,0-0.1,0c-0.1,0-0.2-0.1-0.3-0.1
	c0,0,0,0,0,0c-0.1,0-0.1,0-0.2,0H36.1c-0.7,0-1.3,0.6-1.3,1.3v42.5c0,0.7,0.6,1.3,1.3,1.3h31.1c0.7,0,1.3-0.6,1.3-1.3V53.5l7.9-5.6
	C76.8,47.6,76.9,47.1,76.6,46.8z M60.8,32.8l3.4,3.3h-3.4V32.8z M66,71H37.4V31h20.8v6.4c0,0.7,0.6,1.3,1.3,1.3H66v9.9l-11.2,8
	l-2.7,5.2l5.8-0.7l8.1-5.8V71z"/>
</svg>
