<?xml version="1.0" encoding="utf-8"?>
<!-- Generator: Adobe Illustrator 17.1.0, SVG Export Plug-In . SVG Version: 6.00 Build 0)  -->
<!DOCTYPE svg PUBLIC "-//W3C//DTD SVG 1.1//EN" "http://www.w3.org/Graphics/SVG/1.1/DTD/svg11.dtd">
<svg version="1.1" id="Layer_1" xmlns="http://www.w3.org/2000/svg" xmlns:xlink="http://www.w3.org/1999/xlink" x="0px" y="0px"
	 viewBox="0 0 102 102" enable-background="new 0 0 102 102" xml:space="preserve">
<linearGradient id="SVGID_1_" gradientUnits="userSpaceOnUse" x1="1" y1="51" x2="101" y2="51">
	<stop  offset="0" style="stop-color:#E85236"/>
	<stop  offset="1" style="stop-color:#EB6A0A"/>
</linearGradient>
<circle fill="url(#SVGID_1_)" cx="51" cy="51" r="50"/>
<path fill="#FFFFFF" d="M67.9,23.5c-0.9-0.6-3.9-2.6-5.5-2.6c-1.1,0-2.1,0.5-2.7,1.3c-0.1,0-0.2,0-0.3,0c-1.2,0-2.3,0.1-3.4,0.2
	c0-0.8,0-1.4,0-1.5c0-2.5-2-4.8-4.2-4.8c-2.2,0-4.1,2.2-4.1,4.6c0,0.2,0,1.4,0.1,3.3c-7,2.6-8.4,7.6-8.2,11.4
	c0.2,6.2,4.7,8.7,8.8,10.2c0.1,2.5,0.1,5.1,0.2,7.7c0.1,3.2,0.2,6.1,0.3,8.7c-0.1,0.1-0.2,0.2-0.3,0.3c-2.7,3.4-2.6,7.4,0.3,12.2
	c0.1,0.2,0.3,0.4,0.5,0.6C50,86,50.6,86,51.8,86c1.6,0,2.1,0,3-23.3c0.1-0.1,0.2-0.1,0.3-0.2l0.1-0.1c2.8-2.3,6.3-5.2,6.6-10.4
	c0.2-5-2.8-7.3-6.3-8.7c0.2-6.3,0.3-12.1,0.4-16.3c1.1-0.1,2.3-0.2,3.6-0.2c0,0,0.1,0,0.1,0c0.7,0.8,1.7,1.4,2.8,1.4
	c1.6,0,4.6-2.1,5.5-2.8c0.3-0.2,0.5-0.6,0.5-0.9C68.4,24,68.2,23.7,67.9,23.5z M44.2,35.1c-0.1-2,0.3-4.5,3.7-6.2
	c0.1,3.2,0.2,7.2,0.3,11.6C45.8,39.3,44.3,37.9,44.2,35.1z M51.9,64.5c-0.2-5.7-0.4-11.9-0.6-17.9c0.4,0.1,0.8,0.3,1.2,0.4
	C52.3,52.9,52.1,59,51.9,64.5z M57.1,51.8c-0.1,1.9-0.9,3.3-2.1,4.6c0-1,0.1-1.9,0.1-2.9c0.1-1.7,0.1-3.4,0.2-5
	C56.6,49.2,57.2,50.2,57.1,51.8z M52.1,42c-0.3-0.1-0.6-0.2-0.9-0.3c-0.3-10.9-0.5-20-0.5-21c0-1,0.8-1.7,1.2-1.7
	c0.4,0,1.3,0.8,1.3,1.9c0,1.1-0.2,10.3-0.5,21.4C52.4,42.1,52.3,42,52.1,42z"/>
</svg>
