<?xml version="1.0" encoding="utf-8"?>
<!-- Generator: Adobe Illustrator 17.1.0, SVG Export Plug-In . SVG Version: 6.00 Build 0)  -->
<!DOCTYPE svg PUBLIC "-//W3C//DTD SVG 1.1//EN" "http://www.w3.org/Graphics/SVG/1.1/DTD/svg11.dtd">
<svg version="1.1" id="Layer_1" xmlns="http://www.w3.org/2000/svg" xmlns:xlink="http://www.w3.org/1999/xlink" x="0px" y="0px"
	 viewBox="0 0 102 102" enable-background="new 0 0 102 102" xml:space="preserve">
<linearGradient id="SVGID_1_" gradientUnits="userSpaceOnUse" x1="1" y1="51" x2="101" y2="51" gradientTransform="matrix(1 0 0 -1 0 102)">
	<stop  offset="0" style="stop-color:#E85236"/>
	<stop  offset="1" style="stop-color:#EB6A0A"/>
</linearGradient>
<circle fill="url(#SVGID_1_)" cx="51" cy="51" r="50"/>
<g>
	<path fill="#FFFFFF" d="M75.1,33.5H44.1c-1.7,0-3.1,1.4-3.1,3.1l0,2.3c-2.5-1.1-5.6-1.6-7.1-0.4l-0.3,0.2
		c-6.6,5.4-9.8,9.5-9.8,12.4l0,1.7c0,3.8,0,10.2,0,12.7c0,1.2,0.9,2.1,2.1,2.2c1,0,2.8,0.1,4.9,0.1c4.3,0,9.6-0.2,10.7-0.7
		c0.5-0.3,2.1-1.5,4.1-3.2c-0.2,1.5,0.6,3.1,2.1,3.9c0.5,0.3,1.1,0.4,1.7,0.4c1,0,2-0.4,2.7-1.1c0.3,0.4,0.7,0.7,1.2,0.9
		c0.5,0.3,1.1,0.4,1.7,0.4c1.5,0,2.8-0.8,3.4-2.1l1.5-2.8c0.5-0.9,0.5-2,0.2-2.9c0-0.1-0.1-0.3-0.2-0.4l15.1,0
		c1.7,0,3.1-1.4,3.1-3.1V36.6C78.1,34.9,76.8,33.5,75.1,33.5z M44.1,36.2h30.9c0.2,0,0.4,0.2,0.4,0.4v3.2H43.7l0-3.2
		C43.7,36.3,43.9,36.2,44.1,36.2z M40.4,64.6c-1,0.3-8.8,0.6-13.8,0.4c0-2.7,0-8.6,0-12.2l0-1.7c0-0.9,0.9-3.8,8.8-10.4l0.3-0.2
		c0.6-0.3,3.2,0,5.4,1.2l0,13l1.9-0.9c6.3-3.1,9.1-3.6,9.9-3.5c0.1,0.2,0.1,0.4,0,0.7C52,55.3,41.8,63.9,40.4,64.6z M48.9,65.4
		c-0.6-0.3-0.8-1-0.5-1.6l1.5-2.8c0.2-0.4,0.6-0.6,1-0.6c0.2,0,0.4,0,0.6,0.2c0.3,0.1,0.5,0.4,0.6,0.7c0.1,0.3,0.1,0.6-0.1,0.9
		l-1.5,2.8C50.2,65.5,49.6,65.8,48.9,65.4z M57.6,62.4l-1.5,2.8c-0.3,0.6-0.9,0.9-1.6,0.5c-0.3-0.1-0.5-0.4-0.6-0.7
		c-0.1-0.3-0.1-0.6,0.1-0.9l1.5-2.8c0.2-0.4,0.6-0.6,1-0.6c0.2,0,0.4,0,0.6,0.2c0.3,0.1,0.5,0.4,0.6,0.7
		C57.8,61.8,57.7,62.1,57.6,62.4z M75.1,57.6H52c1.7-2.1,3.1-4.1,3.5-5.9c0.3-1.5-0.2-2.5-0.6-3.1c-0.6-0.8-1.9-2.3-11.1,2l0-4.5
		h31.7v11.1C75.5,57.4,75.3,57.6,75.1,57.6z"/>
	<rect x="65.4" y="54" fill="#FFFFFF" width="7.1" height="1.8"/>
</g>
</svg>
