<?xml version="1.0" encoding="utf-8"?>
<!-- Generator: Adobe Illustrator 17.1.0, SVG Export Plug-In . SVG Version: 6.00 Build 0)  -->
<!DOCTYPE svg PUBLIC "-//W3C//DTD SVG 1.1//EN" "http://www.w3.org/Graphics/SVG/1.1/DTD/svg11.dtd">
<svg version="1.1" id="Layer_1" xmlns="http://www.w3.org/2000/svg" xmlns:xlink="http://www.w3.org/1999/xlink" x="0px" y="0px"
	 viewBox="0 0 102 102" enable-background="new 0 0 102 102" xml:space="preserve">
<linearGradient id="SVGID_1_" gradientUnits="userSpaceOnUse" x1="1" y1="51" x2="101" y2="51">
	<stop  offset="0" style="stop-color:#222222"/>
	<stop  offset="0.1854" style="stop-color:#582F27"/>
	<stop  offset="0.3852" style="stop-color:#8B3B2D"/>
	<stop  offset="0.5734" style="stop-color:#B34531"/>
	<stop  offset="0.7443" style="stop-color:#D04C34"/>
	<stop  offset="0.8921" style="stop-color:#E25035"/>
	<stop  offset="1" style="stop-color:#E85236"/>
</linearGradient>
<circle fill="url(#SVGID_1_)" cx="51" cy="51" r="50"/>
<path fill="#FFFFFF" d="M66.3,29.5c-1.5-1-3.6-2.3-5.1-2.3c-1.4,0-2.6,0.7-3.4,1.7c-1.4,0-2.7,0.1-4.1,0.2c0-1.5,0-2.4,0-2.6
	c0-1.9-1.2-3.4-2.8-3.4s-2.8,1.5-2.8,3.4c0,0.2,0,1.3,0,3.2c-5.1,0.7-9.5,2-11.7,4.4c-1.3,1.4-1.9,3.1-1.8,5.2
	C35,45.5,42,47,48.6,48.4c0,1.3,0.1,2.7,0.1,4c0.1,2.8,0.1,5.2,0.2,7.4c-0.7,0.5-1.3,1.2-1.7,2.1c-0.6,1.7-0.2,3.8,1.4,6.3
	c0.2,0.3,0.4,0.4,0.6,0.6c0.4,9.3,0.8,9.3,1.7,9.3c1,0,1.4,0,2-16.2c0.7-0.2,1.4-0.4,2-0.6c3.5-1,8.4-2.5,8.6-7.7
	c0.2-5.1-4.5-7.2-10.2-8.5c0.1-4.1,0.2-8,0.2-11.1c1.4,0,2.7,0,4.1,0c0.8,1.1,2,1.8,3.5,1.8c1.2,0,3-0.8,5.2-2.5
	c0.6-0.4,0.9-1.1,0.9-1.9C67.3,30.6,66.9,29.9,66.3,29.5z M39.6,39.3c-0.1-1,0.5-2.2,1.1-2.9c1.4-1.4,4.2-2,7.6-2.3
	c0.1,2.8,0.1,6.3,0.2,9.9C43.1,43,39.8,42.2,39.6,39.3z M59.3,53.3c-0.1,2.4-1.7,3.4-5.3,4.5c-0.3,0.1-0.6,0.2-0.9,0.3
	c0.1-1.7,0.1-3.6,0.2-5.6c0-1,0.1-2,0.1-3C57,50.3,59.3,51.4,59.3,53.3z"/>
</svg>
