<?xml version="1.0" encoding="utf-8"?>
<!-- Generator: Adobe Illustrator 17.1.0, SVG Export Plug-In . SVG Version: 6.00 Build 0)  -->
<!DOCTYPE svg PUBLIC "-//W3C//DTD SVG 1.1//EN" "http://www.w3.org/Graphics/SVG/1.1/DTD/svg11.dtd">
<svg version="1.1" id="Layer_1" xmlns="http://www.w3.org/2000/svg" xmlns:xlink="http://www.w3.org/1999/xlink" x="0px" y="0px"
	 viewBox="0 0 102 102" enable-background="new 0 0 102 102" xml:space="preserve">
<path fill="#222222" d="M81.1,32.5V3.9c0-1.6-1.3-2.9-2.9-2.9H23.8c-1.6,0-2.9,1.3-2.9,2.9v28.5c0,1.6-1.3,2.9-2.9,2.9h-14
	c-1.6,0-2.9,1.3-2.9,2.9v42c0,1.6,1.3,2.9,2.9,2.9h10.2c1.6,0,2.9,1.3,2.9,2.9v11.8c0,1.6,1.3,2.9,2.9,2.9h61.9
	c1.6,0,2.9-1.3,2.9-2.9V86.3c0-1.6,1.3-2.9,2.9-2.9h10.2c1.6,0,2.9-1.3,2.9-2.9v-42c0-1.6-1.3-2.9-2.9-2.9H84
	C82.4,35.4,81.1,34.1,81.1,32.5z M33.1,10.6h36.1c1.6,0,2.9,1.3,2.9,2.9v19.2c0,1.6-1.3,2.9-2.9,2.9H33.1c-1.6,0-2.9-1.3-2.9-2.9
	V13.5C30.1,11.9,31.4,10.6,33.1,10.6z M73.1,91.7H29c-1.6,0-2.9-1.3-2.9-2.9V69.6c0-1.6,1.3-2.9,2.9-2.9h44.1c1.6,0,2.9,1.3,2.9,2.9
	v19.2C76,90.4,74.7,91.7,73.1,91.7z"/>
</svg>
