<?xml version="1.0" encoding="utf-8"?>
<!-- Generator: Adobe Illustrator 17.1.0, SVG Export Plug-In . SVG Version: 6.00 Build 0)  -->
<!DOCTYPE svg PUBLIC "-//W3C//DTD SVG 1.1//EN" "http://www.w3.org/Graphics/SVG/1.1/DTD/svg11.dtd">
<svg version="1.1" id="Layer_1" xmlns="http://www.w3.org/2000/svg" xmlns:xlink="http://www.w3.org/1999/xlink" x="0px" y="0px"
	 viewBox="0 0 102 102" enable-background="new 0 0 102 102" xml:space="preserve">
<g>
	<path fill="#222222" d="M97.3,101h-7.3c-2.1,0-3.7-1.7-3.7-3.8c0.4-21.3-8-42.5-23.3-57.9C47.7,23.9,26.1,15.5,4.8,15.8
		c-2.1,0-3.8-1.6-3.8-3.7V4.8c0-2,1.6-3.7,3.5-3.7C30,0.3,55,10.3,73.4,28.8c18.4,18.5,28.3,43,27.6,68.6
		C100.9,99.4,99.2,101,97.3,101z"/>
	<path fill="#222222" d="M72.5,101h-7.3c-2.1,0-3.7-1.8-3.7-3.9c0.4-14.8-5.2-29.9-15.8-40.5C35.3,46,19.7,40.3,4.9,40.7
		C2.8,40.8,1,39.1,1,37v-7.3c0-1.9,1.5-3.6,3.4-3.7c19.1-1,38,6.2,51.8,20.1c13.8,13.9,21,32.3,20,51.5C76.1,99.5,74.4,101,72.5,101
		z"/>
	<path fill="#222222" d="M47.8,101h-7.2c-2.1,0-3.7-1.7-3.7-3.8c0.3-8.2-2.6-17.7-8.3-23.4c-5.7-5.7-15.4-8.7-23.7-8.3
		C2.8,65.6,1,64,1,61.9v-7.2c0-1.8,1.3-3.5,3.1-3.7C16.9,49.5,29.8,54,39,63.4c9.1,9.2,13.6,21.8,12.4,34.4
		C51.2,99.6,49.6,101,47.8,101z"/>
	<g>
		<path fill="#222222" d="M19.1,82.2c-3.6-3.6-11-4.7-15.9-2.6C1.8,80.2,1,81.5,1,83v14.3c0,2,1.7,3.7,3.7,3.7h14
			c1.5,0,2.9-0.9,3.4-2.3C24.1,93.5,22.9,86.1,19.1,82.2z"/>
	</g>
</g>
</svg>
