<?xml version="1.0" encoding="utf-8"?>
<!-- Generator: Adobe Illustrator 17.1.0, SVG Export Plug-In . SVG Version: 6.00 Build 0)  -->
<!DOCTYPE svg PUBLIC "-//W3C//DTD SVG 1.1//EN" "http://www.w3.org/Graphics/SVG/1.1/DTD/svg11.dtd">
<svg version="1.1" id="Layer_1" xmlns="http://www.w3.org/2000/svg" xmlns:xlink="http://www.w3.org/1999/xlink" x="0px" y="0px"
	 viewBox="0 0 102 102" enable-background="new 0 0 102 102" xml:space="preserve">
<path fill="#222222" d="M1,15.5l0,70.9c0,1.5,1.2,2.7,2.7,2.7h94.6c1.5,0,2.7-1.2,2.7-2.7V15.5c0-1.5-1.2-2.7-2.7-2.7l-94.6,0
	C2.2,12.9,1,14.1,1,15.5z M49,55.3L20.8,26.5c-1.7-1.7-0.5-4.6,1.9-4.6H79c2.4,0,3.6,2.9,1.9,4.6L52.8,55.3
	C51.7,56.4,50,56.4,49,55.3z M27.1,49.3L14.9,64.8c-1.6,2-4.8,0.9-4.8-1.7v-28c0-2.4,2.9-3.6,4.6-1.9l12.2,12.5
	C27.8,46.7,27.9,48.2,27.1,49.3z M33,56.4c1-1.3,2.9-1.4,4-0.2L47.6,67c0.9,0.9,2,1.4,3.2,1.4c1.2,0,2.4-0.5,3.2-1.4l10.7-11
	c1.1-1.2,3-1.1,4,0.2l15.2,19.5c1.4,1.8,0.1,4.3-2.1,4.3H20c-2.2,0-3.5-2.6-2.1-4.3L33,56.4z M75,45.6L87.3,33
	c1.7-1.7,4.6-0.5,4.6,1.9v28.3c0,2.5-3.2,3.7-4.8,1.7L74.8,49.1C74,48.1,74.1,46.5,75,45.6z"/>
</svg>
