<?xml version="1.0" encoding="utf-8"?>
<!-- Generator: Adobe Illustrator 17.1.0, SVG Export Plug-In . SVG Version: 6.00 Build 0)  -->
<!DOCTYPE svg PUBLIC "-//W3C//DTD SVG 1.1//EN" "http://www.w3.org/Graphics/SVG/1.1/DTD/svg11.dtd">
<svg version="1.1" id="Layer_1" xmlns="http://www.w3.org/2000/svg" xmlns:xlink="http://www.w3.org/1999/xlink" x="0px" y="0px"
	 viewBox="0 0 47.6 70" enable-background="new 0 0 47.6 70" xml:space="preserve">
<g>
	<polygon fill="#FFFFFF" points="40.9,68 3.6,68 22.3,38.6 	"/>
	<path fill="#DF9A27" d="M44.5,70H0l22.3-35.2L44.5,70z M7.3,66h30l-15-23.7L7.3,66z"/>
</g>
<path fill="#DF9A27" d="M42.4,12.2c0.7-1.2,1.2-2.6,1.2-4.2c0-4.5-3.6-8.1-8.1-8.1c-4.5,0-8.1,3.6-8.1,8.1c0,2.6,1.3,5,3.2,6.4
	c-0.5,0.6-1,1.3-1.3,2c-2.3-2.7-5.7-4.4-9.5-4.4c-6.8,0-12.4,5.5-12.4,12.4c0,3,1,5.7,2.8,7.8c-1.5,1.6-2.4,3.7-2.4,6
	c0,4.8,3.9,8.7,8.7,8.7c1,0,1.9-0.2,2.8-0.5c1.7,2.8,4.8,4.6,8.3,4.6c5.4,0,9.8-4.4,9.8-9.8c0-4.7-3.3-8.7-7.8-9.6
	c0.8-1.1,1.4-2.3,1.9-3.6c1.7,1.5,3.9,2.4,6.4,2.4c5.3,0,9.7-4.3,9.7-9.7C47.6,17.1,45.5,13.9,42.4,12.2z"/>
</svg>
