<?xml version="1.0" encoding="utf-8"?>
<!-- Generator: Adobe Illustrator 17.1.0, SVG Export Plug-In . SVG Version: 6.00 Build 0)  -->
<!DOCTYPE svg PUBLIC "-//W3C//DTD SVG 1.1//EN" "http://www.w3.org/Graphics/SVG/1.1/DTD/svg11.dtd">
<svg version="1.1" id="Layer_1" xmlns="http://www.w3.org/2000/svg" xmlns:xlink="http://www.w3.org/1999/xlink" x="0px" y="0px"
	 viewBox="0 0 102 102" enable-background="new 0 0 102 102" xml:space="preserve">
<path fill="#DF9A27" d="M95.3,101H6.7C3.6,101,1,98.4,1,95.3V6.7C1,3.6,3.6,1,6.7,1h88.6c3.2,0,5.7,2.6,5.7,5.7v88.6
	C101,98.4,98.4,101,95.3,101z"/>
<g>
	<path fill="#FFFFFF" d="M83.8,28.4c-0.8-1.1-2.1-1.7-3.5-1.7H30.7l-1.4-6.6c-0.5-1.9-2.3-3.3-4.3-3.3h-7.5c-1.6,0-2.9,1.3-2.9,2.9
		c0,1.6,1.3,2.9,2.9,2.9H24l9.3,45.2c0.5,1.9,2.3,3.3,4.3,3.3h36.1c1.6,0,2.9-1.3,2.9-2.9s-1.3-2.9-2.9-2.9H38.6L38.1,63L77,57.4
		c1.8-0.3,3.2-1.6,3.7-3.5l3.9-21.7C84.9,30.9,84.6,29.5,83.8,28.4z M75.2,51.9L37,57.4l-5.1-24.9h46.8L75.2,51.9z"/>
	<path fill="#FFFFFF" d="M69,72c-4.1,0-7.4,3.3-7.4,7.4c0,4.1,3.3,7.4,7.4,7.4s7.4-3.3,7.4-7.4C76.4,75.4,73.1,72,69,72z M69,81.1
		c-0.9,0-1.7-0.7-1.7-1.7c0-0.9,0.7-1.7,1.7-1.7c0.9,0,1.7,0.7,1.7,1.7C70.7,80.3,69.9,81.1,69,81.1z"/>
	<path fill="#FFFFFF" d="M40.2,72c-4.1,0-7.4,3.3-7.4,7.4c0,4.1,3.3,7.4,7.4,7.4c4.1,0,7.4-3.3,7.4-7.4C47.6,75.4,44.3,72,40.2,72z
		 M40.2,81.1c-0.9,0-1.7-0.7-1.7-1.7c0-0.9,0.7-1.7,1.7-1.7c0.9,0,1.7,0.7,1.7,1.7C41.8,80.3,41.1,81.1,40.2,81.1z"/>
</g>
</svg>
