<?xml version="1.0" encoding="utf-8"?>
<!-- Generator: Adobe Illustrator 17.1.0, SVG Export Plug-In . SVG Version: 6.00 Build 0)  -->
<!DOCTYPE svg PUBLIC "-//W3C//DTD SVG 1.1//EN" "http://www.w3.org/Graphics/SVG/1.1/DTD/svg11.dtd">
<svg version="1.1" id="Layer_1" xmlns="http://www.w3.org/2000/svg" xmlns:xlink="http://www.w3.org/1999/xlink" x="0px" y="0px"
	 viewBox="0 0 25.2 25.9" enable-background="new 0 0 25.2 25.9" xml:space="preserve">
<path fill="#004E66" d="M25,22.4l-6.2-6.7c1-1.6,1.5-3.4,1.5-5.4C20.3,4.6,15.7,0,10.1,0S0,4.6,0,10.3s4.5,10.3,10.1,10.3
	c2,0,3.9-0.6,5.4-1.6l6.1,6.6c0.3,0.4,0.9,0.4,1.3,0l2-1.9C25.3,23.4,25.3,22.8,25,22.4z M2.1,10.3c0-4.5,3.6-8.2,8-8.2s8,3.7,8,8.2
	c0,2.1-0.8,4-2,5.4l-1,1c-1.4,1.1-3.1,1.8-5,1.8C5.7,18.5,2.1,14.9,2.1,10.3z"/>
</svg>
