<?xml version="1.0" encoding="utf-8"?>
<!-- Generator: Adobe Illustrator 17.1.0, SVG Export Plug-In . SVG Version: 6.00 Build 0)  -->
<!DOCTYPE svg PUBLIC "-//W3C//DTD SVG 1.1//EN" "http://www.w3.org/Graphics/SVG/1.1/DTD/svg11.dtd">
<svg version="1.1" id="Layer_1" xmlns="http://www.w3.org/2000/svg" xmlns:xlink="http://www.w3.org/1999/xlink" x="0px" y="0px"
	 viewBox="0 0 214 213" enable-background="new 0 0 214 213" xml:space="preserve">
<path fill="#004E66" d="M194.8,6H16.9C10.9,6,6,11.1,6,17.2v177.9c0,6.1,4.9,10.9,10.9,10.9H112v-77H87V98h25V76.2
	c0-25.8,16.2-39.9,39.3-39.9c11,0,20.7,0.8,23.7,1.2v27l-16,0c-12.5,0-15,6-15,14.7V98h29.7l-3.9,31H144v77h50.8
	c6.1,0,11.2-4.9,11.2-10.9V17.2C206,11.1,200.9,6,194.8,6z"/>
</svg>
