<?xml version="1.0" encoding="utf-8"?>
<!-- Generator: Adobe Illustrator 17.1.0, SVG Export Plug-In . SVG Version: 6.00 Build 0)  -->
<!DOCTYPE svg PUBLIC "-//W3C//DTD SVG 1.1//EN" "http://www.w3.org/Graphics/SVG/1.1/DTD/svg11.dtd">
<svg version="1.1" id="Layer_1" xmlns="http://www.w3.org/2000/svg" xmlns:xlink="http://www.w3.org/1999/xlink" x="0px" y="0px"
	 viewBox="0 0 960 560" enable-background="new 0 0 960 560" xml:space="preserve">
<path fill="#02343F" d="M710.8,15.8H243.1c-15.8,0-28.7,13.4-28.7,29.4v467.7c0,16,12.9,28.7,28.7,28.7h250V339.2h-65.7v-81.5h65.7
	v-57.3c0-67.8,42.6-104.9,103.3-104.9c28.9,0,54.4,2.1,62.3,3.2v71h-42.1c-32.9,0-39.4,15.8-39.4,38.6v49.4h78.1l-10.3,81.5h-67.8
	v202.4h133.6c16,0,29.4-12.9,29.4-28.7V45.2C740.3,29.2,726.9,15.8,710.8,15.8z"/>
</svg>
