<?xml version="1.0" encoding="utf-8"?>
<!-- Generator: Adobe Illustrator 17.1.0, SVG Export Plug-In . SVG Version: 6.00 Build 0)  -->
<!DOCTYPE svg PUBLIC "-//W3C//DTD SVG 1.1//EN" "http://www.w3.org/Graphics/SVG/1.1/DTD/svg11.dtd">
<svg version="1.1" id="Layer_1" xmlns="http://www.w3.org/2000/svg" xmlns:xlink="http://www.w3.org/1999/xlink" x="0px" y="0px"
	 viewBox="0 0 960 560" enable-background="new 0 0 960 560" xml:space="preserve">
<path fill="#02343F" d="M741.9,120.7c-19.5,8.7-40.2,14.5-62,17.1c22.3-13.4,39.4-34.4,47.3-59.7c-20.8,12.4-43.9,21.3-68.6,26.3
	c-19.7-21-47.6-34.2-78.9-34.2c-59.7,0-107.8,48.4-107.8,107.8c0,8.4,1.1,16.6,2.9,24.7c-89.4-4.5-168.8-47.6-221.9-112.8
	c-9.5,16-14.7,34.4-14.7,54.2c0,37.3,18.9,70.5,48.1,89.9c-17.6-0.5-34.4-5.5-48.9-13.4c0,0.5,0,0.8,0,1.3
	c0,52.3,37.1,96,86.5,105.7c-8.9,2.4-18.7,3.7-28.4,3.7c-6.8,0-13.7-0.8-20.2-1.8c13.7,42.9,53.6,74.1,100.7,74.9
	c-36.8,28.9-83.3,46.3-134.1,46.3c-8.7,0-17.4-0.5-25.8-1.6c47.8,30.5,104.4,48.4,165.4,48.4c198.5,0,306.8-164.3,306.8-306.8
	c0-4.7,0-9.2-0.3-13.9C709.3,161.4,727.4,142.5,741.9,120.7z"/>
</svg>
