<?xml version="1.0" encoding="utf-8"?>
<!-- Generator: Adobe Illustrator 17.1.0, SVG Export Plug-In . SVG Version: 6.00 Build 0)  -->
<!DOCTYPE svg PUBLIC "-//W3C//DTD SVG 1.1//EN" "http://www.w3.org/Graphics/SVG/1.1/DTD/svg11.dtd">
<svg version="1.1" id="Layer_1" xmlns="http://www.w3.org/2000/svg" xmlns:xlink="http://www.w3.org/1999/xlink" x="0px" y="0px"
	 viewBox="0 0 28.3 28.3" enable-background="new 0 0 28.3 28.3" xml:space="preserve">
<g>
	<path fill="#FFFFFF" d="M0,2c0-1.1,0.9-2,2.1-2h24.2c1.2,0,2.1,0.9,2.1,2v24.3c0,1.1-0.9,2-2.1,2H2.1c-1.2,0-2.1-0.9-2.1-2V2L0,2z"
		/>
	<path fill-rule="evenodd" clip-rule="evenodd" fill="#6BB3B4" d="M8.6,23.7V10.9H4.3v12.8H8.6L8.6,23.7z M6.5,9.2
		c1.5,0,2.4-1,2.4-2.2c0-1.3-0.9-2.2-2.4-2.2C5,4.8,4.1,5.7,4.1,7C4.1,8.2,5,9.2,6.5,9.2L6.5,9.2L6.5,9.2z"/>
	<path fill-rule="evenodd" clip-rule="evenodd" fill="#6BB3B4" d="M11,23.7h4.3v-7.1c0-0.4,0-0.8,0.1-1c0.3-0.8,1-1.6,2.2-1.6
		c1.5,0,2.2,1.2,2.2,2.9v6.8H24v-7.3c0-3.9-2.1-5.8-4.9-5.8c-2.3,0-3.3,1.3-3.9,2.2h0v-1.9H11C11,12.1,11,23.7,11,23.7L11,23.7z"/>
</g>
</svg>
