<?xml version="1.0" encoding="utf-8"?>
<!-- Generator: Adobe Illustrator 17.1.0, SVG Export Plug-In . SVG Version: 6.00 Build 0)  -->
<!DOCTYPE svg PUBLIC "-//W3C//DTD SVG 1.1//EN" "http://www.w3.org/Graphics/SVG/1.1/DTD/svg11.dtd">
<svg version="1.1" id="Layer_1" xmlns="http://www.w3.org/2000/svg" xmlns:xlink="http://www.w3.org/1999/xlink" x="0px" y="0px"
	 viewBox="0 0 74 102" enable-background="new 0 0 74 102" xml:space="preserve">
<path fill="#FFFFFF" d="M68.4,89.2h-8.3c0.5-0.2,0.8-0.4,0.9-0.4c3.3-1.5,4.8-5.4,3.2-8.6c-1.5-3.3-5.4-4.7-8.7-3.2
	c-0.1,0.1-12.1,5.5-16.4,7.1c-4.1,1.6-7.8,0.6-10.2-2.5c1.9-2.3,3.1-5.3,3.1-8.6c0-0.8-0.1-1.6-0.2-2.4l26.9-10.9
	c0.9-0.4,1.4-1.4,1-2.3c-0.4-0.9-1.4-1.3-2.3-1L30.7,67.3c-2.1-4.3-6.3-7.4-11.4-7.7l-3.3-7.6c-2.3-5.7-2.1-6.5-1.1-8
	c1-1.5,2.8-3,4.9-4.2L25,52.8c0.3,0.7,0.8,1.3,1.6,1.6l5.9,2.4c0.3,0.1,0.7,0.2,1,0.2c0.4,0,0.7-0.1,1-0.2l6.3-2.4
	c0.7-0.3,1.3-0.8,1.6-1.5l2.3-5.5c0.3-0.7,0.3-1.4,0-2L33.5,16.9c-0.4-1.1-1.4-1.8-2.6-1.8c-0.4,0-0.7,0.1-1,0.2l-2.2,0.8l-2.4-6.1
	l2-0.8c0.7-0.3,1.2-0.8,1.5-1.5c0.3-0.7,0.3-1.4,0-2.1l-1.2-3C27.3,1.7,26.3,1,25.2,1c-0.3,0-0.7,0.1-1,0.2L9.7,6.8
	C9,7.1,8.4,7.6,8.1,8.3c-0.3,0.7-0.3,1.4,0,2.1l1.2,3c0.4,1.1,1.4,1.7,2.6,1.7c0.3,0,0.7-0.1,1-0.2l1.8-0.7l2.4,6.1L15.4,21
	c-1.4,0.6-2.1,2.2-1.6,3.6l1.1,2.9c-4.1,2.2-8.4,5.3-11.2,9.5c-4.9,7.6-2.2,14.4,0,19.9l3.5,8c-1.8,2.3-2.8,5.1-2.8,8.2
	c0,7,5.3,12.7,12.2,13.5l0.4,0.9l0.3,0.4c0.3,0.4,0.6,0.9,0.9,1.3H5.6c-2.5,0-4.6,2-4.6,4.5v7.3h72v-7.3
	C73,91.2,70.9,89.2,68.4,89.2z"/>
</svg>
