<?xml version="1.0" encoding="utf-8"?>
<!-- Generator: Adobe Illustrator 17.1.0, SVG Export Plug-In . SVG Version: 6.00 Build 0)  -->
<!DOCTYPE svg PUBLIC "-//W3C//DTD SVG 1.1//EN" "http://www.w3.org/Graphics/SVG/1.1/DTD/svg11.dtd">
<svg version="1.1" id="Layer_1" xmlns="http://www.w3.org/2000/svg" xmlns:xlink="http://www.w3.org/1999/xlink" x="0px" y="0px"
	 viewBox="0 0 102 68" enable-background="new 0 0 102 68" xml:space="preserve">
<path fill="#004E66" d="M91,45.7c-3.2,0-6.1-1.5-7.9-3.9L48,56.6c0,0.1,0,0.3,0,0.4c0,5.5-4.5,10-10,10c-5.5,0-10-4.5-10-10
	c0-0.3,0-0.6,0-0.9l-10-5c-1.8,1.9-4.4,3.1-7.2,3.1c-5.5,0-10-4.5-10-10c0-5.5,4.5-10,10-10s10,4.5,10,10c0,0.9-0.1,1.8-0.4,2.7
	l9.2,4.6c1.4-2.1,3.6-3.7,6.2-4.2l0.5-26.5c-4.3-1.1-7.5-5-7.5-9.7c0-5.5,4.5-10,10-10c5.5,0,10,4.5,10,10c0,4.7-3.2,8.6-7.6,9.7
	l-0.5,26.7c2.5,0.7,4.6,2.4,5.9,4.6l34.5-14.5c-0.1-0.6-0.2-1.2-0.2-1.8c0-5.5,4.5-10,10-10s10,4.5,10,10
	C101,41.2,96.5,45.7,91,45.7z"/>
</svg>
