<?xml version="1.0" encoding="utf-8"?>
<!-- Generator: Adobe Illustrator 17.1.0, SVG Export Plug-In . SVG Version: 6.00 Build 0)  -->
<!DOCTYPE svg PUBLIC "-//W3C//DTD SVG 1.1//EN" "http://www.w3.org/Graphics/SVG/1.1/DTD/svg11.dtd">
<svg version="1.1" id="Layer_1" xmlns="http://www.w3.org/2000/svg" xmlns:xlink="http://www.w3.org/1999/xlink" x="0px" y="0px"
	 viewBox="0 0 102 102" enable-background="new 0 0 102 102" xml:space="preserve">
<rect x="1" y="1" fill="#DEDDDB" width="100" height="100"/>
<path fill="#838078" d="M82.9,75.1L67.6,58.7c2.6-4.2,4.1-9.1,4.1-14.4c0-15-11.9-27.1-26.6-27.1c-14.7,0-26.6,12.2-26.6,27.1
	s11.9,27.1,26.6,27.1c5.3,0,10.2-1.6,14.4-4.3l15.1,16.1c0.9,0.9,2.3,1,3.3,0.1l5-4.9C83.7,77.5,83.7,76.1,82.9,75.1z M25.6,44.4
	c0-11,8.8-20,19.5-20c10.8,0,19.5,9,19.5,20s-8.8,20-19.5,20C34.3,64.4,25.6,55.4,25.6,44.4z"/>
</svg>
