<?xml version="1.0" encoding="utf-8"?>
<!-- Generator: Adobe Illustrator 17.1.0, SVG Export Plug-In . SVG Version: 6.00 Build 0)  -->
<!DOCTYPE svg PUBLIC "-//W3C//DTD SVG 1.1//EN" "http://www.w3.org/Graphics/SVG/1.1/DTD/svg11.dtd">
<svg version="1.1" id="Layer_1" xmlns="http://www.w3.org/2000/svg" xmlns:xlink="http://www.w3.org/1999/xlink" x="0px" y="0px"
	 viewBox="0 0 102 102" enable-background="new 0 0 102 102" xml:space="preserve">
<path fill="#0093A7" d="M81.1,34.4V2c0-0.6-0.4-1-1-1H21.9c-0.6,0-1,0.4-1,1v32.4c0,0.6-0.4,1-1,1H2c-0.6,0-1,0.4-1,1v45.9
	c0,0.6,0.4,1,1,1h14.1c0.6,0,1,0.4,1,1V100c0,0.6,0.4,1,1,1h65.8c0.6,0,1-0.4,1-1V84.3c0-0.6,0.4-1,1-1H100c0.6,0,1-0.4,1-1V36.4
	c0-0.6-0.4-1-1-1H82.1C81.5,35.4,81.1,35,81.1,34.4z M31.1,10.6h40c0.6,0,1,0.4,1,1v23.1c0,0.6-0.4,1-1,1h-40c-0.6,0-1-0.4-1-1V11.6
	C30.1,11,30.6,10.6,31.1,10.6z M75,91.7H27c-0.6,0-1-0.4-1-1V67.6c0-0.6,0.4-1,1-1h48c0.6,0,1,0.4,1,1v23.1
	C76,91.3,75.6,91.7,75,91.7z"/>
</svg>
