<?xml version="1.0" encoding="utf-8"?>
<!-- Generator: Adobe Illustrator 17.1.0, SVG Export Plug-In . SVG Version: 6.00 Build 0)  -->
<!DOCTYPE svg PUBLIC "-//W3C//DTD SVG 1.1//EN" "http://www.w3.org/Graphics/SVG/1.1/DTD/svg11.dtd">
<svg version="1.1" id="Layer_1" xmlns="http://www.w3.org/2000/svg" xmlns:xlink="http://www.w3.org/1999/xlink" x="0px" y="0px"
	 viewBox="0 0 102 102" enable-background="new 0 0 102 102" xml:space="preserve">
<path fill="#6D6E70" d="M100,87.7L76.5,63.1c4-6.3,6.3-13.6,6.3-21.5C82.8,19.2,64.5,1,41.9,1S1,19.2,1,41.6s18.3,40.6,40.9,40.6
	c8.1,0,15.7-2.4,22.1-6.5l23.2,24.2c1.3,1.4,3.6,1.5,5,0.1l7.7-7.4C101.3,91.3,101.4,89.1,100,87.7z M41.9,71.6
	c-16.5,0-30-13.5-30-30s13.5-30,30-30c16.6,0,30,13.5,30,30S58.5,71.6,41.9,71.6z"/>
</svg>
