<?xml version="1.0" encoding="utf-8"?>
<!-- Generator: Adobe Illustrator 17.1.0, SVG Export Plug-In . SVG Version: 6.00 Build 0)  -->
<!DOCTYPE svg PUBLIC "-//W3C//DTD SVG 1.1//EN" "http://www.w3.org/Graphics/SVG/1.1/DTD/svg11.dtd">
<svg version="1.1" id="Layer_1" xmlns="http://www.w3.org/2000/svg" xmlns:xlink="http://www.w3.org/1999/xlink" x="0px" y="0px"
	 viewBox="0 0 102 84" enable-background="new 0 0 102 84" xml:space="preserve">
<path fill="@colorDarkBlue" d="M101,10.5c-3.7,1.6-7.7,2.8-11.8,3.3c4.3-2.5,7.5-6.5,9-11.3c-3.9,2.3-8.3,4.1-13.1,5C81.3,3.5,76,1,70.2,1
	c-11.3,0-20.5,9.2-20.5,20.5c0,1.6,0.2,3.2,0.5,4.7c-17-0.8-32-9-42.1-21.4c-1.8,3-2.8,6.5-2.8,10.3c0,7.1,3.6,13.4,9.1,17.1
	c-3.4-0.1-6.6-1-9.3-2.5c0,0.1,0,0.2,0,0.3c0,10,7.1,18.3,16.5,20.1c-1.7,0.5-3.5,0.7-5.4,0.7c-1.3,0-2.6-0.2-3.9-0.3
	c2.6,8.1,10.2,14.1,19.1,14.3c-7,5.5-15.8,8.8-25.4,8.8c-1.6,0-3.3-0.1-4.9-0.3c9.1,5.8,19.9,9.2,31.3,9.2
	c37.7,0,58.2-31.1,58.2-58.2c0-0.9,0-1.8-0.1-2.7C94.8,18.2,98.3,14.6,101,10.5z"/>
</svg>
