<?xml version="1.0" encoding="utf-8"?>
<!-- Generator: Adobe Illustrator 17.1.0, SVG Export Plug-In . SVG Version: 6.00 Build 0)  -->
<!DOCTYPE svg PUBLIC "-//W3C//DTD SVG 1.1//EN" "http://www.w3.org/Graphics/SVG/1.1/DTD/svg11.dtd">
<svg version="1.1" id="Layer_1" xmlns="http://www.w3.org/2000/svg" xmlns:xlink="http://www.w3.org/1999/xlink" x="0px" y="0px"
	 viewBox="0 0 102 102" enable-background="new 0 0 102 102" xml:space="preserve">
<linearGradient id="SVGID_1_" gradientUnits="userSpaceOnUse" x1="1.0135" y1="50.9049" x2="101.0135" y2="50.9049">
	<stop  offset="0" style="stop-color:#E75336"/>
	<stop  offset="1" style="stop-color:#E96C24"/>
</linearGradient>
<circle fill="url(#SVGID_1_)" cx="51" cy="50.9" r="50"/>
<path fill="#FFFFFF" d="M53,64c1-0.2,1.2-0.3,1.7-0.5c5-1.5,9.6-2.9,9.5-6.5C64,52.9,59,51.5,53,50.7v-4.5c6-1.2,11-7.5,11-15.1
	v-5.7c0-0.4-0.1-1.4-0.4-1.7c-0.3-0.3-0.7-0.5-1.1-0.4l-23,0c-0.8,0-1.5,0.7-1.5,1.5V31c0,8.1,5,14.7,12,15.3v4
	c-1-0.1-2-0.2-3.1-0.3c-5.6-0.5-11.3-1-14.4-2.7c-0.8-0.5-1.7-1.5-1.7-2.7c0-0.4,0.1-0.8,0.3-1.1c0.7,0.6,1.6,1.1,2.6,1.1
	c1.5,0,3.8-1.6,5.1-2.5c0.4-0.3,0.6-0.7,0.6-1.2c0-0.5-0.3-0.9-0.7-1.2c-1.3-0.9-3.6-2.3-5-2.3c-1.8,0-3.2,1.3-3.6,3
	c-1.5,1.2-2.3,2.7-2.3,4.5c0.1,2.1,1.4,4.2,3.3,5.2c3.6,2,9.7,2.6,15.6,3.1c1.1,0.1,2.3,0.2,3.3,0.3v8.5c-3,1.2-6.1,2.8-6.1,5.6
	c0.1,2.8,2.2,4.2,3.8,5.1c1.2,0.8,2.2,1.3,2.2,1.9V74h-5.6c-0.8,0-1.5,0.7-1.5,1.5s0.7,1.5,1.5,1.5h14.3c0.8,0,1.5-0.7,1.5-1.5
	S59.5,74,58.7,74h-5.5c0,0-0.2,0.3-0.2,0V64z M41,31.7v-4.8L61,27v4.8c0,6.8-4.5,12.3-10,12.3C45.5,44.1,41,38.5,41,31.7z M33.7,41
	c0.2,0,0.8,0.3,1.4,0.6c-0.6,0.4-1.2,0.6-1.4,0.7c-0.3,0-0.6-0.3-0.6-0.6C33.1,41.3,33.3,41,33.7,41z M53,54.4
	c4,0.6,8.1,1.5,8.2,3.5c0.1,1.3-4.6,2.6-7.4,3.5c-0.3,0.1-0.8,0.2-0.8,0.2V54.4z M49.3,70.6c-1.6-1-2.4-1.5-2.4-2.6
	c0-0.8,1.1-1.6,3.1-2.3v5.3C50,70.9,49.6,70.8,49.3,70.6z"/>
</svg>
