<?xml version="1.0" encoding="utf-8"?>
<!-- Generator: Adobe Illustrator 17.1.0, SVG Export Plug-In . SVG Version: 6.00 Build 0)  -->
<!DOCTYPE svg PUBLIC "-//W3C//DTD SVG 1.1//EN" "http://www.w3.org/Graphics/SVG/1.1/DTD/svg11.dtd">
<svg version="1.1" id="Layer_1" xmlns="http://www.w3.org/2000/svg" xmlns:xlink="http://www.w3.org/1999/xlink" x="0px" y="0px"
	 viewBox="0 0 102 102" enable-background="new 0 0 102 102" xml:space="preserve">
<linearGradient id="SVGID_1_" gradientUnits="userSpaceOnUse" x1="1.0811" y1="51.1585" x2="101.0811" y2="51.1585">
	<stop  offset="0" style="stop-color:#E75336"/>
	<stop  offset="1" style="stop-color:#E96C24"/>
</linearGradient>
<circle fill="url(#SVGID_1_)" cx="51.1" cy="51.2" r="50"/>
<g>
	<path fill="#FFFFFF" d="M78.2,32H43.5c-1.6,0-2.9,1.5-2.9,3.1l0,3.4c-2.8-1.3-6.6-2.1-8.2-0.7l-0.3,0.3
		C24.9,44,21.2,48.6,21.2,51.7l0,1.8c0,4.3,0,11.5,0,14.3c0,1.1,0.8,1.9,1.9,2c1.3,0.1,3.3,0.1,5.5,0.1c4.9,0,10.7-0.2,11.7-0.7
		c0.8-0.4,3.2-2.2,5.9-4.7L46,64.8c-1,1.9-0.2,4.2,1.7,5.2c0.5,0.3,1.1,0.4,1.7,0.4c1.2,0,2.3-0.6,3-1.5c0.4,0.6,0.9,1.1,1.5,1.4
		c0.5,0.3,1.1,0.4,1.7,0.4c1.4,0,2.7-0.8,3.4-2.1l1.6-3.4c0.7-1.3,0.5-2.2-0.4-4.2h17.8c1.6,0,2.8-0.9,2.8-2.5V35.3
		C81,33.7,79.8,32,78.2,32z M43.5,34h34.8c0.5,0,0.8,0.8,0.8,1.3V39H42.5l0-3.9C42.5,34.6,42.9,34,43.5,34z M39.4,67.4
		c-1,0.4-10.4,0.7-16.2,0.4c0-2.8,0-10,0-14.3l0-1.8c0-1.4,1.3-4.8,10.1-12.1l0.3-0.2c0.2-0.1,0.6-0.2,1.1-0.2
		c1.4,0,3.7,0.5,5.8,1.7l0,14.2l1.4-0.7c10.1-4.9,11.6-3.9,11.6-3.9c0,0,0,0,0,0c0.1,0.1,0.4,0.5,0.2,1.4
		C52.7,56.7,41.1,66.5,39.4,67.4z M48.6,68.2c-0.9-0.5-1.3-1.6-0.8-2.4l1.6-3.2c0.3-0.6,0.9-1,1.6-1c0.3,0,0.6,0.1,0.9,0.2
		c0.9,0.5,1.3,1.6,0.8,2.4l-1.6,3.2C50.6,68.3,49.6,68.7,48.6,68.2z M59,64.6l-1.6,3.2c-0.4,0.9-1.4,1.3-2.5,0.8
		c-0.9-0.5-1.2-1.6-0.8-2.4l1.6-3.2c0.3-0.6,0.9-1,1.6-1c0.3,0,0.6,0.1,0.9,0.2C59.1,62.6,59.5,63.7,59,64.6z M78.2,59h-27
		c2.3-2,4.1-4.9,4.5-7c0.3-1.2,0.1-2.1-0.6-2.9c-0.6-0.7-1.9-2.3-12.6,2.7l0-5.8H79v12.5C79,59,78.7,59,78.2,59z"/>
	<rect x="67" y="55" fill="#FFFFFF" width="8" height="2"/>
</g>
</svg>
