<?xml version="1.0" encoding="utf-8"?>
<!-- Generator: Adobe Illustrator 17.1.0, SVG Export Plug-In . SVG Version: 6.00 Build 0)  -->
<!DOCTYPE svg PUBLIC "-//W3C//DTD SVG 1.1//EN" "http://www.w3.org/Graphics/SVG/1.1/DTD/svg11.dtd">
<svg version="1.1" id="Layer_1" xmlns="http://www.w3.org/2000/svg" xmlns:xlink="http://www.w3.org/1999/xlink" x="0px" y="0px"
	 viewBox="0 0 102 102" enable-background="new 0 0 102 102" xml:space="preserve">
<linearGradient id="SVGID_1_" gradientUnits="userSpaceOnUse" x1="1" y1="51" x2="101" y2="51">
	<stop  offset="0" style="stop-color:#E85236"/>
	<stop  offset="1" style="stop-color:#EB6A0A"/>
</linearGradient>
<circle fill="url(#SVGID_1_)" cx="51" cy="51" r="50"/>
<g>
	<g>
		<path fill="#FFFFFF" d="M50.8,81c-4.4,0-8.1-1.1-11.2-3.2c-2.9-2.1-4.5-5.2-4.6-9.3l0-0.2c0-0.6,0.2-1.1,0.6-1.4
			c0.8-0.9,2.3-0.9,2.8-0.9c1.3,0,2.4,1,2.5,2.3c0.2,2.4,1.1,4.1,2.7,5.3c2,1.4,4.4,2.1,7.2,2.1c2.9,0,5.1-0.6,6.7-1.8
			c1.5-1.1,2.2-2.5,2.2-4.3c0-1.7-0.6-2.9-1.8-3.9c-1.4-1.1-4.1-2.2-8.1-3.3c-4.9-1.2-8.5-2.7-10.9-4.6c-2.6-2-3.9-4.8-3.9-8.4
			c0-2.2,0.7-4.1,2-5.7c0.8-1,1.9-1.9,3.2-2.5c-1-0.7-1.8-1.6-2.4-2.6c-1.7-2.8-2.1-5.7-1.2-9c1.5-5.6,6.5-8.4,14.7-8.4
			c4.6,0,8.3,1.2,10.9,3.6c2.4,2.1,3.7,5.1,3.9,8.7c0,0.2,0,0.3,0,0.4c0,1.5-1.3,2.3-2.4,2.4l-0.1,0h-0.8c-1.3,0-2.4-1-2.5-2.2
			c-0.2-2-0.9-3.6-2.3-5c-1.6-1.6-3.8-2.4-6.7-2.4c-3.1,0-5.4,0.6-6.9,1.8c-1.4,1.1-2.1,2.6-2.1,4.3c0,1.8,0.6,3.2,1.7,4.1
			c0.9,0.7,3.1,1.9,8.3,3.3c5,1.3,8.6,2.8,10.9,4.5c2.5,1.9,3.8,4.6,3.8,8.2c0,2.2-0.7,4.1-2.1,5.7c-0.9,1-1.9,1.8-3.2,2.5
			c1,0.8,1.8,1.6,2.4,2.6c1,1.6,1.6,3.5,1.6,5.9c0,3.6-1.4,6.5-4.2,8.6C58.8,80,55.2,81,50.8,81z M46.2,44.1c-1.7,0.3-3,0.8-3.9,1.7
			c-0.9,0.9-1.3,2-1.3,3.4c0,1.9,0.6,3.2,1.8,4.1c1,0.7,3.3,1.9,9,3.5l1.9,0.6c0.5,0.1,1,0.3,1.5,0.4c1.9-0.2,3.3-0.8,4.3-1.7
			c1-0.9,1.5-2,1.5-3.2c0-1.7-0.6-3-2-4c-1.5-1.1-4.5-2.3-8.9-3.6c-0.7-0.2-1.5-0.4-2.2-0.6C47.3,44.5,46.8,44.3,46.2,44.1
			L46.2,44.1z"/>
	</g>
</g>
</svg>
