<?xml version="1.0" encoding="utf-8"?>
<!-- Generator: Adobe Illustrator 17.1.0, SVG Export Plug-In . SVG Version: 6.00 Build 0)  -->
<!DOCTYPE svg PUBLIC "-//W3C//DTD SVG 1.1//EN" "http://www.w3.org/Graphics/SVG/1.1/DTD/svg11.dtd">
<svg version="1.1" id="Layer_1" xmlns="http://www.w3.org/2000/svg" xmlns:xlink="http://www.w3.org/1999/xlink" x="0px" y="0px"
	 viewBox="0 0 102 102" enable-background="new 0 0 102 102" xml:space="preserve">
<linearGradient id="SVGID_1_" gradientUnits="userSpaceOnUse" x1="1" y1="51" x2="101" y2="51">
	<stop  offset="0" style="stop-color:#E85236"/>
	<stop  offset="1" style="stop-color:#EB6A0A"/>
</linearGradient>
<circle fill="url(#SVGID_1_)" cx="51" cy="51" r="50"/>
<g>
	<path fill="#FFFFFF" d="M79.8,30H42.8c-2,0-3.7,1.6-3.7,3.7l0,2.7c-3-1.3-6.7-1.9-8.5-0.4l-0.3,0.3c-7.9,6.5-11.7,11.4-11.7,14.9
		l0,2c0,4.6,0,12.2,0,15.2c0,1.4,1.1,2.6,2.5,2.6c1.2,0.1,3.4,0.1,5.8,0.1c5.1,0,11.5-0.2,12.8-0.8c0.6-0.3,2.6-1.7,4.9-3.8
		c-0.2,1.9,0.7,3.7,2.5,4.7c0.6,0.3,1.4,0.5,2.1,0.5c1.2,0,2.3-0.5,3.2-1.3c0.4,0.5,0.9,0.8,1.4,1.1c0.6,0.3,1.4,0.5,2.1,0.5
		c1.7,0,3.3-1,4.1-2.5l1.7-3.4c0.6-1.1,0.7-2.3,0.3-3.5c-0.1-0.2-0.1-0.3-0.2-0.5l18,0c2,0,3.7-1.6,3.7-3.7V33.7
		C83.5,31.7,81.9,30,79.8,30z M42.8,33.2h37.1c0.3,0,0.5,0.2,0.5,0.5v3.9h-38l0-3.9C42.3,33.4,42.5,33.2,42.8,33.2z M38.3,67.4
		c-1.2,0.4-10.6,0.7-16.6,0.4c0-3.3,0-10.3,0-14.6l0-2c0-1.1,1-4.6,10.6-12.5l0.3-0.3c0.7-0.4,3.8,0.1,6.5,1.5l0,15.6l2.3-1.1
		c7.6-3.7,11-4.3,11.8-4.2c0.1,0.2,0.1,0.5,0,0.9C52.2,56.1,40,66.5,38.3,67.4z M48.5,68.2c-0.7-0.4-1-1.2-0.6-1.9l1.7-3.4
		c0.2-0.5,0.7-0.8,1.3-0.8c0.2,0,0.4,0.1,0.7,0.2c0.3,0.2,0.6,0.5,0.7,0.8c0.1,0.4,0.1,0.7-0.1,1.1l-1.7,3.4
		C50.1,68.3,49.3,68.7,48.5,68.2z M58.9,64.6L57.1,68c-0.3,0.7-1.1,1-1.9,0.6c-0.3-0.2-0.6-0.5-0.7-0.8c-0.1-0.4-0.1-0.7,0.1-1.1
		l1.7-3.4c0.2-0.5,0.7-0.8,1.3-0.8c0.2,0,0.4,0.1,0.7,0.2c0.3,0.2,0.6,0.5,0.7,0.8C59.1,63.9,59.1,64.3,58.9,64.6z M79.8,58.9H52.2
		c2.1-2.5,3.7-5,4.1-7.1c0.4-1.8-0.2-3-0.7-3.7c-0.7-0.9-2.2-2.7-13.3,2.4l0-5.4h38v13.4C80.3,58.7,80.1,58.9,79.8,58.9z"/>
	<rect x="68.3" y="54.7" fill="#FFFFFF" width="8.5" height="2.1"/>
</g>
</svg>
