<?xml version="1.0" encoding="utf-8"?>
<!-- Generator: Adobe Illustrator 17.1.0, SVG Export Plug-In . SVG Version: 6.00 Build 0)  -->
<!DOCTYPE svg PUBLIC "-//W3C//DTD SVG 1.1//EN" "http://www.w3.org/Graphics/SVG/1.1/DTD/svg11.dtd">
<svg version="1.1" id="Layer_1" xmlns="http://www.w3.org/2000/svg" xmlns:xlink="http://www.w3.org/1999/xlink" x="0px" y="0px"
	 viewBox="0 0 102 102" enable-background="new 0 0 102 102" xml:space="preserve">
<linearGradient id="SVGID_1_" gradientUnits="userSpaceOnUse" x1="1" y1="51" x2="101" y2="51">
	<stop  offset="0" style="stop-color:#E85236"/>
	<stop  offset="1" style="stop-color:#EB6A0A"/>
</linearGradient>
<circle fill="url(#SVGID_1_)" cx="51" cy="51" r="50"/>
<path fill="#FFFFFF" d="M83.8,45.4l-2.9-4.2c-0.3-0.5-1-0.6-1.5-0.3L73,45.4V32.8c0-0.3-0.1-0.5-0.2-0.8c0,0,0-0.1,0-0.1
	c-0.1-0.1-0.2-0.3-0.3-0.4c0,0,0,0,0,0L62.1,21.4h0l0,0c0,0,0,0,0,0c-0.1-0.1-0.2-0.2-0.3-0.2c0,0-0.1,0-0.1,0
	c-0.1-0.1-0.3-0.1-0.4-0.1c0,0,0,0,0,0c-0.1,0-0.2,0-0.3,0H29.7c-0.9,0-1.7,0.8-1.7,1.7v56.7c0,0.9,0.8,1.7,1.7,1.7h41.6
	c0.9,0,1.7-0.8,1.7-1.7v-25l10.5-7.5C84,46.5,84.1,45.8,83.8,45.4z M62.6,26.7l4.5,4.5h-4.5V26.7z M69.6,77.7H31.4V24.3h27.8v8.5
	c0,0.9,0.8,1.7,1.7,1.7h8.7v13.3l-15,10.6L51,65.4l7.7-1l10.8-7.7V77.7z"/>
</svg>
