<?xml version="1.0" encoding="utf-8"?>
<!-- Generator: Adobe Illustrator 17.1.0, SVG Export Plug-In . SVG Version: 6.00 Build 0)  -->
<!DOCTYPE svg PUBLIC "-//W3C//DTD SVG 1.1//EN" "http://www.w3.org/Graphics/SVG/1.1/DTD/svg11.dtd">
<svg version="1.1" id="Layer_1" xmlns="http://www.w3.org/2000/svg" xmlns:xlink="http://www.w3.org/1999/xlink" x="0px" y="0px"
	 viewBox="0 0 102 102" enable-background="new 0 0 102 102" xml:space="preserve">
<linearGradient id="SVGID_1_" gradientUnits="userSpaceOnUse" x1="1" y1="51" x2="101" y2="51" gradientTransform="matrix(1 0 0 -1 0 102)">
	<stop  offset="0" style="stop-color:#E85236"/>
	<stop  offset="1" style="stop-color:#EB6A0A"/>
</linearGradient>
<circle fill="url(#SVGID_1_)" cx="51" cy="51" r="50"/>
<g>
	<path fill="#FFFFFF" d="M67.7,36.8C67.7,36.8,67.7,36.8,67.7,36.8c-0.1-0.2-0.2-0.3-0.2-0.3c0,0,0,0,0,0l-7.8-7.6h0l0,0
		c0,0,0,0,0,0c-0.1-0.1-0.2-0.1-0.3-0.2c0,0,0,0-0.1,0c-0.1,0-0.2-0.1-0.3-0.1c0,0,0,0,0,0c-0.1,0-0.1,0-0.2,0H35.4
		c-0.7,0-1.3,0.6-1.3,1.3v42.5c0,0.7,0.6,1.3,1.3,1.3h31.1c0.7,0,1.3-0.6,1.3-1.3V37.4C67.8,37.2,67.8,37,67.7,36.8z M60.1,32.8
		l3.4,3.3h-3.4V32.8z M36.7,71V31h20.8v6.4c0,0.7,0.6,1.3,1.3,1.3h6.5V71H36.7z"/>
	<path fill="#FFFFFF" d="M61.2,51.4H41.6c-0.7,0-1.3,0.6-1.3,1.3c0,0.7,0.6,1.3,1.3,1.3h19.6c0.7,0,1.3-0.6,1.3-1.3
		C62.4,52,61.9,51.4,61.2,51.4z"/>
	<path fill="#FFFFFF" d="M61.2,45.4H41.6c-0.7,0-1.3,0.6-1.3,1.3s0.6,1.3,1.3,1.3h19.6c0.7,0,1.3-0.6,1.3-1.3S61.9,45.4,61.2,45.4z"
		/>
	<path fill="#FFFFFF" d="M61.2,57.3H41.6c-0.7,0-1.3,0.6-1.3,1.3c0,0.7,0.6,1.3,1.3,1.3h19.6c0.7,0,1.3-0.6,1.3-1.3
		C62.4,57.9,61.9,57.3,61.2,57.3z"/>
	<path fill="#FFFFFF" d="M61.2,63.3H41.6c-0.7,0-1.3,0.6-1.3,1.3c0,0.7,0.6,1.3,1.3,1.3h19.6c0.7,0,1.3-0.6,1.3-1.3
		C62.4,63.8,61.9,63.3,61.2,63.3z"/>
</g>
</svg>
