<?xml version="1.0" encoding="utf-8"?>
<!-- Generator: Adobe Illustrator 17.1.0, SVG Export Plug-In . SVG Version: 6.00 Build 0)  -->
<!DOCTYPE svg PUBLIC "-//W3C//DTD SVG 1.1//EN" "http://www.w3.org/Graphics/SVG/1.1/DTD/svg11.dtd">
<svg version="1.1" id="Layer_1" xmlns="http://www.w3.org/2000/svg" xmlns:xlink="http://www.w3.org/1999/xlink" x="0px" y="0px"
	 viewBox="0 0 102 102" enable-background="new 0 0 102 102" xml:space="preserve">
<linearGradient id="SVGID_1_" gradientUnits="userSpaceOnUse" x1="1" y1="51" x2="101" y2="51" gradientTransform="matrix(1 0 0 -1 0 102)">
	<stop  offset="0" style="stop-color:#E75336"/>
	<stop  offset="1" style="stop-color:#E96C24"/>
</linearGradient>
<circle fill="url(#SVGID_1_)" cx="51" cy="51" r="50"/>
<g>
	<path fill="#FFFFFF" d="M78.1,31.8H43.4c-1.6,0-2.9,1.5-2.9,3.1v3.4c-2.8-1.3-6.6-2.1-8.2-0.7L32,37.9
		c-7.2,5.9-10.9,10.5-10.9,13.6v1.8c0,4.3,0,11.5,0,14.3c0,1.1,0.8,1.9,1.9,2c1.3,0.1,3.3,0.1,5.5,0.1c4.9,0,10.7-0.2,11.7-0.7
		c0.8-0.4,3.2-2.2,5.9-4.7l-0.2,0.3c-1,1.9-0.2,4.2,1.7,5.2c0.5,0.3,1.1,0.4,1.7,0.4c1.2,0,2.3-0.6,3-1.5c0.4,0.6,0.9,1.1,1.5,1.4
		c0.5,0.3,1.1,0.4,1.7,0.4c1.4,0,2.7-0.8,3.4-2.1l1.6-3.4c0.7-1.3,0.5-2.2-0.4-4.2h17.8c1.6,0,2.8-0.9,2.8-2.5V35.1
		C80.9,33.5,79.7,31.8,78.1,31.8z M43.4,33.8h34.8c0.5,0,0.8,0.8,0.8,1.3v3.7H42.4v-3.9C42.4,34.4,42.8,33.8,43.4,33.8z M39.3,67.2
		c-1,0.4-10.4,0.7-16.2,0.4c0-2.8,0-10,0-14.3v-1.8c0-1.4,1.3-4.8,10.1-12.1l0.3-0.2c0.2-0.1,0.6-0.2,1.1-0.2c1.4,0,3.7,0.5,5.8,1.7
		v14.2l1.4-0.7c10.1-4.9,11.6-3.9,11.6-3.9l0,0c0.1,0.1,0.4,0.5,0.2,1.4C52.6,56.5,41,66.3,39.3,67.2z M48.5,68
		c-0.9-0.5-1.3-1.6-0.8-2.4l1.6-3.2c0.3-0.6,0.9-1,1.6-1c0.3,0,0.6,0.1,0.9,0.2c0.9,0.5,1.3,1.6,0.8,2.4L51,67.2
		C50.5,68.1,49.5,68.5,48.5,68z M58.9,64.4l-1.6,3.2c-0.4,0.9-1.4,1.3-2.5,0.8c-0.9-0.5-1.2-1.6-0.8-2.4l1.6-3.2
		c0.3-0.6,0.9-1,1.6-1c0.3,0,0.6,0.1,0.9,0.2C59,62.4,59.4,63.5,58.9,64.4z M78.1,58.8h-27c2.3-2,4.1-4.9,4.5-7
		c0.3-1.2,0.1-2.1-0.6-2.9c-0.6-0.7-1.9-2.3-12.6,2.7v-5.8h36.5v12.5C78.9,58.8,78.6,58.8,78.1,58.8z"/>
</g>
</svg>
