<?xml version="1.0" encoding="utf-8"?>
<!-- Generator: Adobe Illustrator 17.1.0, SVG Export Plug-In . SVG Version: 6.00 Build 0)  -->
<!DOCTYPE svg PUBLIC "-//W3C//DTD SVG 1.1//EN" "http://www.w3.org/Graphics/SVG/1.1/DTD/svg11.dtd">
<svg version="1.1" id="Layer_1" xmlns="http://www.w3.org/2000/svg" xmlns:xlink="http://www.w3.org/1999/xlink" x="0px" y="0px"
	 viewBox="0 0 102 102" enable-background="new 0 0 102 102" xml:space="preserve">
<linearGradient id="SVGID_1_" gradientUnits="userSpaceOnUse" x1="-79.9247" y1="53" x2="40.1414" y2="53" gradientTransform="matrix(1 0 0 -1 0 104)">
	<stop  offset="0" style="stop-color:#002D42"/>
	<stop  offset="0.1494" style="stop-color:#003953"/>
	<stop  offset="0.4446" style="stop-color:#00587E"/>
	<stop  offset="0.8536" style="stop-color:#008AC4"/>
	<stop  offset="1" style="stop-color:#009DDF"/>
</linearGradient>
<circle opacity="0.8" fill="url(#SVGID_1_)" enable-background="new    " cx="51" cy="51" r="50"/>
<g>
	<path fill="#FFFFFF" d="M67.7,38.1H34.3c-1.3,0-2.3-1-2.3-2.3s1-2.3,2.3-2.3h33.4c1.3,0,2.3,1,2.3,2.3S69,38.1,67.7,38.1z"/>
	<path fill="#FFFFFF" d="M67.7,53.3H34.3c-1.3,0-2.3-1-2.3-2.3s1-2.3,2.3-2.3h33.4c1.3,0,2.3,1,2.3,2.3S69,53.3,67.7,53.3z"/>
	<path fill="#FFFFFF" d="M67.7,68.5H34.3c-1.3,0-2.3-1-2.3-2.3c0-1.3,1-2.3,2.3-2.3h33.4c1.3,0,2.3,1,2.3,2.3
		C70,67.5,69,68.5,67.7,68.5z"/>
</g>
</svg>
