<?xml version="1.0" encoding="utf-8"?>
<!-- Generator: Adobe Illustrator 17.1.0, SVG Export Plug-In . SVG Version: 6.00 Build 0)  -->
<!DOCTYPE svg PUBLIC "-//W3C//DTD SVG 1.1//EN" "http://www.w3.org/Graphics/SVG/1.1/DTD/svg11.dtd">
<svg version="1.1" id="Layer_1" xmlns="http://www.w3.org/2000/svg" xmlns:xlink="http://www.w3.org/1999/xlink" x="0px" y="0px"
	 viewBox="0 0 102 102" enable-background="new 0 0 102 102" xml:space="preserve">
<linearGradient id="SVGID_1_" gradientUnits="userSpaceOnUse" x1="1" y1="51" x2="101" y2="51">
	<stop  offset="0" style="stop-color:#002D42"/>
	<stop  offset="1" style="stop-color:#1A9CD8"/>
</linearGradient>
<circle opacity="0.8" fill="url(#SVGID_1_)" cx="51" cy="51" r="50"/>
<g>
	<path fill="#FFFFFF" d="M69.6,41H32.7c-1.7,0-3.1-1.5-3.1-3.5S31,34,32.7,34h36.9c1.7,0,3.1,1.5,3.1,3.5S71.3,41,69.6,41z"/>
	<path fill="#FFFFFF" d="M69.3,55H32.4c-1.7,0-3.1-1.5-3.1-3.5s1.4-3.5,3.1-3.5h36.9c1.7,0,3.1,1.5,3.1,3.5S71,55,69.3,55z"/>
	<path fill="#FFFFFF" d="M69.3,69H32.4c-1.7,0-3.1-1.5-3.1-3.5c0-2,1.4-3.5,3.1-3.5h36.9c1.7,0,3.1,1.5,3.1,3.5
		C72.3,67.5,71,69,69.3,69z"/>
</g>
</svg>
