<?xml version="1.0" encoding="utf-8"?>
<!-- Generator: Adobe Illustrator 17.1.0, SVG Export Plug-In . SVG Version: 6.00 Build 0)  -->
<!DOCTYPE svg PUBLIC "-//W3C//DTD SVG 1.1//EN" "http://www.w3.org/Graphics/SVG/1.1/DTD/svg11.dtd">
<svg version="1.1" id="Layer_1" xmlns="http://www.w3.org/2000/svg" xmlns:xlink="http://www.w3.org/1999/xlink" x="0px" y="0px"
	 viewBox="0 0 102 102" enable-background="new 0 0 102 102" xml:space="preserve">
<linearGradient id="SVGID_1_" gradientUnits="userSpaceOnUse" x1="1" y1="51" x2="101" y2="51" gradientTransform="matrix(1 0 0 -1 0 102)">
	<stop  offset="0" style="stop-color:#222222"/>
	<stop  offset="0.1854" style="stop-color:#582F27"/>
	<stop  offset="0.3852" style="stop-color:#8B3B2D"/>
	<stop  offset="0.5734" style="stop-color:#B34531"/>
	<stop  offset="0.7443" style="stop-color:#D04C34"/>
	<stop  offset="0.8921" style="stop-color:#E25035"/>
	<stop  offset="1" style="stop-color:#E85236"/>
</linearGradient>
<circle fill="url(#SVGID_1_)" cx="51" cy="51" r="50"/>
<path fill="#FFFFFF" d="M57.8,52.5c0,1-0.3,1.9-1,2.6c-0.4,0.5-0.9,0.9-1.3,1c0,0-0.3,0.1-1.2-0.3l-6.8-3.7
	c-1.1-0.6-1.9-1.1-2.4-1.6C44.4,49.8,44,49,44,48.1c0-0.6,0.1-1.1,0.4-1.7c0.4-0.8,1.1-1.4,1.6-1.6c0,0,0.5-0.2,1.4,0.3l7.2,3.8
	c0.8,0.4,1.5,0.9,1.9,1.3C57.3,50.9,57.8,51.7,57.8,52.5 M42.6,41.9c-1.4,0.7-2.5,1.6-3.3,2.5c-1.3,1.5-2,3.4-2,5.8
	c0,2.5,1,4.6,2.9,6.3c1.2,1.1,3.5,2.4,6.8,4.1c3.8,2,6.1,3.3,6.9,4.1c0.8,0.7,1.2,1.6,1.2,2.6c0,1.1-0.4,2-1.2,2.7
	c-0.8,0.7-1.7,1-2.8,1c-1.8,0-3.1-0.5-3.8-1.6c-0.5-0.6-0.8-1.6-1.1-3H40c0,0-1,0-0.9,1c0.2,2.8,1.5,5.6,3.8,7.2
	c2.3,1.7,5,2.5,8.3,2.5c3,0,5.7-0.9,8.1-2.8c2.4-1.9,3.6-4.6,3.6-8.1c0-1.8-0.4-3.4-1.3-4.8c-0.5-0.8-1.2-1.6-1.8-2.1
	c0,0-0.5-0.4,0.2-0.8c0.7-0.4,1.8-1.2,2.6-2c1.4-1.5,2.1-3.5,2.1-5.8c0-3.8-3-7.1-8.9-9.9c-3.4-1.6-5.7-2.7-7-3.3
	c-1.3-0.6-1.9-1.6-1.9-2.8c0-1.1,0.4-1.9,1.1-2.5c0.7-0.6,1.7-0.9,2.8-0.9c1.7,0,2.9,0.6,3.7,1.7c0.4,0.7,0.7,1.5,0.8,2.7h6
	c0,0,1,0,0.9-1c-0.1-1.4-0.7-3.4-1.7-5c-1.9-3-5-4.5-9.5-4.5c-3.7,0-6.6,1-8.5,3c-1.9,2-2.9,4.4-2.9,7.2c0,1.6,0.4,3.1,1.1,4.5
	C41.4,40.7,42,41.5,42.6,41.9"/>
</svg>
