<?xml version="1.0" encoding="utf-8"?>
<!-- Generator: Adobe Illustrator 17.1.0, SVG Export Plug-In . SVG Version: 6.00 Build 0)  -->
<!DOCTYPE svg PUBLIC "-//W3C//DTD SVG 1.1//EN" "http://www.w3.org/Graphics/SVG/1.1/DTD/svg11.dtd">
<svg version="1.1" id="Layer_1" xmlns="http://www.w3.org/2000/svg" xmlns:xlink="http://www.w3.org/1999/xlink" x="0px" y="0px"
	 viewBox="0 0 102 102" enable-background="new 0 0 102 102" xml:space="preserve">
<g>
	<path fill="#212221" d="M94.6,101c-0.1,0-0.3,0-0.4,0c-3.4-0.2-6-3.2-5.7-6.6c1.5-21.6-6.7-43-22.3-58.6
		c-15.6-15.6-37-23.7-58.6-22.3C4.3,13.7,1.2,11.2,1,7.8C0.8,4.4,3.4,1.4,6.8,1.2c25.2-1.7,50,7.7,68.2,25.9
		c18.1,18.1,27.6,43,25.9,68.2C100.6,98.5,97.9,101,94.6,101z"/>
	<path fill="#212221" d="M71,100.6c-0.2,0-0.4,0-0.6,0c-3.4-0.4-5.9-3.4-5.5-6.8c1.6-15.4-3.9-30.5-15-41.6s-26.3-16.6-41.6-15
		c-3.5,0.3-6.4-2.1-6.8-5.5c-0.4-3.4,2.1-6.4,5.5-6.8c19.1-2,37.9,4.8,51.7,18.6C72.3,57.2,79.1,76,77.1,95.1
		C76.8,98.3,74.1,100.6,71,100.6z"/>
	<path fill="#212221" d="M47.3,99.9c-0.4,0-0.7,0-1.1-0.1c-3.4-0.6-5.6-3.8-5-7.2c1.5-8.7-1.3-17.7-7.7-24.1
		C27,62,17.9,59.2,9.1,60.9c-3.4,0.6-6.6-1.6-7.2-4.9c-0.6-3.4,1.6-6.6,4.9-7.2c12.8-2.5,26.1,1.7,35.5,11.1
		c9.2,9.2,13.4,22.3,11.1,35C52.8,97.7,50.2,99.9,47.3,99.9z"/>
	<path fill="#212221" d="M15.2,97.2c-2.8,0-5.4-1.1-7.3-3c-4-4-4.1-10.5-0.1-14.5c3.8-3.8,10.6-3.8,14.5,0.1c4,4,4.1,10.5,0.1,14.5
		C20.5,96.1,17.9,97.2,15.2,97.2z M15.2,84.8c-0.6,0-1.2,0.2-1.6,0.7c-0.9,0.9-0.9,2.2-0.1,3c0.8,0.8,2.2,0.7,3-0.1
		c0.9-0.9,0.9-2.2,0.1-3C16.3,85,15.8,84.8,15.2,84.8z"/>
</g>
</svg>
