<?xml version="1.0" encoding="utf-8"?>
<!-- Generator: Adobe Illustrator 17.1.0, SVG Export Plug-In . SVG Version: 6.00 Build 0)  -->
<!DOCTYPE svg PUBLIC "-//W3C//DTD SVG 1.1//EN" "http://www.w3.org/Graphics/SVG/1.1/DTD/svg11.dtd">
<svg version="1.1" id="Layer_1" xmlns="http://www.w3.org/2000/svg" xmlns:xlink="http://www.w3.org/1999/xlink" x="0px" y="0px"
	 viewBox="0 0 102 102" enable-background="new 0 0 102 102" xml:space="preserve">
<g>
	<path fill="#222222" d="M92.5,37.7L92.5,37.7c0-0.7-0.3-1.3-0.8-1.8L52.5,1.6c-0.9-0.8-2.2-0.8-3.1,0L10.1,35.9
		c-0.7,0.6-0.9,1.5-0.8,2.3c0,0.2-0.1,0.3-0.1,0.5v59.9c0,1.3,1.1,2.4,2.4,2.4h78.6c1.3,0,2.4-1.1,2.4-2.4V38.7
		C92.7,38.3,92.6,38,92.5,37.7z M50.9,6.5l34,29.8h-68L50.9,6.5z M28.9,94.8V63.4h11.4v31.4H28.9z M87.9,96.2H45V61
		c0-1.3-1.1-2.4-2.4-2.4H26.5c-1.3,0-2.4,1.1-2.4,2.4v35.2h-10V41.1h73.8V96.2z"/>
	<path fill="#222222" d="M58.9,79.6H75c1.3,0,2.4-1.1,2.4-2.4V61c0-1.3-1.1-2.4-2.4-2.4H58.9c-1.3,0-2.4,1.1-2.4,2.4v16.2
		C56.5,78.5,57.5,79.6,58.9,79.6z M61.2,63.4h11.4v11.4H61.2V63.4z"/>
</g>
</svg>
