<?xml version="1.0" encoding="utf-8"?>
<!-- Generator: Adobe Illustrator 17.1.0, SVG Export Plug-In . SVG Version: 6.00 Build 0)  -->
<!DOCTYPE svg PUBLIC "-//W3C//DTD SVG 1.1//EN" "http://www.w3.org/Graphics/SVG/1.1/DTD/svg11.dtd">
<svg version="1.1" id="Layer_1" xmlns="http://www.w3.org/2000/svg" xmlns:xlink="http://www.w3.org/1999/xlink" x="0px" y="0px"
	 viewBox="0 0 102 102" enable-background="new 0 0 102 102" xml:space="preserve">
<path fill="#222222" d="M81.1,32.4V4.1C81.1,2.4,79.7,1,78,1H24c-1.7,0-3.1,1.4-3.1,3.1v28.3c0,1.7-1.4,3.1-3.1,3.1H4.1
	c-1.7,0-3.1,1.4-3.1,3.1v41.7c0,1.7,1.4,3.1,3.1,3.1h10c1.7,0,3.1,1.4,3.1,3.1v11.5c0,1.7,1.4,3.1,3.1,3.1h61.6
	c1.7,0,3.1-1.4,3.1-3.1V86.4c0-1.7,1.4-3.1,3.1-3.1h10c1.7,0,3.1-1.4,3.1-3.1V38.5c0-1.7-1.4-3.1-3.1-3.1H84.2
	C82.5,35.4,81.1,34.1,81.1,32.4z M33.2,10.6H69c1.7,0,3.1,1.4,3.1,3.1v18.9c0,1.7-1.4,3.1-3.1,3.1H33.2c-1.7,0-3.1-1.4-3.1-3.1V13.7
	C30.1,12,31.5,10.6,33.2,10.6z M73,91.7H29.1c-1.7,0-3.1-1.4-3.1-3.1V69.7c0-1.7,1.4-3.1,3.1-3.1H73c1.7,0,3.1,1.4,3.1,3.1v18.9
	C76,90.3,74.6,91.7,73,91.7z"/>
</svg>
