<?xml version="1.0" encoding="utf-8"?>
<!-- Generator: Adobe Illustrator 17.1.0, SVG Export Plug-In . SVG Version: 6.00 Build 0)  -->
<!DOCTYPE svg PUBLIC "-//W3C//DTD SVG 1.1//EN" "http://www.w3.org/Graphics/SVG/1.1/DTD/svg11.dtd">
<svg version="1.1" id="Layer_1" xmlns="http://www.w3.org/2000/svg" xmlns:xlink="http://www.w3.org/1999/xlink" x="0px" y="0px"
	 viewBox="0 102 102 102" enable-background="new 0 102 102 102" xml:space="preserve">
<path d="M98.2,190.1l-24.1-26c3.9-6.2,5.8-13.2,5.8-21c0-22.2-17.9-40-39.6-40S1,120.9,1,143s17.5,40,39.3,40c7.8,0,15.2-2.3,21-6.2
	L85,202.5c1.2,1.6,3.5,1.6,5.1,0l7.8-7.4C99.3,194,99.3,191.6,98.2,190.1z M9.2,143c0-17.5,14-31.9,31.1-31.9s31.1,14.4,31.1,31.9
	c0,8.2-3.1,15.5-7.8,21l-3.9,3.9c-5.4,4.3-12,7-19.4,7C23.2,174.9,9.2,160.9,9.2,143z"/>
</svg>
