<?xml version="1.0" encoding="utf-8"?>
<!-- Generator: Adobe Illustrator 17.1.0, SVG Export Plug-In . SVG Version: 6.00 Build 0)  -->
<!DOCTYPE svg PUBLIC "-//W3C//DTD SVG 1.1//EN" "http://www.w3.org/Graphics/SVG/1.1/DTD/svg11.dtd">
<svg version="1.1" id="Layer_1" xmlns="http://www.w3.org/2000/svg" xmlns:xlink="http://www.w3.org/1999/xlink" x="0px" y="0px"
	 viewBox="0 0 102 102" enable-background="new 0 0 102 102" xml:space="preserve">
<path fill="#212221" d="M97.8,17.2c0,0-0.1,0-0.1,0c-0.1,0-0.1,0-0.2,0H4.6c-0.1,0-0.2,0-0.2,0c-0.2,0-0.5,0.1-0.7,0.1
	c-0.2,0.1-0.4,0.1-0.6,0.2c-0.2,0.1-0.4,0.2-0.5,0.4c-0.2,0.2-0.4,0.3-0.5,0.5c-0.1,0.1-0.1,0.1-0.2,0.2c-0.1,0.1-0.1,0.3-0.2,0.4
	c-0.1,0.2-0.2,0.4-0.3,0.7c-0.1,0.2-0.1,0.5-0.1,0.7c0,0.1-0.1,0.3-0.1,0.4v60.7c0,2,1.6,3.6,3.6,3.6h92.9c2,0,3.6-1.6,3.6-3.6V20.7
	C101,18.8,99.6,17.3,97.8,17.2z M86.5,24.2L50.9,50.9L15.3,24.2H86.5z M8.1,77.8v-50l40.6,30.4c0.6,0.5,1.4,0.7,2.1,0.7
	c0.8,0,1.5-0.2,2.1-0.7l40.8-30.6v50.1H8.1z"/>
</svg>
