<?xml version="1.0" encoding="utf-8"?>
<!-- Generator: Adobe Illustrator 17.1.0, SVG Export Plug-In . SVG Version: 6.00 Build 0)  -->
<!DOCTYPE svg PUBLIC "-//W3C//DTD SVG 1.1//EN" "http://www.w3.org/Graphics/SVG/1.1/DTD/svg11.dtd">
<svg version="1.1" id="Layer_1" xmlns="http://www.w3.org/2000/svg" xmlns:xlink="http://www.w3.org/1999/xlink" x="0px" y="0px"
	 viewBox="0 0 102 102" enable-background="new 0 0 102 102" xml:space="preserve">
<path fill="#222222" d="M78.8,1H23.2c-1.4,0-2.5,1.1-2.5,2.5v94.9c0,1.4,1.1,2.5,2.5,2.5h55.7c1.4,0,2.5-1.1,2.5-2.5V3.5
	C81.4,2.1,80.2,1,78.8,1z M51.8,96.1c-2.6,0-4.8-2.1-4.8-4.8c0-2.6,2.1-4.8,4.8-4.8c2.6,0,4.8,2.1,4.8,4.8
	C56.5,93.9,54.4,96.1,51.8,96.1z M70.3,81H31.7c-1.4,0-2.5-1.1-2.5-2.5V12.1c0-1.4,1.1-2.5,2.5-2.5h38.5c1.4,0,2.5,1.1,2.5,2.5v66.4
	C72.8,79.9,71.7,81,70.3,81z"/>
</svg>
