<?xml version="1.0" encoding="utf-8"?>
<!-- Generator: Adobe Illustrator 17.1.0, SVG Export Plug-In . SVG Version: 6.00 Build 0)  -->
<!DOCTYPE svg PUBLIC "-//W3C//DTD SVG 1.1//EN" "http://www.w3.org/Graphics/SVG/1.1/DTD/svg11.dtd">
<svg version="1.1" id="Layer_1" xmlns="http://www.w3.org/2000/svg" xmlns:xlink="http://www.w3.org/1999/xlink" x="0px" y="0px"
	 viewBox="0 0 102 102" enable-background="new 0 0 102 102" xml:space="preserve">
<g>
	<path fill="#212221" d="M68.5,1h-35c-6,0-10.9,4.9-10.9,10.9v78.2c0,6,4.9,10.9,10.9,10.9h35c6,0,10.9-4.9,10.9-10.9V11.9
		C79.4,5.9,74.5,1,68.5,1z M74.2,90.1c0,3.1-2.5,5.7-5.7,5.7h-35c-3.1,0-5.7-2.6-5.7-5.7V11.9c0-3.1,2.6-5.7,5.7-5.7h35
		c3.1,0,5.7,2.6,5.7,5.7V90.1z"/>
	<path fill="#212221" d="M67.8,7.8H34.2c-2.9,0-5.3,2.4-5.3,5.3v63.4c0,2.9,2.4,5.3,5.3,5.3h12.2c-1.6,1.3-2.6,3.4-2.6,5.6
		c0,4,3.3,7.3,7.3,7.3s7.3-3.3,7.3-7.3c0-2.3-1-4.3-2.6-5.6h12.2c2.9,0,5.3-2.4,5.3-5.3V13C73.1,10.1,70.7,7.8,67.8,7.8z M51,89.4
		c-1.1,0-2.1-0.9-2.1-2.1c0-1.1,0.9-2.1,2.1-2.1s2.1,0.9,2.1,2.1C53.1,88.5,52.1,89.4,51,89.4z M67.9,76.5
		C67.9,76.5,67.9,76.5,67.9,76.5H34.1L34.2,13L67.9,13V76.5z"/>
</g>
</svg>
