<?xml version="1.0" encoding="utf-8"?>
<!-- Generator: Adobe Illustrator 17.1.0, SVG Export Plug-In . SVG Version: 6.00 Build 0)  -->
<!DOCTYPE svg PUBLIC "-//W3C//DTD SVG 1.1//EN" "http://www.w3.org/Graphics/SVG/1.1/DTD/svg11.dtd">
<svg version="1.1" id="Layer_1" xmlns="http://www.w3.org/2000/svg" xmlns:xlink="http://www.w3.org/1999/xlink" x="0px" y="0px"
	 viewBox="0 0 102 102" enable-background="new 0 0 102 102" xml:space="preserve">
<g>
	<path fill="#222222" d="M87.3,101L87.3,101c-1.3,0-2.5-0.5-3.4-1.5L63.5,77.7c-0.4-0.4-1.1-0.5-1.7-0.2c-6,3.4-12.7,5.2-19.5,5.2
		c-22.1,0-40.1-18.3-40.1-40.9C2.2,19.3,20.2,1,42.3,1s40.1,18.3,40.1,40.9c0,6.9-1.7,13.7-5,19.7c-0.3,0.5-0.2,1.1,0.1,1.5
		l20.9,22.4c1.7,1.9,1.7,4.7-0.2,6.5l-7.8,7.7C89.6,100.5,88.5,101,87.3,101z M42.3,14.6c-14.6,0-26.5,12.2-26.5,27.3
		s11.9,27.3,26.5,27.3s26.5-12.2,26.5-27.3S57,14.6,42.3,14.6z"/>
</g>
</svg>
