<?xml version="1.0" encoding="utf-8"?>
<!-- Generator: Adobe Illustrator 17.1.0, SVG Export Plug-In . SVG Version: 6.00 Build 0)  -->
<!DOCTYPE svg PUBLIC "-//W3C//DTD SVG 1.1//EN" "http://www.w3.org/Graphics/SVG/1.1/DTD/svg11.dtd">
<svg version="1.1" id="Layer_1" xmlns="http://www.w3.org/2000/svg" xmlns:xlink="http://www.w3.org/1999/xlink" x="0px" y="0px"
	 viewBox="0 0 102 102" enable-background="new 0 0 102 102" xml:space="preserve">
<g>
	<path fill="#222222" d="M55,76.3h19.7c1.2,0,2.2-1,2.2-2.2v-22c0-1.2-1-2.2-2.2-2.2H55c-1.2,0-2.2,1-2.2,2.2v22
		C52.7,75.3,53.7,76.3,55,76.3z M62.5,57.4h4.6c1.2,0,2.2,1,2.2,2.2v6.8c0,1.2-1,2.2-2.2,2.2h-4.6c-1.2,0-2.2-1-2.2-2.2v-6.8
		C60.3,58.4,61.3,57.4,62.5,57.4z"/>
	<path fill="#222222" d="M82.9,37.3V17.1c0-1.2-1-2.2-2.2-2.2H66.8c-1.2,0-2.2,1-2.2,2.2l0,0.9c0,1.9-2.2,2.9-3.7,1.7l-8.7-7.4
		c-0.8-0.7-2.1-0.7-2.9,0L1.8,53c-1.6,1.3-0.6,3.9,1.5,3.9h7c1.2,0,2.2,1,2.2,2.2V88c0,1.2,1,2.2,2.2,2.2h9.8h24.2h38
		c1.2,0,2.2-1,2.2-2.2V59.2c0-1.2,1-2.2,2.2-2.2h7.5c2.1,0,3-2.6,1.4-3.9L83.7,39C83.2,38.5,82.9,37.9,82.9,37.3z M32.2,80.4V59.7
		c0-1.2,1-2.2,2.2-2.2H39c1.2,0,2.2,1,2.2,2.2v20.8c0,1.2-1,2.2-2.2,2.2h-4.6C33.2,82.7,32.2,81.7,32.2,80.4z M81.4,49.3v31.1
		c0,1.2-1,2.2-2.2,2.2H51c-1.2,0-2.2-1-2.2-2.2V52.1c0-1.2-1-2.2-2.2-2.2H26.8c-1.2,0-2.2,1-2.2,2.2v28.3c0,1.2-1,2.2-2.2,2.2h0
		c-1.2,0-2.2-1-2.2-2.2V49.3h-2.4l31.7-27.1c0.8-0.7,2.1-0.7,2.9,0l16.1,13.6c1.4,1.2,3.6,0.3,3.7-1.6l0.2-3.1l0-8.7h3.1v18.5
		c0,0.7,0.3,1.3,0.8,1.7l8.1,6.7H81.4z"/>
</g>
</svg>
