<?xml version="1.0" encoding="utf-8"?>
<!-- Generator: Adobe Illustrator 17.1.0, SVG Export Plug-In . SVG Version: 6.00 Build 0)  -->
<!DOCTYPE svg PUBLIC "-//W3C//DTD SVG 1.1//EN" "http://www.w3.org/Graphics/SVG/1.1/DTD/svg11.dtd">
<svg version="1.1" id="Layer_1" xmlns="http://www.w3.org/2000/svg" xmlns:xlink="http://www.w3.org/1999/xlink" x="0px" y="0px"
	 viewBox="0 0 102 102" enable-background="new 0 0 102 102" xml:space="preserve">
<path fill="#02343F" d="M95.4,1h-89C3.5,1,1,3.5,1,6.6v89c0,3,2.5,5.5,5.5,5.5H54V62.5H41.5V47H54V36.1c0-12.9,8.1-20,19.6-20
	c5.5,0,10.3,0.4,11.8,0.6v13.5h-8c-6.3,0-7.5,3-7.5,7.3V47h14.9l-2,15.5H70V101h25.4c3,0,5.6-2.5,5.6-5.5v-89C101,3.5,98.5,1,95.4,1
	z"/>
</svg>
