<?xml version="1.0" encoding="utf-8"?>
<!-- Generator: Adobe Illustrator 17.1.0, SVG Export Plug-In . SVG Version: 6.00 Build 0)  -->
<!DOCTYPE svg PUBLIC "-//W3C//DTD SVG 1.1//EN" "http://www.w3.org/Graphics/SVG/1.1/DTD/svg11.dtd">
<svg version="1.1" id="Layer_1" xmlns="http://www.w3.org/2000/svg" xmlns:xlink="http://www.w3.org/1999/xlink" x="0px" y="0px"
	 viewBox="0 0 221.9 71.2" enable-background="new 0 0 221.9 71.2" xml:space="preserve">
<g>
	<g>
		<path fill="#003146" d="M61.5,44.8v-5.2h-5.2v5.2h-2.2V32.9h2.2v4.7h5.2v-4.7h2.2v11.9H61.5z"/>
		<path fill="#003146" d="M67.9,40.9v0.2c0,1.3,0.2,2.2,2.4,2.2c0.9,0,2.1-0.1,3.2-0.2v1.6c-0.7,0.2-1.8,0.4-3.3,0.4
			c-3.2,0-4.4-1.2-4.4-4.4V40c0-3,1.4-4.5,4.1-4.5c3,0,4.1,2,4.1,4.7v0.7H67.9z M71.8,39.4c0-1-0.2-2.2-2-2.2c-1.7,0-2,1.2-2,2.2
			v0.1h3.9V39.4z"/>
		<path fill="#003146" d="M76,44.8V32.3h2.1v12.4H76z"/>
		<path fill="#003146" d="M83.3,45c-1.2,0-2.7-0.2-3.1-0.4v-1.5c0.5,0,1.8,0.2,3,0.2c1.3,0,1.7-0.3,1.7-0.9c0-0.6-0.3-0.8-1.6-1.3
			l-0.7-0.3c-1.7-0.7-2.5-1.4-2.5-2.8c0-1.8,1.2-2.4,3.6-2.4c1,0,2.4,0.2,2.8,0.4v1.5c-1-0.1-2-0.2-2.8-0.2c-1.1,0-1.6,0.1-1.6,0.7
			c0,0.6,0.3,0.7,1.4,1.2l0.7,0.3c1.9,0.8,2.6,1.4,2.6,2.9C86.9,44,85.8,45,83.3,45z"/>
		<path fill="#003146" d="M90.4,40.9v0.2c0,1.3,0.2,2.2,2.4,2.2c0.9,0,2.1-0.1,3.2-0.2v1.6c-0.7,0.2-1.8,0.4-3.3,0.4
			c-3.2,0-4.4-1.2-4.4-4.4V40c0-3,1.4-4.5,4.1-4.5c3,0,4.1,2,4.1,4.7v0.7H90.4z M94.3,39.4c0-1-0.2-2.2-2-2.2c-1.7,0-2,1.2-2,2.2
			v0.1h3.9V39.4z"/>
		<path fill="#003146" d="M103.9,44.8v-0.5c-0.6,0.4-1.5,0.7-2.5,0.7c-2.1,0-3.4-1.3-3.4-4v-1.3c0-3.2,1.6-4.2,3.9-4.2
			c0.7,0,1.3,0.1,1.9,0.2v-3.4h2.1v12.4H103.9z M103.8,37.5c-0.6-0.1-1.3-0.2-1.7-0.2c-1.3,0-2,0.4-2,2.4V41c0,1.6,0.5,2.2,1.8,2.2
			c0.7,0,1.3-0.2,1.8-0.4V37.5z"/>
		<path fill="#003146" d="M108.3,34.4v-2h2.2v2H108.3z M108.3,44.8v-9h2.1v9H108.3z"/>
		<path fill="#003146" d="M115,38v6.8h-2.1v-9h2v0.7c0.8-0.8,2-1,3.1-1v1.9C116.8,37.5,115.6,37.7,115,38z"/>
		<path fill="#003146" d="M120.9,40.9v0.2c0,1.3,0.2,2.2,2.4,2.2c0.9,0,2.1-0.1,3.2-0.2v1.6c-0.7,0.2-1.8,0.4-3.3,0.4
			c-3.2,0-4.4-1.2-4.4-4.4V40c0-3,1.4-4.5,4.1-4.5c3,0,4.1,2,4.1,4.7v0.7H120.9z M124.8,39.4c0-1-0.2-2.2-2-2.2c-1.7,0-2,1.2-2,2.2
			v0.1h3.9V39.4z"/>
		<path fill="#003146" d="M134.1,44.8l-3.2-4.3v4.3h-2.1V32.3h2.1v7.4l3.2-4h2.4l-3.5,4.3l3.6,4.7H134.1z"/>
		<path fill="#003146" d="M141.4,45c-1.8,0-2.5-0.7-2.5-2.6v-5l-1.7-0.1v-1.6h1.7v-2.3h2.1v2.3h2.2v1.7H141v4.9c0,0.8,0.1,1,0.8,1
			c0.5,0,1.1,0,1.4-0.1v1.4C143,44.8,142.2,45,141.4,45z"/>
		<path fill="#003146" d="M148.3,45c-2.6,0-4.1-1.3-4.1-4.2v-1.1c0-2.8,1.4-4.2,4.1-4.2c2.6,0,4.1,1.3,4.1,4.2v1.1
			C152.4,43.7,150.9,45,148.3,45z M150.3,39.7c0-1.7-0.6-2.4-2-2.4c-1.4,0-2,0.6-2,2.4v1.1c0,1.7,0.6,2.4,2,2.4c1.4,0,2-0.7,2-2.4
			V39.7z"/>
		<path fill="#003146" d="M156.5,38v6.8h-2.1v-9h2v0.7c0.8-0.8,1.9-1,3.1-1v1.9C158.4,37.5,157.2,37.7,156.5,38z"/>
		<path fill="#003146" d="M165.7,44.8v-0.6c-0.6,0.4-1.6,0.8-2.8,0.8c-1.7,0-2.6-0.8-2.6-2.6v-0.3c0-2.4,1.7-2.7,4.3-2.7h1.1v-0.6
			c0-1.3-0.3-1.5-1.9-1.5c-0.9,0-1.8,0.1-2.8,0.2V36c0.4-0.2,1.7-0.5,3.2-0.5c2.9,0,3.6,1,3.6,3.3v5.9H165.7z M165.6,40.7h-1.1
			c-1.6,0-2.2,0.2-2.2,1.4v0.4c0,0.8,0.5,1.1,1.3,1.1c0.9,0,1.7-0.4,2.1-0.5V40.7z"/>
		<path fill="#003146" d="M173,45c-1.8,0-2.5-0.7-2.5-2.6v-5l-1.7-0.1v-1.6h1.7v-2.3h2.1v2.3h2.2v1.7h-2.2v4.9c0,0.8,0.1,1,0.8,1
			c0.5,0,1.1,0,1.4-0.1v1.4C174.6,44.8,173.8,45,173,45z"/>
		<path fill="#003146" d="M178,40.9v0.2c0,1.3,0.2,2.2,2.4,2.2c0.9,0,2.1-0.1,3.3-0.2v1.6c-0.7,0.2-1.8,0.4-3.3,0.4
			c-3.2,0-4.4-1.2-4.4-4.4V40c0-3,1.4-4.5,4.1-4.5c3,0,4.1,2,4.1,4.7v0.7H178z M181.9,39.4c0-1-0.2-2.2-2-2.2c-1.7,0-2,1.2-2,2.2
			v0.1h3.9V39.4z"/>
		<path fill="#003146" d="M189,45c-1.8,0-2.5-0.7-2.5-2.6v-5l-1.7-0.1v-1.6h1.7v-2.3h2.1v2.3h2.2v1.7h-2.2v4.9c0,0.8,0.1,1,0.8,1
			c0.5,0,1.1,0,1.4-0.1v1.4C190.6,44.8,189.8,45,189,45z"/>
	</g>
</g>
<path fill="#00A9B7" d="M30.6,34.8c1.4,0.6,2.1-1.6,2.1-3.2c0-1,0-4.5,0-4.5h-2.5c-1.2,0-2.1,0.9-2.1,2.1v4.5
	C28.1,33.6,30,34.5,30.6,34.8z"/>
<path fill="#00A9B7" d="M42.9,27h-8.5c0,0,0.1,2.3,0.3,3.9c0.1,0.7,0.2,1.4,0.8,2c0.5,0.5,1,0.8,1.8,1.2c0.8,0.4,3.6,1.5,4.4,1.8
	c0.8,0.3,0.7,0.6,0.6,1.1c-0.2,0.5-0.4,0.6-1.1,0.4c-0.8-0.2-4.2-1.3-5-1.5c-0.5-0.1-0.7-0.1-1.1,0.3c-0.8,1-0.6,3.1,0,4.8
	c0.3,0.8,1.3,3.6,1.6,4.4c0.3,0.8-0.2,0.9-0.4,1.1c-0.5,0.2-0.8,0.2-1.1-0.4c-0.3-0.7-2.2-4.4-3.2-6.2c-0.9-1.8-1.7-2.7-3.7-3.9
	v11.7c0,1.1,0.9,2.1,2.1,2.1h12.7c1.1,0,2.1-0.9,2.1-2.1V29.1C45,27.9,44,27,42.9,27z M39.2,31.1l-1.3,1.1c-0.4,0.3-1,0.3-1.3-0.1
	l-0.3-0.3c-0.3-0.4-0.3-0.9,0.1-1.3l1.3-1.1c0.4-0.3,0.9-0.3,1.3,0.1l0.3,0.3C39.6,30.2,39.6,30.8,39.2,31.1z"/>
<path fill="#003146" d="M28.1,33.6c0,0-1-0.5-2.2-1.1c-3.3-1.7-9.6-5-10.3-5.4c-0.7-0.3-0.8-0.1-1.1,0.3c-0.2,0.4-0.3,0.7,0.2,1.1
	c0.3,0.2,1.9,1.2,2.9,2c0.8,0.6,1.5,1.4,1.7,2.2L22,44c0.2,0.7,0.5,0.7,0.9,0.6c0.4-0.1,0.8-0.1,0.7-0.9l-0.4-8.8
	c0-0.8,0.5-1.2,1.3-0.8l3.5,1.9V33.6z"/>
<path fill="#003146" d="M21.8,28.8l0.4,0.2c0.4,0.2,1,0.1,1.2-0.4l0.7-1.5c0.2-0.5,0-1-0.4-1.2l-0.4-0.2c-0.5-0.2-1-0.1-1.2,0.4
	l-0.7,1.5C21.1,28,21.3,28.6,21.8,28.8z"/>
</svg>
