<?xml version="1.0" encoding="utf-8"?>
<!-- Generator: Adobe Illustrator 17.1.0, SVG Export Plug-In . SVG Version: 6.00 Build 0)  -->
<!DOCTYPE svg PUBLIC "-//W3C//DTD SVG 1.1//EN" "http://www.w3.org/Graphics/SVG/1.1/DTD/svg11.dtd">
<svg version="1.1" id="Layer_1" xmlns="http://www.w3.org/2000/svg" xmlns:xlink="http://www.w3.org/1999/xlink" x="0px" y="0px"
	 viewBox="0 0 24 18" enable-background="new 0 0 24 18" xml:space="preserve">
<g>
	<path fill="#004E66" d="M13.5,9.7l9.1-9.4c-0.3-0.2-0.6-0.3-1-0.3H2.4C2.1,0,1.8,0.1,1.5,0.3l9.1,9.4C11.4,10.5,12.7,10.5,13.5,9.7
		z"/>
	<path fill="#004E66" d="M0.1,1.9C0,2,0,2.2,0,2.4v13.3c0,0.3,0.1,0.6,0.2,0.8l7-7.2L0.1,1.9z"/>
	<path fill="#004E66" d="M23.9,2C24,2.1,24,2.3,24,2.5v13.3c0,0.3-0.1,0.6-0.2,0.8l-7-7.2L23.9,2z"/>
	<path fill="#004E66" d="M14.4,11.5c-0.6,0.7-1.5,1-2.3,1c-0.8,0-1.7-0.3-2.3-1l-0.9-1l-7.1,7.3C1.9,17.9,2.1,18,2.4,18h19.3
		c0.2,0,0.5-0.1,0.7-0.1l-7.1-7.3L14.4,11.5z"/>
</g>
</svg>
