<?xml version="1.0" encoding="utf-8"?>
<!-- Generator: Adobe Illustrator 17.1.0, SVG Export Plug-In . SVG Version: 6.00 Build 0)  -->
<!DOCTYPE svg PUBLIC "-//W3C//DTD SVG 1.1//EN" "http://www.w3.org/Graphics/SVG/1.1/DTD/svg11.dtd">
<svg version="1.1" id="Layer_1" xmlns="http://www.w3.org/2000/svg" xmlns:xlink="http://www.w3.org/1999/xlink" x="0px" y="0px"
	 viewBox="0 0 18 18" enable-background="new 0 0 18 18" xml:space="preserve">
<g>
	<path fill="#004E66" d="M5.3,18c0-0.1,0-0.2,0-0.3c0-2.8-2.3-5.1-5.2-5.1c0,0-0.1,0-0.1,0V18H5.3z"/>
	<path fill="#004E66" d="M0.1,9.9c4.3,0,7.9,3.5,7.9,7.8c0,0.1,0,0.2,0,0.3h3.7c0-0.1,0-0.2,0-0.3c0-6.3-5.2-11.4-11.5-11.4
		c0,0-0.1,0-0.1,0L0.1,9.9C0,9.9,0.1,9.9,0.1,9.9z"/>
	<path fill="#004E66" d="M0.1,3.6c7.8,0,14.2,6.3,14.2,14.1c0,0.1,0,0.2,0,0.3H18c0-0.1,0-0.2,0-0.3C18,8,10,0,0.1,0C0.1,0,0,0,0,0
		L0.1,3.6C0,3.6,0.1,3.6,0.1,3.6z"/>
</g>
</svg>
