<?xml version="1.0" encoding="utf-8"?>
<!-- Generator: Adobe Illustrator 17.1.0, SVG Export Plug-In . SVG Version: 6.00 Build 0)  -->
<!DOCTYPE svg PUBLIC "-//W3C//DTD SVG 1.1//EN" "http://www.w3.org/Graphics/SVG/1.1/DTD/svg11.dtd">
<svg version="1.1" id="Layer_1" xmlns="http://www.w3.org/2000/svg" xmlns:xlink="http://www.w3.org/1999/xlink" x="0px" y="0px"
	 viewBox="0 65.4 102 102" enable-background="new 0 65.4 102 102" xml:space="preserve">
<path fill="#0093A7" d="M95.3,166.4H6.7c-3.1,0-5.7-2.6-5.7-5.7V72.1c0-3.1,2.6-5.7,5.7-5.7h88.6c3.2,0,5.7,2.6,5.7,5.7v88.6
	C101,163.8,98.4,166.4,95.3,166.4z"/>
<g>
	<path fill="#FFFFFF" d="M19,122.8c0,0.2,0,0.4,0,0.5c0,0.1-0.1,0.3-0.1,0.4c-0.1,0.1-0.1,0.2-0.2,0.2c-0.1,0-0.1,0.1-0.2,0.1H8.7
		c-0.2,0-0.5-0.1-0.7-0.2c-0.2-0.2-0.3-0.4-0.3-0.9v-18c0-0.4,0.1-0.7,0.3-0.9c0.2-0.2,0.4-0.2,0.7-0.2h9.6c0.1,0,0.2,0,0.2,0.1
		c0.1,0,0.1,0.1,0.2,0.2c0,0.1,0.1,0.2,0.1,0.4c0,0.1,0,0.3,0,0.5c0,0.2,0,0.4,0,0.5c0,0.1-0.1,0.3-0.1,0.3c0,0.1-0.1,0.2-0.2,0.2
		c-0.1,0-0.1,0.1-0.2,0.1h-7.9v6.3h6.8c0.1,0,0.2,0,0.2,0.1c0.1,0,0.1,0.1,0.2,0.2c0,0.1,0.1,0.2,0.1,0.3c0,0.1,0,0.3,0,0.5
		c0,0.2,0,0.3,0,0.5c0,0.1-0.1,0.2-0.1,0.3c0,0.1-0.1,0.1-0.2,0.2c-0.1,0-0.1,0.1-0.2,0.1h-6.8v7.2h8c0.1,0,0.2,0,0.2,0.1
		c0.1,0,0.1,0.1,0.2,0.2c0.1,0.1,0.1,0.2,0.1,0.3C19,122.4,19,122.6,19,122.8z"/>
	<path fill="#FFFFFF" d="M35.2,123.5c0,0.1,0,0.2-0.1,0.2c0,0.1-0.1,0.1-0.2,0.1s-0.2,0.1-0.4,0.1c-0.2,0-0.4,0-0.6,0
		c-0.3,0-0.5,0-0.6,0c-0.2,0-0.3-0.1-0.4-0.1s-0.2-0.1-0.2-0.1c0-0.1-0.1-0.1-0.1-0.2v-8.2c0-0.8-0.1-1.4-0.2-1.9
		c-0.1-0.5-0.3-0.9-0.5-1.3c-0.2-0.4-0.5-0.6-0.9-0.8c-0.4-0.2-0.8-0.3-1.3-0.3c-0.6,0-1.3,0.2-1.9,0.7c-0.6,0.5-1.3,1.1-2,2v9.8
		c0,0.1,0,0.2-0.1,0.2c0,0.1-0.1,0.1-0.2,0.1S25.2,124,25,124c-0.2,0-0.4,0-0.6,0c-0.3,0-0.5,0-0.6,0c-0.2,0-0.3-0.1-0.4-0.1
		c-0.1,0-0.2-0.1-0.2-0.1c0-0.1-0.1-0.1-0.1-0.2v-14.1c0-0.1,0-0.2,0-0.2s0.1-0.1,0.2-0.2s0.2-0.1,0.4-0.1c0.1,0,0.3,0,0.6,0
		c0.2,0,0.4,0,0.6,0c0.2,0,0.3,0,0.4,0.1c0.1,0,0.1,0.1,0.2,0.2c0,0.1,0.1,0.1,0.1,0.2v1.9c0.8-0.9,1.6-1.5,2.4-1.9
		c0.8-0.4,1.6-0.6,2.4-0.6c0.9,0,1.7,0.2,2.4,0.5s1.2,0.7,1.6,1.3c0.4,0.5,0.7,1.2,0.9,1.9s0.3,1.6,0.3,2.6V123.5z"/>
	<path fill="#FFFFFF" d="M51.6,110.1c0,0.4,0,0.6-0.1,0.8c-0.1,0.2-0.2,0.2-0.4,0.2h-2c0.4,0.4,0.6,0.8,0.8,1.2
		c0.1,0.5,0.2,0.9,0.2,1.4c0,0.8-0.1,1.5-0.4,2.2c-0.3,0.6-0.6,1.2-1.1,1.6c-0.5,0.4-1.1,0.8-1.7,1c-0.7,0.2-1.4,0.3-2.2,0.3
		c-0.6,0-1.1-0.1-1.6-0.2c-0.5-0.2-0.9-0.3-1.2-0.6c-0.2,0.2-0.3,0.4-0.5,0.6c-0.1,0.2-0.2,0.5-0.2,0.8c0,0.4,0.2,0.7,0.5,0.9
		c0.3,0.2,0.8,0.4,1.4,0.4l3.7,0.2c0.7,0,1.3,0.1,1.9,0.3c0.6,0.2,1.1,0.4,1.5,0.7c0.4,0.3,0.8,0.7,1,1.2c0.2,0.5,0.4,1,0.4,1.6
		c0,0.6-0.1,1.3-0.4,1.8c-0.3,0.6-0.7,1.1-1.2,1.5c-0.6,0.4-1.3,0.8-2.1,1c-0.9,0.3-1.9,0.4-3.1,0.4c-1.1,0-2.1-0.1-2.9-0.3
		c-0.8-0.2-1.5-0.5-2-0.8c-0.5-0.3-0.9-0.7-1.1-1.2c-0.2-0.5-0.3-1-0.3-1.5c0-0.3,0-0.7,0.1-1c0.1-0.3,0.2-0.6,0.4-0.9
		s0.4-0.6,0.6-0.8c0.3-0.3,0.5-0.5,0.9-0.8c-0.5-0.3-0.9-0.6-1.1-1c-0.2-0.4-0.4-0.8-0.4-1.3c0-0.6,0.1-1.2,0.4-1.7
		c0.3-0.5,0.6-0.9,1-1.3c-0.3-0.4-0.6-0.8-0.8-1.3s-0.3-1.1-0.3-1.8c0-0.8,0.1-1.5,0.4-2.2c0.3-0.6,0.6-1.2,1.1-1.6
		c0.5-0.4,1.1-0.8,1.7-1s1.4-0.4,2.2-0.4c0.4,0,0.8,0,1.2,0.1c0.4,0,0.7,0.1,1,0.2h4.3c0.2,0,0.3,0.1,0.4,0.3
		C51.6,109.5,51.6,109.8,51.6,110.1z M48.9,125c0-0.6-0.2-1.1-0.7-1.4c-0.5-0.3-1.2-0.5-2-0.5l-3.6-0.1c-0.3,0.3-0.6,0.5-0.8,0.7
		c-0.2,0.2-0.4,0.5-0.5,0.7c-0.1,0.2-0.2,0.4-0.3,0.6c0,0.2-0.1,0.4-0.1,0.6c0,0.7,0.3,1.2,1,1.5c0.7,0.3,1.6,0.5,2.9,0.5
		c0.8,0,1.4-0.1,2-0.2c0.5-0.2,1-0.4,1.3-0.6c0.3-0.3,0.6-0.5,0.7-0.9C48.8,125.6,48.9,125.3,48.9,125z M47.6,113.8
		c0-1-0.3-1.7-0.8-2.2c-0.5-0.5-1.3-0.8-2.2-0.8c-0.5,0-0.9,0.1-1.3,0.3c-0.4,0.2-0.7,0.4-0.9,0.7c-0.2,0.3-0.4,0.6-0.5,1
		c-0.1,0.4-0.2,0.8-0.2,1.2c0,0.9,0.3,1.7,0.8,2.2c0.5,0.5,1.3,0.8,2.2,0.8c0.5,0,1-0.1,1.3-0.2c0.4-0.2,0.7-0.4,0.9-0.7
		c0.2-0.3,0.4-0.6,0.5-1C47.5,114.6,47.6,114.2,47.6,113.8z"/>
	<path fill="#FFFFFF" d="M57.5,123.5c0,0.1,0,0.2-0.1,0.2c0,0.1-0.1,0.1-0.2,0.1S57,124,56.9,124c-0.2,0-0.4,0-0.6,0
		c-0.3,0-0.5,0-0.6,0c-0.2,0-0.3-0.1-0.4-0.1c-0.1,0-0.2-0.1-0.2-0.1c0-0.1-0.1-0.1-0.1-0.2v-20.9c0-0.1,0-0.2,0.1-0.2
		c0-0.1,0.1-0.1,0.2-0.2c0.1,0,0.2-0.1,0.4-0.1c0.2,0,0.4,0,0.6,0c0.3,0,0.5,0,0.6,0c0.2,0,0.3,0.1,0.4,0.1s0.2,0.1,0.2,0.2
		c0,0.1,0.1,0.1,0.1,0.2V123.5z"/>
	<path fill="#FFFFFF" d="M65.2,104.7c0,0.6-0.1,1-0.3,1.2c-0.2,0.2-0.7,0.3-1.3,0.3c-0.6,0-1-0.1-1.2-0.3c-0.2-0.2-0.3-0.6-0.3-1.2
		c0-0.6,0.1-1,0.3-1.2c0.2-0.2,0.7-0.3,1.3-0.3c0.6,0,1,0.1,1.2,0.3C65.1,103.7,65.2,104.1,65.2,104.7z M64.9,123.5
		c0,0.1,0,0.2-0.1,0.2c0,0.1-0.1,0.1-0.2,0.1s-0.2,0.1-0.4,0.1c-0.2,0-0.4,0-0.6,0c-0.3,0-0.5,0-0.6,0c-0.2,0-0.3-0.1-0.4-0.1
		c-0.1,0-0.2-0.1-0.2-0.1c0-0.1-0.1-0.1-0.1-0.2v-14.1c0-0.1,0-0.1,0.1-0.2c0-0.1,0.1-0.1,0.2-0.2c0.1,0,0.2-0.1,0.4-0.1
		c0.2,0,0.4,0,0.6,0c0.3,0,0.5,0,0.6,0c0.2,0,0.3,0.1,0.4,0.1s0.2,0.1,0.2,0.2c0,0.1,0.1,0.1,0.1,0.2V123.5z"/>
	<path fill="#FFFFFF" d="M78.5,119.7c0,0.7-0.1,1.4-0.4,1.9s-0.6,1-1.1,1.4c-0.5,0.4-1.1,0.7-1.8,0.9c-0.7,0.2-1.4,0.3-2.2,0.3
		c-0.5,0-1,0-1.4-0.1s-0.9-0.2-1.2-0.3s-0.7-0.2-0.9-0.4c-0.3-0.1-0.4-0.2-0.5-0.4c-0.1-0.1-0.2-0.3-0.3-0.4
		c-0.1-0.2-0.1-0.4-0.1-0.8c0-0.2,0-0.4,0-0.5c0-0.1,0-0.2,0.1-0.3c0-0.1,0.1-0.1,0.1-0.2c0.1,0,0.1-0.1,0.2-0.1
		c0.1,0,0.3,0.1,0.5,0.2c0.2,0.1,0.5,0.3,0.8,0.5c0.3,0.2,0.7,0.3,1.2,0.5c0.4,0.1,1,0.2,1.5,0.2c0.4,0,0.8,0,1.2-0.1
		c0.4-0.1,0.7-0.2,0.9-0.4c0.3-0.2,0.5-0.4,0.6-0.7s0.2-0.6,0.2-1c0-0.4-0.1-0.7-0.3-1c-0.2-0.3-0.5-0.5-0.8-0.7
		c-0.3-0.2-0.7-0.4-1.1-0.6c-0.4-0.2-0.8-0.3-1.3-0.5c-0.4-0.2-0.9-0.4-1.3-0.6c-0.4-0.2-0.8-0.5-1.1-0.8c-0.3-0.3-0.6-0.7-0.8-1.2
		c-0.2-0.4-0.3-1-0.3-1.6c0-0.6,0.1-1.1,0.3-1.6c0.2-0.5,0.5-0.9,1-1.3c0.4-0.4,1-0.7,1.6-0.9s1.4-0.3,2.2-0.3c0.4,0,0.8,0,1.1,0.1
		s0.7,0.1,1,0.2c0.3,0.1,0.6,0.2,0.8,0.3c0.2,0.1,0.4,0.2,0.5,0.3s0.2,0.2,0.2,0.2c0,0.1,0.1,0.1,0.1,0.2s0,0.2,0,0.3s0,0.3,0,0.4
		c0,0.2,0,0.3,0,0.5s0,0.2-0.1,0.3c0,0.1-0.1,0.1-0.1,0.2c-0.1,0-0.1,0.1-0.2,0.1c-0.1,0-0.2-0.1-0.4-0.2c-0.2-0.1-0.4-0.2-0.7-0.4
		s-0.6-0.3-1-0.4c-0.4-0.1-0.8-0.2-1.3-0.2c-0.4,0-0.8,0-1.2,0.1c-0.3,0.1-0.6,0.2-0.8,0.4c-0.2,0.2-0.4,0.4-0.5,0.6
		s-0.2,0.5-0.2,0.8c0,0.4,0.1,0.7,0.3,1c0.2,0.3,0.5,0.5,0.8,0.7c0.3,0.2,0.7,0.4,1.1,0.6c0.4,0.2,0.9,0.3,1.3,0.5
		c0.4,0.2,0.9,0.4,1.3,0.6c0.4,0.2,0.8,0.5,1.1,0.8c0.3,0.3,0.6,0.7,0.8,1.1S78.5,119.1,78.5,119.7z"/>
	<path fill="#FFFFFF" d="M94.3,123.5c0,0.1,0,0.2-0.1,0.2c0,0.1-0.1,0.1-0.2,0.1s-0.2,0.1-0.4,0.1c-0.2,0-0.4,0-0.6,0
		c-0.3,0-0.5,0-0.6,0c-0.2,0-0.3-0.1-0.4-0.1s-0.2-0.1-0.2-0.1c0-0.1-0.1-0.1-0.1-0.2v-8.2c0-0.8-0.1-1.4-0.2-1.9
		c-0.1-0.5-0.3-0.9-0.5-1.3c-0.2-0.4-0.5-0.6-0.9-0.8c-0.4-0.2-0.8-0.3-1.3-0.3c-0.6,0-1.3,0.2-1.9,0.7c-0.6,0.5-1.3,1.1-2,2v9.8
		c0,0.1,0,0.2-0.1,0.2c0,0.1-0.1,0.1-0.2,0.1s-0.2,0.1-0.4,0.1c-0.2,0-0.4,0-0.6,0c-0.3,0-0.5,0-0.6,0c-0.2,0-0.3-0.1-0.4-0.1
		c-0.1,0-0.2-0.1-0.2-0.1c0-0.1-0.1-0.1-0.1-0.2v-20.9c0-0.1,0-0.2,0.1-0.2c0-0.1,0.1-0.1,0.2-0.2c0.1,0,0.2-0.1,0.4-0.1
		c0.2,0,0.4,0,0.6,0c0.3,0,0.5,0,0.6,0c0.2,0,0.3,0.1,0.4,0.1s0.2,0.1,0.2,0.2c0,0.1,0.1,0.1,0.1,0.2v8.4c0.7-0.8,1.5-1.4,2.2-1.7
		s1.5-0.6,2.3-0.6c0.9,0,1.7,0.2,2.4,0.5s1.2,0.7,1.6,1.3c0.4,0.5,0.7,1.2,0.9,1.9s0.3,1.6,0.3,2.6V123.5z"/>
</g>
</svg>
