<?xml version="1.0" encoding="utf-8"?>
<!-- Generator: Adobe Illustrator 17.1.0, SVG Export Plug-In . SVG Version: 6.00 Build 0)  -->
<!DOCTYPE svg PUBLIC "-//W3C//DTD SVG 1.1//EN" "http://www.w3.org/Graphics/SVG/1.1/DTD/svg11.dtd">
<svg version="1.1" id="Layer_1" xmlns="http://www.w3.org/2000/svg" xmlns:xlink="http://www.w3.org/1999/xlink" x="0px" y="0px"
	 viewBox="0 65.4 102 102" enable-background="new 0 65.4 102 102" xml:space="preserve">
<path fill="#0093A7" d="M95.3,166.4H6.7c-3.1,0-5.7-2.6-5.7-5.7V72.1c0-3.1,2.6-5.7,5.7-5.7h88.6c3.2,0,5.7,2.6,5.7,5.7v88.6
	C101,163.8,98.4,166.4,95.3,166.4z"/>
<g>
	<path fill="#FFFFFF" d="M22.6,114c0,1.6-0.2,3.1-0.6,4.4c-0.4,1.3-1,2.4-1.7,3.4s-1.7,1.6-2.9,2.1s-2.5,0.7-4,0.7
		c-1.5,0-2.8-0.2-3.9-0.7s-2-1.1-2.8-2c-0.7-0.9-1.3-1.9-1.6-3.2c-0.4-1.3-0.5-2.8-0.5-4.4c0-1.6,0.2-3,0.6-4.3
		c0.4-1.3,1-2.4,1.7-3.3c0.8-0.9,1.7-1.6,2.9-2.1s2.5-0.7,4-0.7c1.5,0,2.8,0.2,3.9,0.7c1.1,0.4,2,1.1,2.8,2s1.3,1.9,1.6,3.2
		S22.6,112.3,22.6,114z M19.7,114.2c0-1.1-0.1-2.2-0.3-3.2c-0.2-1-0.5-1.8-1-2.6s-1.1-1.3-1.9-1.7s-1.8-0.6-2.9-0.6
		s-2.1,0.2-2.9,0.7c-0.8,0.4-1.4,1-1.9,1.8s-0.8,1.6-1.1,2.6s-0.3,2-0.3,3.1c0,1.2,0.1,2.3,0.3,3.3s0.5,1.9,1,2.6
		c0.5,0.7,1.1,1.3,1.9,1.7c0.8,0.4,1.8,0.6,3,0.6c1.2,0,2.2-0.2,3-0.7c0.8-0.4,1.4-1,1.9-1.8c0.5-0.7,0.8-1.6,1-2.6
		C19.6,116.3,19.7,115.3,19.7,114.2z"/>
	<path fill="#FFFFFF" d="M47.4,123.9c0,0.1,0,0.2-0.1,0.2c0,0.1-0.1,0.1-0.2,0.1s-0.2,0.1-0.4,0.1c-0.2,0-0.4,0-0.6,0
		c-0.3,0-0.5,0-0.6,0c-0.2,0-0.3-0.1-0.4-0.1c-0.1,0-0.2-0.1-0.2-0.1c0-0.1-0.1-0.1-0.1-0.2v-8.5c0-0.6-0.1-1.1-0.2-1.6
		c-0.1-0.5-0.3-0.9-0.5-1.3c-0.2-0.4-0.5-0.6-0.9-0.8c-0.4-0.2-0.8-0.3-1.3-0.3c-0.6,0-1.2,0.2-1.8,0.7c-0.6,0.5-1.3,1.1-2,2v9.8
		c0,0.1,0,0.2-0.1,0.2c0,0.1-0.1,0.1-0.2,0.1c-0.1,0-0.2,0.1-0.4,0.1c-0.2,0-0.4,0-0.6,0c-0.2,0-0.4,0-0.6,0c-0.2,0-0.3-0.1-0.4-0.1
		c-0.1,0-0.2-0.1-0.2-0.1c0-0.1-0.1-0.1-0.1-0.2v-8.5c0-0.6-0.1-1.1-0.2-1.6c-0.1-0.5-0.3-0.9-0.5-1.3c-0.2-0.4-0.5-0.6-0.9-0.8
		c-0.3-0.2-0.8-0.3-1.2-0.3c-0.6,0-1.2,0.2-1.8,0.7c-0.6,0.5-1.3,1.1-2,2v9.8c0,0.1,0,0.2-0.1,0.2c0,0.1-0.1,0.1-0.2,0.1
		s-0.2,0.1-0.4,0.1c-0.2,0-0.4,0-0.6,0c-0.3,0-0.5,0-0.6,0c-0.2,0-0.3-0.1-0.4-0.1c-0.1,0-0.2-0.1-0.2-0.1c0-0.1-0.1-0.1-0.1-0.2
		v-14.1c0-0.1,0-0.2,0-0.2s0.1-0.1,0.2-0.2s0.2-0.1,0.4-0.1c0.1,0,0.3,0,0.6,0c0.2,0,0.4,0,0.6,0c0.2,0,0.3,0,0.4,0.1
		c0.1,0,0.1,0.1,0.2,0.2c0,0.1,0.1,0.1,0.1,0.2v1.9c0.8-0.9,1.6-1.5,2.3-1.9c0.7-0.4,1.5-0.6,2.3-0.6c0.6,0,1.1,0.1,1.6,0.2
		c0.5,0.1,0.9,0.3,1.2,0.6c0.4,0.2,0.7,0.5,0.9,0.9s0.5,0.7,0.6,1.1c0.5-0.5,0.9-0.9,1.3-1.3s0.8-0.6,1.2-0.9s0.8-0.4,1.1-0.5
		c0.4-0.1,0.7-0.1,1.1-0.1c0.9,0,1.7,0.2,2.3,0.5c0.6,0.3,1.1,0.7,1.5,1.3c0.4,0.5,0.7,1.2,0.8,1.9c0.2,0.7,0.2,1.5,0.2,2.3V123.9z"
		/>
	<path fill="#FFFFFF" d="M72.4,116.7c0,1.1-0.2,2.2-0.5,3.2c-0.3,1-0.8,1.8-1.4,2.5c-0.6,0.7-1.3,1.2-2.3,1.6
		c-0.9,0.4-1.9,0.6-3.1,0.6c-1.2,0-2.2-0.2-3-0.5s-1.6-0.8-2.1-1.5c-0.6-0.7-1-1.5-1.3-2.4s-0.4-2-0.4-3.2c0-1.1,0.1-2.2,0.4-3.2
		c0.3-1,0.7-1.8,1.3-2.5c0.6-0.7,1.3-1.2,2.2-1.6c0.9-0.4,1.9-0.6,3.1-0.6c1.2,0,2.2,0.2,3,0.5s1.6,0.8,2.1,1.5
		c0.6,0.7,1,1.5,1.3,2.4C72.2,114.5,72.4,115.6,72.4,116.7z M69.7,116.9c0-0.8-0.1-1.5-0.2-2.2c-0.1-0.7-0.4-1.3-0.7-1.8
		s-0.8-0.9-1.3-1.2c-0.6-0.3-1.3-0.4-2.1-0.4c-0.8,0-1.4,0.1-2,0.4s-1,0.7-1.4,1.1s-0.6,1.1-0.8,1.8c-0.2,0.7-0.3,1.4-0.3,2.2
		c0,0.8,0.1,1.5,0.2,2.2c0.1,0.7,0.4,1.3,0.7,1.8c0.3,0.5,0.8,0.9,1.3,1.2s1.3,0.4,2.1,0.4c0.8,0,1.4-0.1,2-0.4
		c0.6-0.3,1-0.7,1.4-1.1c0.4-0.5,0.6-1.1,0.8-1.8C69.6,118.5,69.7,117.7,69.7,116.9z"/>
	<path fill="#FFFFFF" d="M85,120.1c0,0.7-0.1,1.4-0.4,1.9s-0.6,1-1.1,1.4c-0.5,0.4-1.1,0.7-1.8,0.9c-0.7,0.2-1.4,0.3-2.2,0.3
		c-0.5,0-1,0-1.4-0.1s-0.9-0.2-1.2-0.3s-0.7-0.2-0.9-0.4c-0.3-0.1-0.4-0.2-0.5-0.4c-0.1-0.1-0.2-0.3-0.3-0.4
		c-0.1-0.2-0.1-0.4-0.1-0.8c0-0.2,0-0.4,0-0.5c0-0.1,0-0.2,0.1-0.3c0-0.1,0.1-0.1,0.1-0.2c0.1,0,0.1-0.1,0.2-0.1
		c0.1,0,0.3,0.1,0.5,0.2c0.2,0.1,0.5,0.3,0.8,0.5c0.3,0.2,0.7,0.3,1.2,0.5c0.4,0.1,1,0.2,1.5,0.2c0.4,0,0.8,0,1.2-0.1
		c0.4-0.1,0.7-0.2,0.9-0.4c0.3-0.2,0.5-0.4,0.6-0.7s0.2-0.6,0.2-1c0-0.4-0.1-0.7-0.3-1c-0.2-0.3-0.5-0.5-0.8-0.7
		c-0.3-0.2-0.7-0.4-1.1-0.6c-0.4-0.2-0.8-0.3-1.3-0.5c-0.4-0.2-0.9-0.4-1.3-0.6c-0.4-0.2-0.8-0.5-1.1-0.8c-0.3-0.3-0.6-0.7-0.8-1.2
		c-0.2-0.4-0.3-1-0.3-1.6c0-0.6,0.1-1.1,0.3-1.6c0.2-0.5,0.5-0.9,1-1.3c0.4-0.4,1-0.7,1.6-0.9s1.4-0.3,2.2-0.3c0.4,0,0.8,0,1.1,0.1
		s0.7,0.1,1,0.2c0.3,0.1,0.6,0.2,0.8,0.3c0.2,0.1,0.4,0.2,0.5,0.3s0.2,0.2,0.2,0.2c0,0.1,0.1,0.1,0.1,0.2s0,0.2,0,0.3s0,0.3,0,0.4
		c0,0.2,0,0.3,0,0.5s0,0.2-0.1,0.3c0,0.1-0.1,0.1-0.1,0.2c-0.1,0-0.1,0.1-0.2,0.1c-0.1,0-0.2-0.1-0.4-0.2c-0.2-0.1-0.4-0.2-0.7-0.4
		s-0.6-0.3-1-0.4c-0.4-0.1-0.8-0.2-1.3-0.2c-0.4,0-0.8,0-1.2,0.1c-0.3,0.1-0.6,0.2-0.8,0.4c-0.2,0.2-0.4,0.4-0.5,0.6
		s-0.2,0.5-0.2,0.8c0,0.4,0.1,0.7,0.3,1c0.2,0.3,0.5,0.5,0.8,0.7c0.3,0.2,0.7,0.4,1.1,0.6c0.4,0.2,0.9,0.3,1.3,0.5
		c0.4,0.2,0.9,0.4,1.3,0.6c0.4,0.2,0.8,0.5,1.1,0.8c0.3,0.3,0.6,0.7,0.8,1.1S85,119.5,85,120.1z"/>
	<path fill="#FFFFFF" d="M97.5,120.1c0,0.7-0.1,1.4-0.4,1.9s-0.6,1-1.1,1.4c-0.5,0.4-1.1,0.7-1.8,0.9c-0.7,0.2-1.4,0.3-2.2,0.3
		c-0.5,0-1,0-1.4-0.1s-0.9-0.2-1.2-0.3s-0.7-0.2-0.9-0.4c-0.3-0.1-0.4-0.2-0.5-0.4c-0.1-0.1-0.2-0.3-0.3-0.4
		c-0.1-0.2-0.1-0.4-0.1-0.8c0-0.2,0-0.4,0-0.5c0-0.1,0-0.2,0.1-0.3c0-0.1,0.1-0.1,0.1-0.2c0.1,0,0.1-0.1,0.2-0.1
		c0.1,0,0.3,0.1,0.5,0.2c0.2,0.1,0.5,0.3,0.8,0.5c0.3,0.2,0.7,0.3,1.2,0.5c0.4,0.1,1,0.2,1.5,0.2c0.4,0,0.8,0,1.2-0.1
		c0.4-0.1,0.7-0.2,0.9-0.4c0.3-0.2,0.5-0.4,0.6-0.7s0.2-0.6,0.2-1c0-0.4-0.1-0.7-0.3-1c-0.2-0.3-0.5-0.5-0.8-0.7
		c-0.3-0.2-0.7-0.4-1.1-0.6c-0.4-0.2-0.8-0.3-1.3-0.5c-0.4-0.2-0.9-0.4-1.3-0.6c-0.4-0.2-0.8-0.5-1.1-0.8c-0.3-0.3-0.6-0.7-0.8-1.2
		c-0.2-0.4-0.3-1-0.3-1.6c0-0.6,0.1-1.1,0.3-1.6c0.2-0.5,0.5-0.9,1-1.3c0.4-0.4,1-0.7,1.6-0.9s1.4-0.3,2.2-0.3c0.4,0,0.8,0,1.1,0.1
		s0.7,0.1,1,0.2c0.3,0.1,0.6,0.2,0.8,0.3c0.2,0.1,0.4,0.2,0.5,0.3s0.2,0.2,0.2,0.2c0,0.1,0.1,0.1,0.1,0.2s0,0.2,0,0.3s0,0.3,0,0.4
		c0,0.2,0,0.3,0,0.5s0,0.2-0.1,0.3c0,0.1-0.1,0.1-0.1,0.2c-0.1,0-0.1,0.1-0.2,0.1c-0.1,0-0.2-0.1-0.4-0.2c-0.2-0.1-0.4-0.2-0.7-0.4
		s-0.6-0.3-1-0.4c-0.4-0.1-0.8-0.2-1.3-0.2c-0.4,0-0.8,0-1.2,0.1c-0.3,0.1-0.6,0.2-0.8,0.4c-0.2,0.2-0.4,0.4-0.5,0.6
		s-0.2,0.5-0.2,0.8c0,0.4,0.1,0.7,0.3,1c0.2,0.3,0.5,0.5,0.8,0.7c0.3,0.2,0.7,0.4,1.1,0.6c0.4,0.2,0.9,0.3,1.3,0.5
		c0.4,0.2,0.9,0.4,1.3,0.6c0.4,0.2,0.8,0.5,1.1,0.8c0.3,0.3,0.6,0.7,0.8,1.1S97.5,119.5,97.5,120.1z"/>
</g>
</svg>
