<?xml version="1.0" encoding="utf-8"?>
<!-- Generator: Adobe Illustrator 17.1.0, SVG Export Plug-In . SVG Version: 6.00 Build 0)  -->
<!DOCTYPE svg PUBLIC "-//W3C//DTD SVG 1.1//EN" "http://www.w3.org/Graphics/SVG/1.1/DTD/svg11.dtd">
<svg version="1.1" id="Layer_1" xmlns="http://www.w3.org/2000/svg" xmlns:xlink="http://www.w3.org/1999/xlink" x="0px" y="0px"
	 viewBox="0 0 362 65.4" enable-background="new 0 0 362 65.4" xml:space="preserve">
<g>
	<path fill="#0093A7" d="M1,42.1V23.1h3.6v19.1H1z"/>
	<path fill="#0093A7" d="M19.4,42.1l-6.1-11.3c-0.5-0.9-1-1.9-1.4-2.8h-0.1c0.1,1.1,0.1,2.3,0.1,3.4v10.7H8.6V23.1h4.2l6.1,11.1
		c0.5,0.9,1.1,2,1.5,2.9h0.1c-0.1-1.1-0.1-2.5-0.1-3.6V23.1h3.3v19.1H19.4z"/>
	<path fill="#0093A7" d="M38.4,42.1l-6.1-11.3c-0.5-0.9-1-1.9-1.4-2.8h-0.1c0.1,1.1,0.1,2.3,0.1,3.4v10.7h-3.3V23.1h4.2l6.1,11.1
		c0.5,0.9,1.1,2,1.5,2.9h0.1c-0.1-1.1-0.1-2.5-0.1-3.6V23.1h3.3v19.1H38.4z"/>
	<path fill="#0093A7" d="M50.2,26.1v4.8h8v2.9h-8v8.4h-3.6V23.1h12.1v3H50.2z"/>
	<path fill="#0093A7" d="M68.5,42.5c-1.9,0-3.5-0.4-4.8-1.3l-0.6,0.8h-3.4l2.2-2.9c-0.8-1.4-1.2-3.2-1.2-5.5v-2.2
		c0-6.2,3-8.8,7.8-8.8c1.8,0,3.4,0.4,4.7,1.2l0.6-0.8h3.4l-2.1,2.8c0.8,1.4,1.3,3.2,1.3,5.6v2.2C76.3,39.9,73.3,42.5,68.5,42.5z
		 M64.4,35.8l6.8-9.2c-0.7-0.6-1.6-0.8-2.7-0.8c-2.6,0-4.3,1.4-4.3,5.7v2.2C64.2,34.5,64.3,35.2,64.4,35.8z M72.8,31.5
		c0-0.8-0.1-1.6-0.2-2.2l-6.8,9.3c0.7,0.6,1.6,0.9,2.7,0.9c2.6,0,4.3-1.4,4.3-5.7V31.5z"/>
	<path fill="#0093A7" d="M90.8,42.1l-4.2-7.1c-0.5,0-1.1,0-1.7,0h-1.8v7h-3.5V23.1c1.7-0.1,3.4-0.1,5.3-0.1c4.6,0,8.4,0.9,8.4,5.9
		v0.2c0,2.9-1.3,4.4-3.3,5.3l4.5,7.8H90.8z M89.9,28.9c0-2.9-2-3-6.7-3v6.3c0.7,0,1.3,0,2,0c3.3,0,4.7-0.7,4.7-3.2V28.9z"/>
	<path fill="#0093A7" d="M97.1,42.1V23.1h3.6v19.1H97.1z"/>
	<path fill="#0093A7" d="M115.5,42.1l-6.1-11.3c-0.5-0.9-1-1.9-1.4-2.8h-0.1c0.1,1.1,0.1,2.3,0.1,3.4v10.7h-3.3V23.1h4.2l6.1,11.1
		c0.5,0.9,1.1,2,1.5,2.9h0.1c-0.1-1.1-0.1-2.5-0.1-3.6V23.1h3.3v19.1H115.5z"/>
	<path fill="#0093A7" d="M131,42.5c-4.4,0-8-1.7-8-8.6v-2.7c0-7.3,4.1-8.6,8.1-8.6c2.8,0,5.5,0.5,6.1,0.6v2.7
		c-1.2-0.1-4.2-0.3-5.5-0.3c-3.1,0-5.1,0.7-5.1,5.4v2.7c0,4.4,1.6,5.5,4.7,5.5c0.9,0,1.9,0,2.6-0.1V32h3.4v10
		C136.2,42.2,133.7,42.5,131,42.5z"/>
	<path fill="#0093A7" d="M157.6,42.1l-1.6-5.3h-6.1l-1.7,5.3h-3.7l5.8-19.1h5.4l5.8,19.1H157.6z M153.7,28.6c-0.3-0.9-0.5-2-0.7-3
		h-0.2c-0.2,1-0.4,2.1-0.7,3l-1.6,5.3h4.8L153.7,28.6z"/>
	<path fill="#0093A7" d="M171.2,42.1H166l-5.7-19.1h3.7l3.9,13.2c0.3,1.1,0.5,2.4,0.8,3.4h0.1c0.2-1,0.4-2.3,0.8-3.4l3.9-13.2h3.6
		L171.2,42.1z"/>
	<path fill="#0093A7" d="M195.6,42.1l-6.1-11.3c-0.5-0.9-1-1.9-1.4-2.8H188c0.1,1.1,0.1,2.3,0.1,3.4v10.7h-3.3V23.1h4.2l6.1,11.1
		c0.5,0.9,1,2,1.5,2.9h0.1c-0.1-1.1-0.1-2.5-0.1-3.6V23.1h3.3v19.1H195.6z"/>
	<path fill="#0093A7" d="M212.1,35v7.1h-3.5V35l-6.4-11.9h3.7l3,5.5c0.5,0.9,1,2,1.3,2.9h0.2c0.3-0.9,0.9-2.1,1.4-2.9l3-5.5h3.6
		L212.1,35z"/>
	<path fill="#0093A7" d="M220.9,42.1V23.1H233v3h-8.5v4.8h8v2.9h-8v5.4h8.5v2.9H220.9z"/>
	<path fill="#0093A7" d="M255.8,42.1V31.5c0-1.2,0.1-2.1,0.1-3.3h-0.1c-0.4,0.9-0.9,1.8-1.3,2.6l-2.8,5.4h-2.8l-2.8-5.4
		c-0.4-0.8-0.8-1.7-1.3-2.6h-0.1c0.1,1.2,0.1,2.1,0.1,3.3v10.6h-3.5V23.1h3.9l3.8,7.5c0.4,0.7,0.8,1.6,1.2,2.4h0.1
		c0.4-0.8,0.8-1.7,1.2-2.5l3.9-7.4h3.9v19.1H255.8z"/>
	<path fill="#0093A7" d="M263.3,42.1V23.1h12.1v3h-8.5v4.8h8v2.9h-8v5.4h8.5v2.9H263.3z"/>
	<path fill="#0093A7" d="M286.8,26v16.1h-3.6V26h-5.7v-3h15v3H286.8z"/>
	<path fill="#0093A7" d="M301.3,42.5c-4.8,0-7.8-2.6-7.8-8.8v-2.2c0-6.2,3-8.8,7.8-8.8c4.8,0,7.8,2.6,7.8,8.8v2.2
		C309.1,39.9,306.1,42.5,301.3,42.5z M305.6,31.5c0-4.3-1.7-5.7-4.3-5.7c-2.6,0-4.3,1.4-4.3,5.7v2.2c0,4.3,1.7,5.7,4.3,5.7
		c2.6,0,4.3-1.4,4.3-5.7V31.5z"/>
	<path fill="#0093A7" d="M318.4,42.3c-2.3,0-3.6-0.1-5.9-0.2V23.1c2.3-0.1,3.4-0.2,5.9-0.2c6.2,0,8.8,2.9,8.8,8.4v2.4
		C327.2,39.4,324.8,42.3,318.4,42.3z M323.7,31.3c0-4.2-1.6-5.4-5.3-5.4H316v13.3h2.4c3.7,0,5.3-1.3,5.3-5.5V31.3z"/>
	<path fill="#0093A7" d="M330.6,42.1V23.1h12.1v3h-8.5v4.8h8v2.9h-8v5.4h8.5v2.9H330.6z"/>
	<path fill="#0093A7" d="M357.2,42.1l-4.2-7.1c-0.5,0-1.1,0-1.7,0h-1.8v7h-3.5V23.1c1.7-0.1,3.4-0.1,5.3-0.1c4.6,0,8.4,0.9,8.4,5.9
		v0.2c0,2.9-1.3,4.4-3.3,5.3l4.5,7.8H357.2z M356.3,28.9c0-2.9-2-3-6.7-3v6.3c0.7,0,1.3,0,2,0c3.3,0,4.7-0.7,4.7-3.2V28.9z"/>
</g>
<g>
	<path fill="#004E66" d="M7.1,12.8l-3.9-8C2.9,4.3,2.5,3.6,2.2,2.9h0c0,0.7,0.1,1.5,0.1,2.3v7.6H1V1.7h2l3.9,7.8
		c0.3,0.5,0.6,1.3,0.9,1.9h0c-0.1-0.9-0.1-1.8-0.1-2.4V1.7H9v11.1H7.1z"/>
	<path fill="#004E66" d="M16.1,12.8v-0.6c-0.5,0.3-1.4,0.8-2.6,0.8c-1.5,0-2.5-0.7-2.5-2.3v-0.3c0-2.2,1.5-2.5,3.8-2.5h1.2V7.2
		c0-1.4-0.3-1.7-1.9-1.7c-0.9,0-1.7,0.1-2.5,0.2v-1c0.2-0.1,1.4-0.4,2.7-0.4c2.7,0,3.2,1,3.2,2.9v5.6H16.1z M16.1,8.8h-1.2
		c-1.7,0-2.4,0.2-2.4,1.5v0.4c0,0.9,0.6,1.2,1.4,1.2c1,0,2-0.4,2.3-0.7V8.8z"/>
	<path fill="#004E66" d="M22,13c-1.2,0-2.4-0.2-2.7-0.3v-1c0.5,0,1.7,0.2,2.7,0.2c1.4,0,1.8-0.4,1.8-1.1c0-0.7-0.3-1-1.7-1.6
		l-0.6-0.3c-1.6-0.7-2.3-1.3-2.3-2.5c0-1.4,0.9-2.1,3-2.1c1.1,0,2.2,0.2,2.5,0.3v1c-0.9-0.1-1.9-0.2-2.4-0.2c-1.2,0-1.7,0.2-1.7,0.9
		c0,0.6,0.3,0.9,1.4,1.4l0.6,0.3c1.9,0.9,2.5,1.4,2.5,2.6C25.1,11.9,24.5,13,22,13z"/>
	<path fill="#004E66" d="M26.2,16.2c-0.4,0-0.9,0-1-0.1v-1c0.2,0,0.5,0,0.9,0c0.7,0,0.9-0.3,0.9-1.3V4.6h1.3v9.3
		C28.3,15.6,27.8,16.2,26.2,16.2z M27,3V1.2h1.4V3H27z"/>
	<path fill="#004E66" d="M33.9,13c-2.3,0-3.5-1.3-3.5-3.7V8.1c0-2.4,1.2-3.7,3.5-3.7c2.3,0,3.5,1.3,3.5,3.7v1.2
		C37.4,11.7,36.2,13,33.9,13z M36.1,8.1c0-1.8-0.7-2.5-2.2-2.5c-1.5,0-2.2,0.8-2.2,2.5v1.2c0,1.8,0.7,2.5,2.2,2.5
		c1.5,0,2.2-0.8,2.2-2.5V8.1z"/>
	<path fill="#004E66" d="M44.7,12.8V7.5c0-1.5-0.2-2-1.4-2c-0.6,0-1.5,0.3-2.6,0.7v6.6h-1.3V4.6h1.3v0.6c1-0.5,1.8-0.9,2.7-0.9
		c2.2,0,2.6,1.2,2.6,3.2v5.3H44.7z"/>
	<path fill="#004E66" d="M53,12.8v-0.6c-0.5,0.3-1.4,0.8-2.6,0.8c-1.5,0-2.5-0.7-2.5-2.3v-0.3c0-2.2,1.5-2.5,3.8-2.5H53V7.2
		c0-1.4-0.3-1.7-1.9-1.7c-0.9,0-1.7,0.1-2.5,0.2v-1c0.2-0.1,1.4-0.4,2.7-0.4c2.7,0,3.2,1,3.2,2.9v5.6H53z M53,8.8h-1.2
		c-1.7,0-2.4,0.2-2.4,1.5v0.4c0,0.9,0.6,1.2,1.4,1.2c1,0,2-0.4,2.3-0.7V8.8z"/>
	<path fill="#004E66" d="M56.6,12.8V1.2h1.3v11.6H56.6z"/>
	<path fill="#004E66" d="M63.3,13c-1.5,0-2-0.5-2-2.1V5.7l-1.7-0.1v-1h1.7V2.4h1.3v2.1h2.2v1.1h-2.2v5.2c0,0.9,0.1,1.1,0.8,1.1
		c0.5,0,1.1,0,1.4-0.1v0.9C64.6,12.9,63.9,13,63.3,13z"/>
	<path fill="#004E66" d="M71.6,13c-1.2,0-2.4-0.2-2.7-0.3v-1c0.5,0,1.7,0.2,2.7,0.2c1.4,0,1.8-0.4,1.8-1.1c0-0.7-0.3-1-1.7-1.6
		l-0.6-0.3c-1.6-0.7-2.3-1.3-2.3-2.5c0-1.4,0.9-2.1,3-2.1c1.1,0,2.2,0.2,2.5,0.3v1c-0.9-0.1-1.9-0.2-2.4-0.2c-1.2,0-1.7,0.2-1.7,0.9
		c0,0.6,0.3,0.9,1.4,1.4l0.6,0.3c1.9,0.9,2.5,1.4,2.5,2.6C74.7,11.9,74.1,13,71.6,13z"/>
	<path fill="#004E66" d="M79.6,13.5c-0.6,1.6-1.1,2.6-2.8,2.6c-0.7,0-1.3-0.1-1.6-0.2v-1c0.6,0,1,0.1,1.6,0.1c0.8,0,1-0.4,1.5-1.6
		l0.2-0.6l-3.2-8.2h1.5l1.7,4.6c0.3,0.7,0.4,1.3,0.7,2.2c0.2-0.9,0.4-1.4,0.6-2.2l1.5-4.6h1.4L79.6,13.5z"/>
	<path fill="#004E66" d="M86.6,13c-1.2,0-2.4-0.2-2.7-0.3v-1c0.5,0,1.7,0.2,2.7,0.2c1.4,0,1.8-0.4,1.8-1.1c0-0.7-0.3-1-1.7-1.6
		l-0.6-0.3c-1.6-0.7-2.3-1.3-2.3-2.5c0-1.4,0.9-2.1,3-2.1c1.1,0,2.2,0.2,2.5,0.3v1c-0.9-0.1-1.9-0.2-2.4-0.2c-1.2,0-1.7,0.2-1.7,0.9
		c0,0.6,0.3,0.9,1.4,1.4l0.6,0.3c1.9,0.9,2.5,1.4,2.5,2.6C89.7,11.9,89.1,13,86.6,13z"/>
	<path fill="#004E66" d="M94.4,13c-1.5,0-2-0.5-2-2.1V5.7l-1.7-0.1v-1h1.7V2.4h1.3v2.1h2.2v1.1h-2.2v5.2c0,0.9,0.1,1.1,0.8,1.1
		c0.5,0,1.1,0,1.4-0.1v0.9C95.7,12.9,95,13,94.4,13z"/>
	<path fill="#004E66" d="M98.3,9.2v0.2c0,1.4,0.2,2.5,2.5,2.5c0.9,0,2.1-0.1,2.9-0.2v1.1c-0.6,0.1-1.6,0.3-2.9,0.3
		c-2.9,0-3.8-1.3-3.8-4V8.4c0-2.6,1.2-4.1,3.5-4.1c2.4,0,3.5,1.5,3.5,4.2v0.6H98.3z M102.6,7.9c0-1-0.2-2.4-2.1-2.4
		c-1.9,0-2.1,1.4-2.1,2.4v0.1h4.3V7.9z"/>
	<path fill="#004E66" d="M115.2,12.8V7.3c0-1.2,0-1.8-1.2-1.8c-0.6,0-1.4,0.3-2.1,0.7c0.1,0.4,0.1,0.8,0.1,1.1v5.5h-1.3V7.3
		c0-1.2,0-1.8-1.1-1.8c-0.7,0-1.5,0.4-2.1,0.7v6.6H106V4.6h1.3v0.6c0.7-0.5,1.5-0.9,2.5-0.9c1,0,1.5,0.3,1.8,0.9
		c1-0.6,1.8-0.9,2.5-0.9c2.4,0,2.4,1.7,2.4,3v5.5H115.2z"/>
	<path fill="#004E66" d="M123.7,5.7v7.1h-1.3V5.7l-1.6-0.1v-1h1.6v-1c0-1.3,0.2-2.6,2.1-2.6c0.6,0,1.2,0.1,1.6,0.2v0.9
		c-0.4,0-0.9-0.1-1.4-0.1c-0.9,0-1,0.5-1,1.5v1h2.3v1.1H123.7z"/>
	<path fill="#004E66" d="M130.5,13c-2.3,0-3.5-1.3-3.5-3.7V8.1c0-2.4,1.2-3.7,3.5-3.7c2.3,0,3.5,1.3,3.5,3.7v1.2
		C134,11.7,132.8,13,130.5,13z M132.7,8.1c0-1.8-0.7-2.5-2.2-2.5c-1.5,0-2.2,0.8-2.2,2.5v1.2c0,1.8,0.7,2.5,2.2,2.5
		c1.5,0,2.2-0.8,2.2-2.5V8.1z"/>
	<path fill="#004E66" d="M137.3,6.3v6.6H136V4.6h1.3v0.7c0.8-0.6,1.8-0.9,2.9-0.9v1.2C139.2,5.5,138,5.8,137.3,6.3z"/>
	<path fill="#004E66" d="M188,51.3v-1.8h1.4v1.8H188z M188,61.1v-8.3h1.3v8.3H188z"/>
	<path fill="#004E66" d="M197,61.3c-1.2,0-2.4-0.2-2.7-0.3v-1c0.5,0,1.7,0.2,2.7,0.2c1.4,0,1.8-0.4,1.8-1.1c0-0.7-0.3-1-1.7-1.6
		l-0.6-0.3c-1.6-0.7-2.3-1.3-2.3-2.5c0-1.4,0.9-2.1,3-2.1c1.1,0,2.2,0.2,2.5,0.3v1c-0.9-0.1-1.9-0.2-2.4-0.2c-1.2,0-1.7,0.2-1.7,0.9
		c0,0.6,0.3,0.9,1.4,1.4l0.6,0.3c1.9,0.9,2.5,1.4,2.5,2.6C200.1,60.2,199.4,61.3,197,61.3z"/>
	<path fill="#004E66" d="M205,61.3c-0.6,0-1.3-0.1-1.8-0.2v3.2h-1.3V52.8h1.3v0.6c0.7-0.5,1.6-0.8,2.4-0.8c1.9,0,3,1.1,3,3.8v0.8
		C208.5,60.4,207,61.3,205,61.3z M207.2,56.4c0-2-0.6-2.7-1.9-2.7c-0.6,0-1.2,0.1-2.1,0.6v5.5c0.7,0.1,1.3,0.2,1.8,0.2
		c1.3,0,2.2-0.5,2.2-2.9V56.4z"/>
	<path fill="#004E66" d="M211.5,57.4v0.2c0,1.4,0.2,2.5,2.5,2.5c0.9,0,2.1-0.1,2.9-0.2v1.1c-0.6,0.2-1.6,0.3-2.9,0.3
		c-2.9,0-3.8-1.3-3.8-4v-0.6c0-2.6,1.2-4.1,3.5-4.1c2.4,0,3.5,1.5,3.5,4.2v0.6H211.5z M215.8,56.2c0-1-0.2-2.4-2.1-2.4
		c-1.9,0-2.1,1.4-2.1,2.4v0.1h4.3V56.2z"/>
	<path fill="#004E66" d="M221.6,61.3c-1.2,0-2.4-0.2-2.7-0.3v-1c0.5,0,1.7,0.2,2.7,0.2c1.4,0,1.8-0.4,1.8-1.1c0-0.7-0.3-1-1.7-1.6
		l-0.6-0.3c-1.6-0.7-2.3-1.3-2.3-2.5c0-1.4,0.9-2.1,3-2.1c1.1,0,2.2,0.2,2.5,0.3v1c-0.9-0.1-1.9-0.2-2.4-0.2c-1.2,0-1.7,0.2-1.7,0.9
		c0,0.6,0.3,0.9,1.4,1.4l0.6,0.3c1.9,0.9,2.5,1.4,2.5,2.6C224.6,60.2,224,61.3,221.6,61.3z"/>
	<path fill="#004E66" d="M226.5,51.3v-1.8h1.4v1.8H226.5z M226.5,61.1v-8.3h1.3v8.3H226.5z"/>
	<path fill="#004E66" d="M234.9,61.1v-0.6c-0.5,0.3-1.4,0.8-2.6,0.8c-1.5,0-2.5-0.7-2.5-2.3v-0.3c0-2.2,1.5-2.5,3.8-2.5h1.2v-0.6
		c0-1.4-0.3-1.7-1.9-1.7c-0.9,0-1.7,0.1-2.5,0.2v-1c0.2-0.1,1.4-0.4,2.7-0.4c2.7,0,3.2,1,3.2,2.9v5.6H234.9z M234.9,57.1h-1.2
		c-1.7,0-2.4,0.2-2.4,1.5V59c0,0.9,0.6,1.2,1.4,1.2c1,0,2-0.4,2.3-0.7V57.1z"/>
	<path fill="#004E66" d="M238.5,61.1V49.4h1.3v11.6H238.5z"/>
	<path fill="#004E66" d="M242.3,51.3v-1.8h1.4v1.8H242.3z M242.3,61.1v-8.3h1.3v8.3H242.3z"/>
	<path fill="#004E66" d="M248.5,61.3c-1.2,0-2.4-0.2-2.7-0.3v-1c0.5,0,1.7,0.2,2.7,0.2c1.4,0,1.8-0.4,1.8-1.1c0-0.7-0.3-1-1.7-1.6
		l-0.6-0.3c-1.6-0.7-2.3-1.3-2.3-2.5c0-1.4,0.9-2.1,3-2.1c1.1,0,2.2,0.2,2.5,0.3v1c-0.9-0.1-1.9-0.2-2.4-0.2c-1.2,0-1.7,0.2-1.7,0.9
		c0,0.6,0.3,0.9,1.4,1.4l0.6,0.3c1.9,0.9,2.5,1.4,2.5,2.6C251.5,60.2,250.9,61.3,248.5,61.3z"/>
	<path fill="#004E66" d="M256.2,61.3c-1.5,0-2-0.5-2-2.1v-5.2l-1.7-0.1v-1h1.7v-2.1h1.3v2.1h2.2v1.1h-2.2v5.2c0,0.9,0.1,1.1,0.8,1.1
		c0.5,0,1.1,0,1.4-0.1V61C257.5,61.1,256.9,61.3,256.2,61.3z"/>
	<path fill="#004E66" d="M264.7,61.1v-5.2c0-1.6-0.4-2.1-1.6-2.1c-0.9,0-1.9,0.3-2.4,0.6v6.7h-1.3V49.4h1.3v3.8
		c0.5-0.3,1.5-0.7,2.7-0.7c1.8,0,2.6,1,2.6,3.2v5.3H264.7z"/>
	<path fill="#004E66" d="M269.3,57.4v0.2c0,1.4,0.2,2.5,2.5,2.5c0.9,0,2.1-0.1,2.9-0.2v1.1c-0.6,0.2-1.6,0.3-2.9,0.3
		c-2.9,0-3.8-1.3-3.8-4v-0.6c0-2.6,1.2-4.1,3.5-4.1c2.4,0,3.5,1.5,3.5,4.2v0.6H269.3z M273.6,56.2c0-1-0.2-2.4-2.1-2.4
		c-1.9,0-2.1,1.4-2.1,2.4v0.1h4.3V56.2z"/>
	<path fill="#004E66" d="M277.1,61.1V49.4h1.3v11.6H277.1z"/>
	<path fill="#004E66" d="M283.2,61.3c-1.2,0-2.4-0.2-2.7-0.3v-1c0.5,0,1.7,0.2,2.7,0.2c1.4,0,1.8-0.4,1.8-1.1c0-0.7-0.3-1-1.7-1.6
		l-0.6-0.3c-1.6-0.7-2.3-1.3-2.3-2.5c0-1.4,0.9-2.1,3-2.1c1.1,0,2.2,0.2,2.5,0.3v1c-0.9-0.1-1.9-0.2-2.4-0.2c-1.2,0-1.7,0.2-1.7,0.9
		c0,0.6,0.3,0.9,1.4,1.4l0.6,0.3c1.9,0.9,2.5,1.4,2.5,2.6C286.3,60.2,285.6,61.3,283.2,61.3z"/>
	<path fill="#004E66" d="M289,57.4v0.2c0,1.4,0.2,2.5,2.5,2.5c0.9,0,2.1-0.1,2.9-0.2v1.1c-0.6,0.2-1.6,0.3-2.9,0.3
		c-2.9,0-3.8-1.3-3.8-4v-0.6c0-2.6,1.2-4.1,3.5-4.1c2.4,0,3.5,1.5,3.5,4.2v0.6H289z M293.3,56.2c0-1-0.2-2.4-2.1-2.4
		c-1.9,0-2.1,1.4-2.1,2.4v0.1h4.3V56.2z"/>
	<path fill="#004E66" d="M299.3,61.3c-1.5,0-2-0.5-2-2.1v-5.2l-1.7-0.1v-1h1.7v-2.1h1.3v2.1h2.2v1.1h-2.2v5.2c0,0.9,0.1,1.1,0.8,1.1
		c0.5,0,1.1,0,1.4-0.1V61C300.6,61.1,300,61.3,299.3,61.3z"/>
	<path fill="#004E66" d="M301.8,64.4c-0.4,0-0.9,0-1-0.1v-1c0.2,0,0.5,0,0.9,0c0.7,0,0.9-0.3,0.9-1.3v-9.3h1.3v9.3
		C303.9,63.8,303.4,64.4,301.8,64.4z M302.5,51.3v-1.8h1.4v1.8H302.5z"/>
	<path fill="#004E66" d="M307.3,57.4v0.2c0,1.4,0.2,2.5,2.5,2.5c0.9,0,2.1-0.1,2.9-0.2v1.1c-0.6,0.2-1.6,0.3-2.9,0.3
		c-2.9,0-3.8-1.3-3.8-4v-0.6c0-2.6,1.2-4.1,3.5-4.1c2.4,0,3.5,1.5,3.5,4.2v0.6H307.3z M311.6,56.2c0-1-0.2-2.4-2.1-2.4
		c-1.9,0-2.1,1.4-2.1,2.4v0.1h4.3V56.2z"/>
	<path fill="#004E66" d="M320.3,61.1v-5.3c0-1.5-0.2-2-1.4-2c-0.6,0-1.5,0.3-2.6,0.7v6.6H315v-8.3h1.3v0.6c1-0.5,1.8-0.9,2.7-0.9
		c2.2,0,2.6,1.2,2.6,3.2v5.3H320.3z"/>
	<path fill="#004E66" d="M324.9,57.4v0.2c0,1.4,0.2,2.5,2.5,2.5c0.9,0,2.1-0.1,2.9-0.2v1.1c-0.6,0.2-1.6,0.3-2.9,0.3
		c-2.9,0-3.8-1.3-3.8-4v-0.6c0-2.6,1.2-4.1,3.5-4.1c2.4,0,3.5,1.5,3.5,4.2v0.6H324.9z M329.2,56.2c0-1-0.2-2.4-2.1-2.4
		c-1.9,0-2.1,1.4-2.1,2.4v0.1h4.3V56.2z"/>
	<path fill="#004E66" d="M335,61.3c-1.2,0-2.4-0.2-2.7-0.3v-1c0.5,0,1.7,0.2,2.7,0.2c1.4,0,1.8-0.4,1.8-1.1c0-0.7-0.3-1-1.7-1.6
		l-0.6-0.3c-1.6-0.7-2.3-1.3-2.3-2.5c0-1.4,0.9-2.1,3-2.1c1.1,0,2.2,0.2,2.5,0.3v1c-0.9-0.1-1.9-0.2-2.4-0.2c-1.2,0-1.7,0.2-1.7,0.9
		c0,0.6,0.3,0.9,1.4,1.4l0.6,0.3c1.9,0.9,2.5,1.4,2.5,2.6C338.1,60.2,337.5,61.3,335,61.3z"/>
	<path fill="#004E66" d="M342.8,61.3c-1.5,0-2-0.5-2-2.1v-5.2l-1.7-0.1v-1h1.7v-2.1h1.3v2.1h2.2v1.1h-2.2v5.2c0,0.9,0.1,1.1,0.8,1.1
		c0.5,0,1.1,0,1.4-0.1V61C344.1,61.1,343.4,61.3,342.8,61.3z"/>
	<path fill="#004E66" d="M346.7,57.4v0.2c0,1.4,0.2,2.5,2.5,2.5c0.9,0,2.1-0.1,2.9-0.2v1.1c-0.6,0.2-1.6,0.3-2.9,0.3
		c-2.9,0-3.8-1.3-3.8-4v-0.6c0-2.6,1.2-4.1,3.5-4.1c2.4,0,3.5,1.5,3.5,4.2v0.6H346.7z M351,56.2c0-1-0.2-2.4-2.1-2.4
		c-1.9,0-2.1,1.4-2.1,2.4v0.1h4.3V56.2z"/>
	<path fill="#004E66" d="M359.7,61.1v-5.3c0-1.5-0.2-2-1.4-2c-0.6,0-1.5,0.3-2.6,0.7v6.6h-1.3v-8.3h1.3v0.6c1-0.5,1.8-0.9,2.7-0.9
		c2.2,0,2.6,1.2,2.6,3.2v5.3H359.7z"/>
</g>
</svg>
