<?xml version="1.0" encoding="utf-8"?>
<!-- Generator: Adobe Illustrator 17.1.0, SVG Export Plug-In . SVG Version: 6.00 Build 0)  -->
<!DOCTYPE svg PUBLIC "-//W3C//DTD SVG 1.1//EN" "http://www.w3.org/Graphics/SVG/1.1/DTD/svg11.dtd">
<svg version="1.1" id="Layer_1" xmlns="http://www.w3.org/2000/svg" xmlns:xlink="http://www.w3.org/1999/xlink" x="0px" y="0px"
	 viewBox="0 0 30 30" enable-background="new 0 0 30 30" xml:space="preserve">
<polygon fill="none" points="25,-26.6 25,-13.3 31.7,-19.9 "/>
<polygon fill="none" points="12.9,9 9.9,9 14,13 14,13 16.5,15.5 16.4,15.5 16.5,15.5 14,18 14,18 9.9,22 12.9,22 19.4,15.5 "/>
<polygon fill="#E09B26" points="14,18 16.5,15.5 16.4,15.5 16.5,15.5 14,13 14,13 9.9,9 5,9 11.5,15.5 5,22 9.9,22 14,18 "/>
<polygon fill="#E09B26" points="25.5,15.5 23,13 23,13 18.9,9 14,9 20.5,15.5 14,22 18.9,22 23,18 23,18 25.5,15.5 25.4,15.5 "/>
</svg>
