<?xml version="1.0" encoding="utf-8"?>
<!-- Generator: Adobe Illustrator 17.1.0, SVG Export Plug-In . SVG Version: 6.00 Build 0)  -->
<!DOCTYPE svg PUBLIC "-//W3C//DTD SVG 1.1//EN" "http://www.w3.org/Graphics/SVG/1.1/DTD/svg11.dtd">
<svg version="1.1" id="Layer_1" xmlns="http://www.w3.org/2000/svg" xmlns:xlink="http://www.w3.org/1999/xlink" x="0px" y="0px"
	 viewBox="0 0 30 30" enable-background="new 0 0 30 30" xml:space="preserve">
<rect fill="#E09B26" width="30" height="30"/>
<path id="magnifier-icon" fill="#FFFFFF" d="M23.3,21.2l-4.4-4.4c0.6-1,1-2.2,1-3.5c0-3.6-3-6.6-6.6-6.6c-3.6,0-6.6,3-6.6,6.6
	s3,6.6,6.6,6.6c1.2,0,2.4-0.3,3.4-0.9l4.5,4.5L23.3,21.2z M9.2,13.2c0-2.3,1.9-4.1,4.1-4.1s4.1,1.9,4.1,4.1s-1.9,4.1-4.1,4.1
	C11,17.4,9.2,15.5,9.2,13.2z"/>
</svg>
