<?xml version="1.0" encoding="utf-8"?>
<!-- Generator: Adobe Illustrator 18.0.0, SVG Export Plug-In . SVG Version: 6.00 Build 0)  -->
<!DOCTYPE svg PUBLIC "-//W3C//DTD SVG 1.1//EN" "http://www.w3.org/Graphics/SVG/1.1/DTD/svg11.dtd">
<svg version="1.1" id="Layer_1" xmlns="http://www.w3.org/2000/svg" xmlns:xlink="http://www.w3.org/1999/xlink" x="0px" y="0px"
	 viewBox="0 0 1280 760" enable-background="new 0 0 1280 760" xml:space="preserve">
<g>
	<polygon fill="none" points="864.6,129.9 935.4,129.9 864.6,59 	"/>
	<path fill="#8B8B8B" d="M989,139.9L854.6,6H404v124l31-0.1l0-92.9h399v124h124v556H435V364h-31l0.2,383.8H989V139.9z M864,130V59
		l71,71H864z"/>
	<path fill="none" d="M472.6,320.3c8.2,1.2,21.2,2.3,38.8,2.3c29.4,0,54.1-7.1,69.3-20c14.1-12.9,24.7-31.7,24.7-61.1
		c0-25.9-10.6-44.7-25.9-56.4c-15.3-10.6-32.9-16.5-62.3-16.5c-16.5,0-32.9,1.2-45.8,3.5h1.2V320.3z M505.5,196.9
		c2.3,0,8.2-1.2,15.3-1.2c29.4,0,48.2,16.5,48.2,48.2c0,36.4-21.2,52.9-51.7,52.9c-3.5,0-9.4,0-11.8-1.2V196.9z"/>
	<path fill="none" d="M450.3,215.7c0-14.6-6.5-26.9-15.3-34.1c-0.4-0.3-0.8-0.8-1.2-1.1c-6.9-6-16.9-9.4-30-10.9v-1.2l-0.1,1.2
		c-4.8-0.5-10-0.8-15.7-0.8c-21.2,0-35.3,1.2-45.8,3.5h-1.2v146.9H375v-54.1c3.5,1.2,7.1,1.2,11.8,1.2c5.9,0,11.5-0.6,16.9-1.4
		c12.4-2,23.2-6.2,31.3-13.1c0.3-0.3,0.8-0.5,1.1-0.8C445.6,242.8,450.3,231,450.3,215.7z M403.7,237.9c-4.6,2.4-10.4,3.7-16.9,3.7
		c-5.9,0-9.4,0-11.8-1.2v-44.7c2.3-1.2,7.1-1.2,14.1-1.2c5.9,0,10.5,1.2,14.6,3l0.1,0.1c7.9,3.5,12.4,9.9,12.4,19.3
		C416.2,226.5,411.5,233.8,403.7,237.9z"/>
	<polygon fill="none" points="661.8,260.4 715.9,260.4 715.9,232.2 661.8,232.2 661.8,198.1 719.5,198.1 719.5,169.9 627.8,169.9 
		627.8,320.3 661.8,320.3 	"/>
	<path fill="#C53729" d="M403.8,197.6l-0.1-0.1c-4-1.8-8.6-3-14.6-3c-7.1,0-11.8,0-14.1,1.2v44.7c2.3,1.2,5.9,1.2,11.8,1.2
		c6.6,0,12.3-1.3,16.9-3.7c7.8-4.1,12.5-11.4,12.5-21C416.2,207.6,411.7,201.1,403.8,197.6z"/>
	<path fill="#C53729" d="M569,243.9c0-31.7-18.8-48.2-48.2-48.2c-7.1,0-12.9,1.2-15.3,1.2v98.7c2.3,1.2,8.2,1.2,11.8,1.2
		C547.8,296.8,569,280.4,569,243.9z"/>
	<path fill="#C53729" d="M770,364V130H287v234H770z M627.8,169.9h91.7v28.2h-57.6v34.1h54.1v28.2h-54.1v60h-34.1V169.9z
		 M517.3,168.7c29.4,0,47,5.9,62.3,16.5c15.3,11.8,25.9,30.6,25.9,56.4c0,29.4-10.6,48.2-24.7,61.1c-15.3,12.9-40,20-69.3,20
		c-17.6,0-30.6-1.2-38.8-2.3V172.2h-1.2C484.3,169.9,500.8,168.7,517.3,168.7z M403.7,264.9c-5.4,0.9-11,1.4-16.9,1.4
		c-4.7,0-8.2,0-11.8-1.2v54.1h-34.1V172.2h1.2c10.6-2.3,24.7-3.5,45.8-3.5c5.7,0,10.9,0.3,15.7,0.8l0.1-1.2v1.2
		c13.1,1.5,23.1,4.9,30,10.9c0.4,0.3,0.8,0.8,1.2,1.1c8.8,7.2,15.3,19.5,15.3,34.1c0,15.3-4.7,27-14.1,35.3
		c-0.3,0.3-0.8,0.5-1.1,0.8C426.9,258.7,416.1,262.9,403.7,264.9z"/>
</g>
</svg>
