<?xml version="1.0" encoding="utf-8"?>
<!-- Generator: Adobe Illustrator 17.1.0, SVG Export Plug-In . SVG Version: 6.00 Build 0)  -->
<!DOCTYPE svg PUBLIC "-//W3C//DTD SVG 1.1//EN" "http://www.w3.org/Graphics/SVG/1.1/DTD/svg11.dtd">
<svg version="1.1" id="Layer_1" xmlns="http://www.w3.org/2000/svg" xmlns:xlink="http://www.w3.org/1999/xlink" x="0px" y="0px"
	 viewBox="0 0 102 84" enable-background="new 0 0 102 84" xml:space="preserve">
<path fill="#02343F" d="M101,10.6c-3.7,1.7-7.6,2.8-11.8,3.3c4.2-2.5,7.5-6.5,9-11.4c-4,2.4-8.3,4.1-13,5c-3.7-4-9.1-6.5-15-6.5
	c-11.4,0-20.5,9.2-20.5,20.5c0,1.6,0.2,3.2,0.6,4.7C33.1,25.3,18,17.1,7.9,4.7c-1.8,3-2.8,6.5-2.8,10.3c0,7.1,3.6,13.4,9.1,17.1
	c-3.3-0.1-6.5-1-9.3-2.5c0,0.1,0,0.2,0,0.2c0,9.9,7.1,18.3,16.5,20.1c-1.7,0.5-3.6,0.7-5.4,0.7c-1.3,0-2.6-0.2-3.8-0.3
	c2.6,8.2,10.2,14.1,19.2,14.2c-7,5.5-15.8,8.8-25.5,8.8c-1.7,0-3.3-0.1-4.9-0.3c9.1,5.8,19.9,9.2,31.5,9.2
	c37.8,0,58.4-31.2,58.4-58.4c0-0.9,0-1.7-0.1-2.6C94.8,18.3,98.2,14.8,101,10.6z"/>
</svg>
