<?xml version="1.0" encoding="utf-8"?>
<!-- Generator: Adobe Illustrator 17.1.0, SVG Export Plug-In . SVG Version: 6.00 Build 0)  -->
<!DOCTYPE svg PUBLIC "-//W3C//DTD SVG 1.1//EN" "http://www.w3.org/Graphics/SVG/1.1/DTD/svg11.dtd">
<svg version="1.1" id="Layer_1" xmlns="http://www.w3.org/2000/svg" xmlns:xlink="http://www.w3.org/1999/xlink" x="0px" y="0px"
	 viewBox="0 0 841.9 744.4" enable-background="new 0 0 841.9 744.4" xml:space="preserve">
<g>
	<path fill="#004E66" d="M817.1,742.8H24.8C9.9,742.8,0,732.9,0,718.1v-99c0-14.9,9.9-24.8,24.8-24.8h792.4
		c14.9,0,24.8,9.9,24.8,24.8v99C841.9,732.9,832,742.8,817.1,742.8z"/>
	<path fill="#004E66" d="M817.1,445.7H24.8C9.9,445.7,0,435.8,0,420.9v-99c0-14.9,9.9-24.8,24.8-24.8h792.4
		c14.9,0,24.8,9.9,24.8,24.8v99C841.9,435.8,832,445.7,817.1,445.7z"/>
	<path fill="#004E66" d="M817.1,148.6H24.8C9.9,148.6,0,138.7,0,123.8v-99C0,9.9,9.9,0,24.8,0h792.4c14.9,0,24.8,9.9,24.8,24.8v99
		C841.9,138.7,832,148.6,817.1,148.6z"/>
</g>
</svg>
